<svg width="189" height="120" viewBox="0 0 189 120" fill="none" xmlns="http://www.w3.org/2000/svg">
<path d="M22.5699 45.6H39.7699V30.5C39.7699 26.2 40.1699 19.5 40.3699 15.2H39.9699C38.1699 19.1 36.1699 23.2 34.0699 27.2L22.5699 45.6ZM62.2699 45.6V56.8H53.4699V76H39.7699V56.8H8.26992V46.8L35.8699 2H53.4699V45.6H62.2699ZM94.5566 77.4C79.4566 77.4 69.4566 64.2 69.4566 38.7C69.4566 13.1 79.4566 0.599999 94.5566 0.599999C109.557 0.599999 119.557 13.2 119.557 38.7C119.557 64.2 109.557 77.4 94.5566 77.4ZM94.5566 65.9C100.857 65.9 105.657 59.5 105.657 38.7C105.657 18 100.857 12 94.5566 12C88.1566 12 83.3566 18 83.3566 38.7C83.3566 59.5 88.1566 65.9 94.5566 65.9ZM140.343 45.6H157.543V30.5C157.543 26.2 157.943 19.5 158.143 15.2H157.743C155.943 19.1 153.943 23.2 151.843 27.2L140.343 45.6ZM180.043 45.6V56.8H171.243V76H157.543V56.8H126.043V46.8L153.643 2H171.243V45.6H180.043Z" fill="#1A0D0D"/>
<path d="M3.13075 119V95.32H7.96275L14.8428 107.928L17.2108 113.048H17.3708C17.1147 110.584 16.7628 107.448 16.7628 104.76V95.32H21.2428V119H16.4428L9.59475 106.328L7.19475 101.24H7.03475C7.25875 103.8 7.61075 106.776 7.61075 109.496V119H3.13075ZM36.5075 119.448C30.2355 119.448 25.9155 114.744 25.9155 107.064C25.9155 99.352 30.2355 94.872 36.5075 94.872C42.7795 94.872 47.0995 99.384 47.0995 107.064C47.0995 114.744 42.7795 119.448 36.5075 119.448ZM36.5075 115.352C40.0275 115.352 42.2675 112.12 42.2675 107.064C42.2675 101.976 40.0275 98.936 36.5075 98.936C32.9875 98.936 30.7475 101.976 30.7475 107.064C30.7475 112.12 32.9875 115.352 36.5075 115.352ZM55.4285 119V99.256H48.7725V95.32H66.8845V99.256H60.1645V119H55.4285ZM77.9745 119V95.32H92.5665V99.256H82.7105V105.432H91.1265V109.4H82.7105V119H77.9745ZM105.726 119.448C99.4543 119.448 95.1343 114.744 95.1343 107.064C95.1343 99.352 99.4543 94.872 105.726 94.872C111.998 94.872 116.318 99.384 116.318 107.064C116.318 114.744 111.998 119.448 105.726 119.448ZM105.726 115.352C109.246 115.352 111.486 112.12 111.486 107.064C111.486 101.976 109.246 98.936 105.726 98.936C102.206 98.936 99.9663 101.976 99.9663 107.064C99.9663 112.12 102.206 115.352 105.726 115.352ZM130.031 119.448C124.271 119.448 120.815 116.216 120.815 108.344V95.32H125.551V108.76C125.551 113.688 127.247 115.352 130.031 115.352C132.847 115.352 134.639 113.688 134.639 108.76V95.32H139.183V108.344C139.183 116.216 135.823 119.448 130.031 119.448ZM144.881 119V95.32H149.713L156.593 107.928L158.961 113.048H159.121C158.865 110.584 158.513 107.448 158.513 104.76V95.32H162.993V119H158.193L151.345 106.328L148.945 101.24H148.785C149.009 103.8 149.361 106.776 149.361 109.496V119H144.881ZM168.85 119V95.32H175.345C182.578 95.32 187.058 99.064 187.058 107.064C187.058 115.032 182.578 119 175.602 119H168.85ZM173.586 115.192H175.058C179.474 115.192 182.226 112.824 182.226 107.064C182.226 101.272 179.474 99.096 175.058 99.096H173.586V115.192Z" fill="#1A0D0D"/>
</svg>
