<svg width="24" height="24" viewBox="0 0 24 24" fill="none" xmlns="http://www.w3.org/2000/svg">
<path d="M19.2171 14.5738C19.2171 11.5755 17.1981 9.5038 13.7779 9.5038H9.04688L7.30664 9.58667L8.625 8.47171L10.5385 6.60341C10.6892 6.46027 10.7871 6.27194 10.7871 6.02333C10.7871 5.54872 10.4556 5.20972 9.96596 5.20972C9.75502 5.20972 9.52148 5.30765 9.35575 5.46586L5.03906 9.72227C4.86579 9.88801 4.77539 10.114 4.77539 10.3476C4.77539 10.5736 4.86579 10.7996 5.03906 10.9653L9.35575 15.2217C9.52148 15.3799 9.75502 15.4779 9.96596 15.4779C10.4556 15.4779 10.7871 15.1388 10.7871 14.6642C10.7871 14.4156 10.6892 14.2348 10.5385 14.0842L8.625 12.2159L7.30664 11.1084L9.04688 11.1838H13.8156C16.2263 11.1838 17.5597 12.5549 17.5597 14.5136C17.5597 16.4723 16.2263 17.9036 13.8156 17.9036H12.0527C11.5555 17.9036 11.2015 18.2803 11.2015 18.7399C11.2015 19.1994 11.5555 19.5761 12.0603 19.5761H13.8758C17.2358 19.5761 19.2171 17.5948 19.2171 14.5738Z" fill="#1A0D0D"/>
</svg>
