<svg width="25" height="25" viewBox="0 0 25 25" fill="none" xmlns="http://www.w3.org/2000/svg">
<g id="icon/camera" clip-path="url(#clip0_47_5631)">
<path id="Vector" d="M12.5 15.7313C14.2673 15.7313 15.7 14.2986 15.7 12.5313C15.7 10.764 14.2673 9.3313 12.5 9.3313C10.7327 9.3313 9.29999 10.764 9.29999 12.5313C9.29999 14.2986 10.7327 15.7313 12.5 15.7313Z" fill="#1A0D0D"/>
<path id="Vector_2" d="M9.5 2.53125L7.67 4.53125H4.5C3.4 4.53125 2.5 5.43125 2.5 6.53125V18.5312C2.5 19.6313 3.4 20.5312 4.5 20.5312H20.5C21.6 20.5312 22.5 19.6313 22.5 18.5312V6.53125C22.5 5.43125 21.6 4.53125 20.5 4.53125H17.33L15.5 2.53125H9.5ZM12.5 17.5312C9.74 17.5312 7.5 15.2913 7.5 12.5312C7.5 9.77125 9.74 7.53125 12.5 7.53125C15.26 7.53125 17.5 9.77125 17.5 12.5312C17.5 15.2913 15.26 17.5312 12.5 17.5312Z" fill="#1A0D0D"/>
</g>
<defs>
<clipPath id="clip0_47_5631">
<rect width="24" height="24" fill="white" transform="translate(0.5 0.53125)"/>
</clipPath>
</defs>
</svg>
