<svg width="25" height="24" viewBox="0 0 25 24" fill="none" xmlns="http://www.w3.org/2000/svg">
<g clip-path="url(#clip0_86_1096)">
<path d="M2 -7.86805e-07L9.5 9L16.85 -1.37691e-07L2 -7.86805e-07ZM9.35 13.5L2 22.5L17 22.5L9.35 13.5ZM5.15 21L9.35 15.9L13.85 21L5.15 21ZM17 10.5L17 12L15.5 12L15.5 10.5L17 10.5ZM20 10.5L20 12L18.5 12L18.5 10.5L20 10.5ZM14 10.5L14 12L12.5 12L12.5 10.5L14 10.5ZM11 10.5L11 12L9.5 12L9.5 10.5L11 10.5ZM8 10.5L8 12L6.5 12L6.5 10.5L8 10.5ZM5 10.5L5 12L3.5 12L3.5 10.5L5 10.5ZM2 10.5L2 12L0.499999 12L0.5 10.5L2 10.5Z" fill="#1A0D0D"/>
<path d="M23 11.25C23 13.2 21.95 15.15 20.15 16.65L18.5 15L18.5 19.5L23 19.5L21.2 17.7C23.3 15.9 24.5 13.65 24.5 11.25C24.5 8.40002 23 5.85002 20.15 3.90002L19.25 5.10002C21.65 6.75002 23 8.85002 23 11.25Z" fill="#1A0D0D"/>
</g>
<defs>
<clipPath id="clip0_86_1096">
<rect width="24" height="24" fill="white" transform="translate(24.5) rotate(90)"/>
</clipPath>
</defs>
</svg>
