<svg width="25" height="24" viewBox="0 0 25 24" fill="none" xmlns="http://www.w3.org/2000/svg">
<g clip-path="url(#clip0_86_1092)">
<path d="M0.5 22.5L9.5 15L0.5 7.65V22.5ZM14 15.15L23 22.5V7.5L14 15.15ZM21.5 19.35L16.4 15.15L21.5 10.65V19.35ZM11 7.5H12.5V9H11V7.5ZM11 4.5H12.5V6H11V4.5ZM11 10.5H12.5V12H11V10.5ZM11 13.5H12.5V15H11V13.5ZM11 16.5H12.5V18H11V16.5ZM11 19.5H12.5V21H11V19.5ZM11 22.5H12.5V24H11V22.5Z" fill="#1A0D0D"/>
<path d="M11.75 1.5C13.7 1.5 15.65 2.55 17.15 4.35L15.5 6H20V1.5L18.2 3.3C16.4 1.2 14.15 0 11.75 0C8.90002 0 6.35002 1.5 4.40002 4.35L5.60002 5.25C7.25002 2.85 9.35002 1.5 11.75 1.5Z" fill="#1A0D0D"/>
</g>
<defs>
<clipPath id="clip0_86_1092">
<rect width="24" height="24" fill="white" transform="translate(0.5)"/>
</clipPath>
</defs>
</svg>
