<svg width="24" height="24" viewBox="0 0 24 24" fill="none" xmlns="http://www.w3.org/2000/svg">
<path fill-rule="evenodd" clip-rule="evenodd" d="M12 2C17.5141 2 22 5.64051 22 10.1152C22 11.906 21.3057 13.5188 19.8565 15.1082H19.8569C17.7589 17.5229 13.0674 20.4642 12 20.914C10.9622 21.3513 11.0824 20.6672 11.13 20.3969C11.1313 20.3892 11.1326 20.3819 11.1338 20.3749C11.1592 20.2244 11.2766 19.5188 11.2766 19.5188C11.3102 19.2634 11.345 18.8673 11.2442 18.6146C11.1321 18.3362 10.6888 18.1918 10.3632 18.1215C5.55758 17.4864 2 14.1267 2 10.1152C2 5.64051 6.48637 2 12 2ZM9.972 7.95288H9.2628C9.15735 7.95288 9.07187 8.03836 9.07187 8.14381V12.5081C9.07187 12.6135 9.15735 12.699 9.2628 12.699H9.972C10.0774 12.699 10.1629 12.6135 10.1629 12.5081V8.14381C10.1629 8.03836 10.0774 7.95288 9.972 7.95288ZM15.8636 12.699H18.673C18.7785 12.699 18.864 12.6135 18.864 12.5081V11.7989C18.864 11.6939 18.778 11.6079 18.673 11.6079H16.7637V10.8715H18.673C18.7785 10.8715 18.864 10.786 18.864 10.6805V9.97136C18.864 9.86634 18.778 9.78041 18.673 9.78041H16.7637V9.04396H18.673C18.7785 9.04396 18.864 8.95846 18.864 8.85301V8.14383C18.864 8.03881 18.778 7.95291 18.673 7.95291H15.8636C15.7581 7.95291 15.6726 8.03838 15.6726 8.14383V12.5081C15.6726 12.6135 15.7581 12.699 15.8636 12.699ZM8.47162 12.5081C8.47162 12.6135 8.38612 12.699 8.28069 12.699L5.4712 12.699C5.36574 12.699 5.28027 12.6135 5.28027 12.5081V8.14384C5.28027 8.03838 5.36574 7.95291 5.4712 7.95291H6.1804C6.2854 7.95291 6.37132 8.03881 6.37132 8.14384V11.6079H8.28069C8.38569 11.6079 8.47162 11.6939 8.47162 11.7989V12.5081ZM14.0908 7.95288H14.8C14.9054 7.95288 14.9909 8.03838 14.9909 8.14381V12.5081C14.9909 12.6135 14.9054 12.699 14.7999 12.699H14.0946C14.0774 12.699 14.0607 12.6965 14.0447 12.6923L14.042 12.6916C14.0375 12.6904 14.0332 12.6889 14.0288 12.6874L14.0228 12.6852L14.0134 12.6811C14.0103 12.6797 14.0072 12.6783 14.0042 12.6767L13.9986 12.6736C13.9946 12.6713 13.9905 12.6689 13.9866 12.6663L13.9844 12.6648C13.9658 12.6521 13.9489 12.6362 13.9352 12.6167L11.9359 9.91675V12.5081C11.9359 12.6135 11.8504 12.699 11.745 12.699H11.0358C10.9303 12.699 10.8449 12.6135 10.8449 12.5081V8.14381C10.8449 8.03838 10.9303 7.95288 11.0358 7.95288H11.7411L11.7436 7.95297L11.7476 7.95323C11.751 7.95331 11.7544 7.95343 11.7578 7.95372C11.7612 7.954 11.7646 7.95449 11.7681 7.95498L11.7681 7.95498L11.7762 7.95622C11.7801 7.95691 11.7838 7.95778 11.7876 7.9587L11.7943 7.96043C11.7983 7.96155 11.8021 7.96282 11.8059 7.96414L11.8122 7.96642C11.8159 7.96792 11.8196 7.96953 11.8233 7.97123L11.8294 7.97417C11.833 7.97598 11.8364 7.97794 11.8399 7.97999L11.8458 7.98353L11.8504 7.98658L11.8558 7.99047L11.861 7.99433C11.8646 7.99713 11.868 8.00006 11.8714 8.00309L11.875 8.00634C11.879 8.01015 11.8828 8.01412 11.8865 8.01824L11.8877 8.01962C11.8932 8.0259 11.8984 8.03241 11.9031 8.03936L13.8998 10.7359V8.14381C13.8998 8.03838 13.9853 7.95288 14.0908 7.95288Z" fill="#350000"/>
</svg>
