<svg width="21" height="20" viewBox="0 0 21 20" fill="none" xmlns="http://www.w3.org/2000/svg">
<path d="M17.9997 12.5H19.6663V14.1667H17.9997V12.5ZM17.9997 9.16667H19.6663V10.8333H17.9997V9.16667ZM19.6663 15.8333H17.9997V17.5C18.833 17.5 19.6663 16.6667 19.6663 15.8333ZM11.333 2.5H12.9997V4.16667H11.333V2.5ZM17.9997 5.83333H19.6663V7.5H17.9997V5.83333ZM17.9997 2.5V4.16667H19.6663C19.6663 3.33333 18.833 2.5 17.9997 2.5ZM1.33301 5.83333H2.99967V7.5H1.33301V5.83333ZM14.6663 2.5H16.333V4.16667H14.6663V2.5ZM14.6663 15.8333H16.333V17.5H14.6663V15.8333ZM2.99967 2.5C2.16634 2.5 1.33301 3.33333 1.33301 4.16667H2.99967V2.5ZM7.99967 2.5H9.66634V4.16667H7.99967V2.5ZM4.66634 2.5H6.33301V4.16667H4.66634V2.5ZM1.33301 9.16667V15.8333C1.33301 16.75 2.08301 17.5 2.99967 17.5H12.9997V9.16667H1.33301ZM2.99967 15.8333L5.08301 13.1583L6.57467 14.95L8.65801 12.2667L11.333 15.8333H2.99967Z" fill="#F3CC00"/>
</svg>
