<svg width="21" height="20" viewBox="0 0 21 20" fill="none" xmlns="http://www.w3.org/2000/svg">
<path d="M1.72852 17.2915L7.97852 12.0832L1.72852 6.979V17.2915ZM11.1035 12.1873L17.3535 17.2915V6.87484L11.1035 12.1873ZM16.3118 15.104L12.7702 12.1873L16.3118 9.06234V15.104ZM9.02018 6.87484H10.0618V7.9165H9.02018V6.87484ZM9.02018 4.7915H10.0618V5.83317H9.02018V4.7915ZM9.02018 8.95817H10.0618V9.99984H9.02018V8.95817ZM9.02018 11.0415H10.0618V12.0832H9.02018V11.0415ZM9.02018 13.1248H10.0618V14.1665H9.02018V13.1248ZM9.02018 15.2082H10.0618V16.2498H9.02018V15.2082ZM9.02018 17.2915H10.0618V18.3332H9.02018V17.2915Z" fill="#F3CC00"/>
<path d="M9.54069 2.70817C10.8949 2.70817 12.249 3.43734 13.2907 4.68734L12.1449 5.83317H15.2699V2.70817L14.0199 3.95817C12.7699 2.49984 11.2074 1.6665 9.54069 1.6665C7.56152 1.6665 5.79069 2.70817 4.43652 4.68734L5.26986 5.31234C6.41569 3.64567 7.87402 2.70817 9.54069 2.70817Z" fill="#F3CC00"/>
</svg>
