<svg width="25" height="24" viewBox="0 0 25 24" fill="none" xmlns="http://www.w3.org/2000/svg">
<g clip-path="url(#clip0_5_4448)">
<path d="M6.85023 6.35C8.30023 4.9 10.2902 4 12.5002 4C16.9202 4 20.4902 7.58 20.4902 12C20.4902 16.42 16.9202 20 12.5002 20C8.77024 20 5.66024 17.45 4.77024 14H6.85023C7.67023 16.33 9.89023 18 12.5002 18C15.8102 18 18.5002 15.31 18.5002 12C18.5002 8.69 15.8102 6 12.5002 6C10.8402 6 9.36024 6.69 8.28024 7.78L11.5002 11H4.50023V4L6.85023 6.35Z" fill="#1A0D0D"/>
</g>
<defs>
<clipPath id="clip0_5_4448">
<rect width="24" height="24" fill="white" transform="matrix(-1 0 0 1 24.5 0)"/>
</clipPath>
</defs>
</svg>
