<svg width="25" height="24" viewBox="0 0 25 24" fill="none" xmlns="http://www.w3.org/2000/svg">
<path d="M20.5359 5.7923C19.8912 6.10596 19.1963 6.31207 18.4762 6.41065C19.213 5.93569 19.7824 5.18292 20.0503 4.27781C19.3554 4.72588 18.5851 5.03954 17.7729 5.21877C17.1114 4.44808 16.1821 4 15.1271 4C13.1595 4 11.5519 5.72061 11.5519 7.84449C11.5519 8.14918 11.5854 8.44491 11.644 8.72272C8.66329 8.56141 6.00911 7.02899 4.24245 4.70796C3.93266 5.27254 3.75683 5.93569 3.75683 6.63469C3.75683 7.96995 4.38479 9.15287 5.35603 9.82499C4.76156 9.82499 4.20896 9.64575 3.72334 9.37691V9.40379C3.72334 11.2678 4.96251 12.8271 6.60358 13.1766C6.0767 13.3309 5.52357 13.3524 4.98763 13.2393C5.21504 14.0033 5.66041 14.6717 6.26115 15.1508C6.86188 15.6298 7.58776 15.8952 8.33675 15.9099C7.06712 16.9856 5.49334 17.5671 3.87405 17.5588C3.58937 17.5588 3.30469 17.5408 3.02002 17.505C4.61085 18.5983 6.50311 19.2346 8.52932 19.2346C15.1271 19.2346 18.7525 13.3737 18.7525 8.29257C18.7525 8.1223 18.7525 7.96099 18.7441 7.79072C19.4475 7.25303 20.0503 6.57195 20.5359 5.7923Z" fill="#350000"/>
</svg>
