<svg width="340" height="87" viewBox="0 0 340 87" fill="none" xmlns="http://www.w3.org/2000/svg">
<path d="M339.185 42.77L338.483 43.082C338.197 42.523 337.768 41.782 337.404 41.288L338.093 41.002C338.431 41.47 338.938 42.289 339.185 42.77ZM337.729 43.303L337.014 43.615C336.754 43.095 336.312 42.302 335.961 41.808L336.65 41.522C336.975 41.977 337.456 42.783 337.729 43.303ZM330.839 41.821L332.061 41.938C332.009 42.185 331.944 42.445 331.905 42.705C331.827 43.082 331.71 43.836 331.567 44.525C332.165 44.473 332.698 44.434 333.01 44.434C334.167 44.434 335.103 44.889 335.103 46.631C335.103 48.165 334.895 50.193 334.362 51.272C333.946 52.13 333.309 52.338 332.477 52.338C331.983 52.338 331.372 52.247 330.956 52.156L330.787 51.051C331.333 51.233 332.009 51.337 332.373 51.337C332.841 51.337 333.218 51.233 333.491 50.674C333.907 49.816 334.102 48.139 334.102 46.748C334.102 45.578 333.569 45.37 332.737 45.37C332.425 45.37 331.918 45.409 331.359 45.461C330.891 47.307 330.007 50.206 328.655 52.364L327.602 51.935C328.915 50.18 329.864 47.281 330.306 45.565C329.63 45.63 329.019 45.695 328.681 45.734C328.369 45.773 327.849 45.825 327.524 45.89L327.42 44.759C327.823 44.772 328.148 44.772 328.564 44.759C328.993 44.746 329.734 44.681 330.514 44.616C330.696 43.693 330.852 42.692 330.839 41.821ZM335.532 43.849L336.481 43.407C337.287 44.447 338.405 46.787 338.834 47.983L337.833 48.477C337.443 47.151 336.429 44.902 335.532 43.849Z" fill="black"/>
<path d="M66.585 1.46L67.62 1.79C67.245 2.795 66.795 3.83 66.285 4.805V15.125H65.19V6.635C64.755 7.325 64.275 7.925 63.795 8.45C63.69 8.195 63.36 7.61 63.18 7.37C64.545 5.915 65.82 3.695 66.585 1.46ZM71.73 7.07H69.15V10.235H71.73V7.07ZM72.765 11.225H69.15V12.26H68.085V6.08H72.765V11.225ZM76.935 2.9V3.98H75.84V13.61C75.84 14.405 75.63 14.735 75.105 14.915C74.55 15.095 73.56 15.125 72.105 15.125C72.06 14.81 71.865 14.3 71.7 13.985C72.9 14.03 73.995 14.015 74.325 14C74.64 13.985 74.745 13.91 74.745 13.61V3.98H67.65V2.9H76.935ZM99.195 3.98H89.415C88.74 5.33 87.9 6.5 86.985 7.355C86.76 7.16 86.265 6.815 85.965 6.635C87.42 5.435 88.575 3.515 89.19 1.415L90.345 1.685C90.195 2.15 90.03 2.6 89.85 3.035H99.195V3.98ZM97.77 6.095H89.16V5.165H97.77V6.095ZM93.195 8.51L94.245 8.87C93.705 9.815 93.06 10.685 92.34 11.48C93.42 12.26 94.38 13.07 95.025 13.76L94.14 14.6C93.54 13.91 92.61 13.1 91.53 12.29C90.24 13.505 88.755 14.51 87.195 15.26C87.03 15.035 86.61 14.6 86.37 14.405C87.945 13.73 89.415 12.8 90.66 11.66C89.73 11 88.74 10.37 87.81 9.845L88.605 9.11C89.52 9.62 90.51 10.22 91.47 10.865C92.145 10.145 92.73 9.35 93.195 8.51ZM87.45 7.295H97.14C97.155 11.165 97.365 14.06 98.49 14.06C98.79 14.06 98.865 13.205 98.895 11.945C99.105 12.17 99.435 12.44 99.675 12.59C99.57 14.465 99.33 15.14 98.415 15.155C96.435 15.14 96.12 12.35 96.03 8.255H87.45V7.295ZM122.07 6.14L121.395 7.13C120.6 6.455 118.995 5.54 118.005 5.09L118.59 4.16C119.67 4.64 121.365 5.6 122.07 6.14ZM116.67 3.89L116.7 5C115.92 5.225 114.99 5.42 114.015 5.54C113.28 7.64 111.96 10.22 110.775 11.825L109.605 11.225C110.85 9.785 112.11 7.415 112.785 5.675C112.35 5.705 111.915 5.72 111.48 5.72C110.925 5.72 110.31 5.705 109.755 5.675L109.665 4.55C110.22 4.625 110.85 4.655 111.495 4.655C112.02 4.655 112.575 4.625 113.145 4.58C113.37 3.755 113.58 2.81 113.61 2.015L114.945 2.135C114.795 2.675 114.6 3.575 114.36 4.43C115.14 4.31 115.92 4.13 116.67 3.89ZM117.45 12.185C117.45 11.99 117.45 11.75 117.435 11.48C116.97 11.345 116.46 11.27 115.935 11.27C114.84 11.27 114.12 11.765 114.12 12.44C114.12 13.13 114.675 13.595 115.83 13.595C117.045 13.595 117.45 12.92 117.45 12.185ZM117.24 6.725H118.44C118.395 7.34 118.41 7.775 118.425 8.33C118.44 8.87 118.5 9.845 118.53 10.745C119.805 11.21 120.84 11.945 121.605 12.605L120.96 13.625C120.33 13.055 119.535 12.395 118.575 11.93C118.59 12.155 118.59 12.365 118.59 12.53C118.59 13.715 117.81 14.69 115.98 14.69C114.345 14.69 113.01 14.015 113.01 12.545C113.01 11.18 114.3 10.295 115.98 10.295C116.475 10.295 116.955 10.34 117.39 10.43C117.345 9.215 117.27 7.76 117.24 6.725ZM134.34 3.56C134.28 3.92 134.235 4.61 134.22 5C134.205 5.93 134.22 7.295 134.325 8.51C134.565 11 135.285 12.635 136.335 12.635C137.1 12.635 137.79 11.105 138.18 9.605L139.125 10.685C138.24 13.205 137.325 14.06 136.305 14.06C134.91 14.06 133.56 12.665 133.155 8.81C133.005 7.52 132.99 5.72 132.99 4.85C132.99 4.505 132.975 3.89 132.9 3.53L134.34 3.56ZM142.08 3.965C143.415 5.69 144.48 8.735 144.69 11.24L143.475 11.72C143.22 9.05 142.32 6.11 140.91 4.37L142.08 3.965ZM157.575 12.905H165.015V8.72H157.575V12.905ZM165.015 3.575H157.575V7.625H165.015V3.575ZM156.45 2.48H166.185V14.915H165.015V14H157.575V14.975H156.45V2.48ZM181.26 6.65V8.12H186.915V6.65H181.26ZM189.405 10.19V13.325C189.405 13.91 189.285 14.21 188.82 14.375C188.355 14.555 187.605 14.555 186.45 14.555C186.39 14.24 186.21 13.835 186.06 13.535C186.96 13.565 187.755 13.565 187.98 13.55C188.205 13.535 188.28 13.49 188.28 13.31V11.21H184.8V15.155H183.675V11.21H179.97V14.48H178.86V10.19H183.675V8.96H180.195V5.81H188.025V8.96H184.8V10.19H189.405ZM187.95 1.565L189.105 1.97C188.61 2.63 188.04 3.32 187.605 3.77L186.705 3.395C187.125 2.9 187.665 2.105 187.95 1.565ZM190.32 3.77V6.98H189.225V4.745H178.95V6.98H177.885V3.77H180.285C180.06 3.275 179.55 2.54 179.115 2L180.105 1.595C180.6 2.12 181.125 2.855 181.38 3.35L180.45 3.77H183.585V1.445H184.71V3.77H190.32ZM202.035 2.645L203.385 2.75C203.295 3.005 203.16 3.485 203.1 3.755C202.815 5.12 202.38 7.775 202.38 9.44C202.38 10.16 202.41 10.76 202.5 11.48C202.755 10.805 203.085 9.935 203.325 9.35L203.97 9.83C203.595 10.88 203.055 12.455 202.92 13.16C202.875 13.37 202.845 13.655 202.845 13.82L202.89 14.345L201.81 14.42C201.51 13.37 201.27 11.66 201.27 9.65C201.27 7.46 201.75 4.91 201.93 3.695C201.975 3.35 202.035 2.96 202.035 2.645ZM205.695 9.845L206.775 9.95C206.64 10.49 206.58 10.91 206.58 11.315C206.58 11.99 207.03 12.65 209.07 12.65C210.405 12.65 211.545 12.53 212.745 12.26L212.76 13.52C211.845 13.7 210.6 13.82 209.055 13.82C206.565 13.82 205.455 12.995 205.455 11.6C205.455 11.06 205.56 10.475 205.695 9.845ZM206.205 5.12L206.19 3.89C207.81 4.16 210.81 4.1 212.295 3.89V5.12C210.705 5.285 207.825 5.285 206.205 5.12ZM232.305 7.895L233.64 7.625C234.66 8.75 235.17 9.785 235.17 11.06C235.17 13.265 233.175 14.615 230.25 14.615C228.225 14.615 226.59 13.73 226.59 11.3C226.59 10.895 226.635 10.295 226.71 9.59C225.6 9.5 224.52 9.335 223.62 9.05L223.68 7.91C224.655 8.255 225.765 8.435 226.815 8.51C226.92 7.64 227.04 6.71 227.145 5.84C226.08 5.75 224.91 5.57 223.98 5.33L224.04 4.22C224.97 4.52 226.17 4.7 227.28 4.76C227.355 4.16 227.415 3.62 227.445 3.215C227.475 2.87 227.49 2.54 227.46 2.18L228.81 2.255C228.705 2.66 228.66 2.96 228.615 3.29C228.57 3.665 228.495 4.19 228.42 4.805C229.545 4.805 230.55 4.745 231.42 4.625L231.39 5.75C230.445 5.84 229.56 5.9 228.375 5.9H228.27C228.15 6.77 228.045 7.7 227.94 8.555H228.225C229.23 8.555 230.28 8.51 231.315 8.375L231.285 9.515C230.295 9.62 229.38 9.65 228.375 9.65C228.195 9.65 228.015 9.65 227.835 9.65C227.775 10.235 227.745 10.76 227.745 11.12C227.745 12.53 228.555 13.43 230.25 13.43C232.5 13.43 233.94 12.47 233.94 10.925C233.94 9.92 233.4 8.81 232.305 7.895ZM249.611 13.97L248.591 14.84C247.631 13.64 246.341 12.365 245.276 11.495L246.251 10.64C247.331 11.51 248.681 12.875 249.611 13.97Z" fill="black"/>
<path d="M77.0618 80.98L78.2168 81.085C78.0368 81.55 77.8718 82.21 77.8718 82.6C77.8718 83.74 78.7718 84.46 80.8868 84.46C82.0868 84.46 83.4968 84.355 84.5468 84.115L84.5168 85.33C83.5868 85.495 82.1468 85.615 80.9318 85.615C78.2768 85.615 76.7168 84.7 76.7168 82.84C76.7168 82.21 76.8968 81.52 77.0618 80.98ZM86.5268 76.915L86.7518 77.995C86.0918 78.22 85.2368 78.43 84.2318 78.625C84.6668 79.57 85.1468 80.575 85.5668 81.355L84.9818 82.09C84.2318 81.955 83.0318 81.79 82.0868 81.67L82.1918 80.755C82.9118 80.845 83.6168 80.92 84.0818 80.965C83.7968 80.38 83.4518 79.6 83.1068 78.82C81.1868 79.075 78.7568 79.105 76.4618 78.955L76.4168 77.86C78.6818 78.07 80.8868 78.055 82.6568 77.83L82.1318 76.615C82.0118 76.36 81.9068 76.09 81.8018 75.85C80.3018 75.985 78.4268 75.985 76.5818 75.82L76.5068 74.725C78.2768 74.92 79.9418 74.95 81.3668 74.845C81.2918 74.68 81.2318 74.53 81.1718 74.395C80.9468 73.93 80.8118 73.66 80.6168 73.345L81.9668 73.06C82.1018 73.57 82.2968 74.14 82.5218 74.71C83.5568 74.545 84.6068 74.32 85.4768 74.005L85.6868 75.07C84.9218 75.31 83.9468 75.535 82.9268 75.7L83.1968 76.315C83.3168 76.63 83.5268 77.095 83.7818 77.65C84.9518 77.44 85.8518 77.17 86.5268 76.915ZM98.5562 78.985C98.9912 78.91 99.4862 78.775 99.9362 78.625C101.001 78.295 103.431 77.41 105.186 77.41C107.286 77.41 108.816 78.67 108.816 80.695C108.816 83.56 106.056 85.03 102.051 85.27L101.571 84.115C104.781 84.01 107.601 83.11 107.601 80.68C107.601 79.42 106.611 78.505 105.096 78.505C103.251 78.505 100.011 79.855 99.0512 80.23L98.5562 78.985ZM130.116 74.98L130.761 76.075C130.431 76.285 130.056 76.48 129.621 76.705C128.631 77.215 126.561 78.19 125.106 79.15C123.726 80.05 122.901 81.025 122.901 82.15C122.901 83.38 124.071 84.145 126.411 84.145C128.031 84.145 130.011 83.935 131.166 83.635V84.985C130.041 85.18 128.331 85.345 126.471 85.345C123.681 85.345 121.656 84.505 121.656 82.285C121.656 80.755 122.631 79.54 124.221 78.43C123.531 77.215 122.751 75.475 122.061 73.855L123.246 73.375C123.846 74.995 124.596 76.6 125.241 77.77C126.636 76.93 128.241 76.15 129.051 75.685C129.486 75.445 129.801 75.25 130.116 74.98ZM146.331 74.14L145.686 75.04C145.131 74.515 143.991 73.81 143.061 73.39L143.676 72.565C144.606 72.97 145.761 73.615 146.331 74.14ZM145.596 78.04L144.966 78.97C144.411 78.475 143.256 77.815 142.311 77.41L142.941 76.585C143.856 76.93 145.026 77.56 145.596 78.04ZM143.706 85.945L142.731 85.255C143.466 84.1 144.501 82.135 145.281 80.41L146.136 81.085C145.431 82.675 144.486 84.55 143.706 85.945ZM150.666 78.55L149.931 79.315C149.676 78.985 149.121 78.415 148.656 77.965C148.296 78.835 147.666 79.675 146.616 80.35C146.466 80.125 146.136 79.795 145.926 79.615C147.246 78.865 147.786 77.8 147.996 76.765H146.166V75.85H148.131C148.146 75.595 148.146 75.355 148.146 75.13V74.74H146.421V73.825H148.146V72.46H149.166V73.825H150.621V74.74H149.166V75.13C149.166 75.355 149.166 75.595 149.136 75.85H150.681V76.765H149.016C149.001 76.885 148.971 77.005 148.941 77.125C149.421 77.485 150.396 78.295 150.666 78.55ZM153.726 81.145H148.311V82.39H153.726V81.145ZM148.311 84.535H153.726V83.23H148.311V84.535ZM147.261 86.11V80.23H154.806V86.095H153.726V85.45H148.311V86.11H147.261ZM155.886 76.78H153.996C154.431 77.845 155.181 78.775 156.171 79.24C155.931 79.42 155.601 79.78 155.451 80.05C154.551 79.54 153.846 78.625 153.366 77.56C153.006 78.475 152.346 79.345 151.206 80.035C151.056 79.81 150.756 79.45 150.531 79.285C151.776 78.625 152.346 77.695 152.586 76.78H151.101V75.865H152.751C152.781 75.595 152.781 75.325 152.781 75.085V74.74H151.101V73.825H152.781V72.49H153.801V73.825H155.676V74.74H153.801V75.085C153.801 75.34 153.786 75.595 153.771 75.865H155.886V76.78ZM172.806 73.72C172.671 73.885 172.491 74.155 172.326 74.44C171.666 75.46 170.226 78.085 169.461 79.525C170.181 78.88 170.931 78.625 171.636 78.625C172.626 78.625 173.346 79.27 173.391 80.44C173.421 81.325 173.391 82.465 173.451 83.185C173.496 83.92 173.991 84.235 174.636 84.235C176.286 84.235 177.261 82.195 177.651 80.62L178.641 81.415C177.861 83.815 176.601 85.48 174.441 85.48C172.866 85.48 172.341 84.46 172.296 83.59C172.236 82.72 172.266 81.565 172.221 80.77C172.191 80.11 171.816 79.735 171.141 79.735C169.941 79.735 168.846 80.935 168.261 82.105C167.811 82.99 167.181 84.745 166.986 85.48L165.681 85.045C166.776 82.045 170.121 75.76 170.931 74.335C171.096 73.975 171.291 73.615 171.471 73.18L172.806 73.72ZM197.529 77.215C197.874 77.71 198.444 78.64 198.759 79.3L197.994 79.66C197.649 78.94 197.214 78.16 196.764 77.545L197.529 77.215ZM199.164 76.585C199.524 77.08 200.109 77.995 200.469 78.655L199.689 79.015C199.329 78.295 198.894 77.56 198.414 76.93L199.164 76.585ZM187.794 75.13C188.364 75.115 188.829 75.085 189.114 75.055C190.089 74.965 192.894 74.695 195.624 74.455C197.244 74.32 198.639 74.245 199.629 74.2V75.4C198.774 75.4 197.484 75.415 196.719 75.64C194.604 76.315 193.329 78.58 193.329 80.335C193.329 83.23 196.029 84.145 198.444 84.235L198.009 85.495C195.264 85.375 192.129 83.905 192.129 80.59C192.129 78.28 193.524 76.39 194.889 75.58C193.584 75.73 189.534 76.12 187.929 76.45L187.794 75.13ZM216.834 84.505C217.254 84.505 217.659 84.475 218.019 84.415C217.884 83.245 217.179 82.435 216.054 82.435C215.379 82.435 214.869 82.84 214.869 83.35C214.869 84.085 215.724 84.505 216.834 84.505ZM219.894 73.72L220.584 74.59C220.314 74.77 219.984 74.995 219.759 75.16C219.024 75.715 217.029 77.47 215.889 78.43C216.564 78.205 217.239 78.115 217.899 78.115C220.374 78.115 222.159 79.615 222.159 81.625C222.159 84.025 220.164 85.585 217.029 85.585C215.004 85.585 213.759 84.685 213.759 83.455C213.759 82.435 214.674 81.505 216.054 81.505C217.914 81.505 218.919 82.75 219.114 84.13C220.284 83.68 220.959 82.825 220.959 81.61C220.959 80.155 219.489 79.09 217.614 79.09C215.169 79.09 213.819 80.125 211.929 82.045L211.059 81.16C212.289 80.14 214.194 78.55 215.064 77.83C215.889 77.14 217.734 75.58 218.469 74.92C217.689 74.95 214.764 75.085 213.999 75.13C213.654 75.145 213.309 75.16 212.994 75.22L212.964 73.975C213.294 74.02 213.714 74.02 214.014 74.02C214.779 74.02 218.304 73.915 219.084 73.84C219.519 73.795 219.729 73.765 219.894 73.72ZM235.059 81.34C236.334 81.34 237.354 82.36 237.354 83.62C237.354 84.88 236.334 85.915 235.059 85.915C233.814 85.915 232.779 84.88 232.779 83.62C232.779 82.36 233.814 81.34 235.059 81.34ZM235.059 85.15C235.914 85.15 236.574 84.475 236.574 83.62C236.574 82.795 235.914 82.105 235.059 82.105C234.234 82.105 233.544 82.795 233.544 83.62C233.544 84.475 234.234 85.15 235.059 85.15Z" fill="black"/>
<mask id="path-4-outside-1_473_8874" maskUnits="userSpaceOnUse" x="-2.3731" y="30.9284" width="327.891" height="23.2659" fill="black">
<rect fill="white" x="-2.3731" y="30.9284" width="327.891" height="23.2659"/>
<path d="M9.73359 37.342C9.80316 35.5506 9.75492 34.2244 9.54087 33.3636C10.6739 33.1542 11.7294 33.0611 12.6654 33.0611C13.1454 33.0611 13.284 33.1775 13.2015 33.5032C13.178 33.5962 13.1603 33.666 13.0294 33.8987C12.97 34.0383 12.9048 34.2012 12.8636 34.364C12.7517 34.8061 12.7054 35.1783 12.5874 36.8767C15.1595 36.4812 17.2277 36.0857 18.3123 35.7832C18.4979 35.7134 18.5459 35.7134 18.6899 35.7134C18.8579 35.7134 18.8946 35.853 18.8787 36.2951C18.8627 36.7371 18.7543 37.9237 18.7072 38.1098C18.6306 38.4123 18.5287 38.4355 17.5692 38.5286C16.6875 38.5984 16.1898 38.6682 12.4367 39.2731C12.3263 41.3205 12.3263 41.3205 12.2655 42.414C12.817 42.3209 12.817 42.321 13.3686 42.2279C15.8746 41.8091 17.595 41.4601 18.7814 41.1344C19.1949 41.0181 19.4526 40.9483 19.5246 40.9483C19.7166 40.9483 19.765 41.0413 19.7781 41.274C19.8169 41.8789 19.7683 43.0189 19.68 43.3679C19.6269 43.5773 19.573 43.6006 18.8236 43.7169C18.4219 43.7867 18.4219 43.7867 17.5946 43.9263C16.2456 44.1357 16.2456 44.1357 12.1627 44.8104C12.0504 47.7186 12.0504 47.7186 12.0603 51.0922C12.0612 51.2783 12.0498 51.4179 12.0381 51.4644C11.9792 51.6971 11.8655 51.7669 11.4221 51.9065C10.6912 52.1392 9.37844 52.3951 9.04244 52.3951C8.80244 52.3951 8.77211 52.3253 8.81203 51.8832C8.92677 50.7665 9.06703 48.6958 9.30893 45.2757C4.18909 46.1598 3.78153 46.2529 2.29572 46.7182C1.96016 46.8113 1.85827 46.8345 1.73827 46.8345C1.54627 46.8345 1.44983 46.7415 1.39463 46.4855C1.25389 45.9039 1.20238 45.1594 1.20302 44.0194C2.4628 43.9728 3.82992 43.7867 9.45376 42.9026C9.51919 41.5066 9.58049 40.5062 9.61276 39.7152C5.05627 40.4597 5.05627 40.4597 3.74391 40.8087C3.53424 40.8785 3.48624 40.8785 3.43824 40.8785C3.05424 40.8785 3.05424 40.8785 3.04154 38.1796C4.37332 38.1331 4.37332 38.1331 9.73359 37.342Z"/>
<path d="M46.1575 36.9C46.2036 37.7608 46.3018 38.2262 46.6253 39.4127C46.6864 39.6454 46.6932 39.8082 46.6579 39.9478C46.599 40.1805 46.4617 40.3433 46.0437 40.7621C44.2996 42.4373 42.5419 43.7867 39.9995 45.392C37.14 47.2068 34.7937 48.4166 31.578 49.7428C29.5179 50.5803 29.4101 50.6269 29.0573 50.8828C28.8182 51.0689 28.7104 51.1155 28.5664 51.1155C28.3504 51.1155 28.2055 50.9293 27.9751 50.4175C27.6718 49.7195 27.4574 48.7656 27.3995 47.9513C29.959 47.4162 33.1811 46.1598 36.425 44.4381C40.6924 42.1814 43.5859 39.9478 46.1575 36.9ZM30.1862 37.0396C30.2392 36.8302 30.8601 36.1788 31.6309 35.504C32.1509 35.062 32.3483 34.9457 32.5643 34.9457C33.0144 34.9689 34.5317 36.0857 35.7252 37.249C36.4545 37.9702 36.666 38.2727 36.6071 38.5053C36.5658 38.6682 35.9748 39.2964 35.2397 39.9246C34.5645 40.5062 34.2475 40.7156 34.0555 40.7156C33.8875 40.7156 33.8875 40.7156 33.1332 39.8082C32.6565 39.2266 31.6559 38.2494 31.1261 37.8772C30.4216 37.342 30.4216 37.342 30.2772 37.249C30.1988 37.1792 30.1685 37.1094 30.1862 37.0396Z"/>
<path d="M69.6324 38.7845L63.5545 38.8078C61.3566 40.9483 57.8766 43.5075 57.1806 43.5075C56.9646 43.5075 56.8804 43.461 56.5005 43.0655C56.2171 42.763 55.6991 42.3442 55.0191 41.9022C56.9469 41.0181 59.0523 39.6221 60.7552 38.1098C62.5835 36.4812 63.7652 35.1318 65.1236 33.0844C66.2053 33.4566 66.7586 33.7358 67.4446 34.1546C67.7335 34.3407 67.8181 34.4803 67.7651 34.6897C67.7239 34.8526 67.6165 34.9922 67.3652 35.1318C67.0781 35.3179 66.7674 35.5971 65.9313 36.4347L69.5014 36.4579C70.7974 36.4579 71.0433 36.4347 71.8281 36.1788C71.93 36.1555 72.0079 36.1322 72.1039 36.1322C72.4879 36.1322 72.8075 36.4812 73.2856 37.342C73.6002 37.9004 73.6613 38.1331 73.5965 38.389C73.5317 38.6449 73.4303 38.7613 73.0118 39.087C72.7727 39.2731 72.3488 39.7152 72.0027 40.134C68.2621 44.6708 65.0416 47.5325 60.5305 50.2779C58.5682 51.4877 56.072 52.7208 55.616 52.7208C55.424 52.7208 55.2795 52.6277 55.1224 52.3951C54.8205 51.9763 54.2844 51.5342 53.4721 51.0457C57.3884 49.4171 60.2488 47.7884 63.2437 45.4386C65.3659 43.7867 66.9665 42.2046 68.5173 40.2503C68.8334 39.8548 69.054 39.5523 69.6324 38.7845ZM77.2002 35.3412C77.1042 35.3412 77.044 35.2946 76.9951 35.1085C76.6606 34.1546 76.2794 33.4799 75.7846 32.875C75.7121 32.7819 75.6999 32.7354 75.7117 32.6889C75.7411 32.5725 75.8906 32.4562 76.3693 32.177C76.7402 31.9444 76.896 31.8978 77.064 31.8978C77.3221 31.9211 77.7988 32.5027 78.3556 33.5264C78.5856 33.9452 78.7133 34.2942 78.6838 34.4105C78.6543 34.5269 78.5529 34.6432 78.2119 34.8526C77.7572 35.1318 77.3442 35.3412 77.2002 35.3412ZM76.0146 35.853C75.9734 36.0159 75.8778 36.109 75.6147 36.2951C74.9747 36.7371 74.6097 36.9465 74.4657 36.9465C74.3217 36.9465 74.3217 36.9465 74.0664 36.2486C73.8415 35.6204 73.4481 34.8991 73.0316 34.364C72.9591 34.2709 72.9469 34.2244 72.9646 34.1546C73.0117 33.9685 74.0887 33.317 74.3527 33.317C74.5447 33.317 74.7737 33.5497 75.2935 34.3407C75.7589 35.062 76.0558 35.6902 76.0146 35.853Z"/>
<path d="M104.192 36.1322C104.151 36.2951 104.055 36.3881 103.792 36.5743C103.152 37.0163 102.787 37.2257 102.643 37.2257C102.499 37.2257 102.499 37.2257 102.244 36.5277C102.019 35.8996 101.625 35.1783 101.209 34.6432C101.136 34.5501 101.124 34.5036 101.142 34.4338C101.189 34.2477 102.266 33.5962 102.53 33.5962C102.722 33.5962 102.951 33.8289 103.471 34.6199C103.936 35.3412 104.233 35.9694 104.192 36.1322ZM105.377 35.6204C105.281 35.6204 105.221 35.5738 105.172 35.3877C104.838 34.4338 104.457 33.7591 103.956 33.1775C103.884 33.0844 103.871 33.0379 103.883 32.9913C103.913 32.875 104.062 32.7587 104.541 32.4795C104.912 32.2468 105.067 32.2003 105.235 32.2003C105.494 32.2235 105.97 32.8052 106.533 33.8056C106.763 34.2244 106.891 34.5734 106.861 34.6897C106.826 34.8293 106.73 34.9224 106.389 35.1318C105.935 35.411 105.521 35.6204 105.377 35.6204ZM91.6151 38.5053C90.1576 39.9013 88.4181 41.274 86.4861 42.5536C85.6248 43.112 85.1818 43.3447 84.9898 43.3447C84.7978 43.3447 84.7738 43.3447 84.4357 42.8793C84.1097 42.4605 83.6157 42.0418 83.0321 41.6928C85.983 40.1805 87.8606 38.8311 89.8611 36.8069C91.2166 35.4342 92.3023 34.0848 93.0102 32.8052C95.3186 33.7358 95.8479 34.015 95.7655 34.3407C95.7301 34.4803 95.6405 34.5501 95.3592 34.713C95.078 34.8759 94.66 35.2947 93.7704 36.2486C93.9864 36.2486 94.0104 36.2486 94.2024 36.2486C95.0366 36.2718 95.6366 36.2718 95.7806 36.2718C98.1086 36.2718 98.7203 36.2253 99.535 35.9461C99.7447 35.8763 99.8226 35.853 99.9666 35.853C100.303 35.853 100.574 36.109 101.1 36.9698C101.535 37.6212 101.632 37.9004 101.567 38.1564C101.514 38.3657 101.413 38.4821 101.084 38.738C100.845 38.9241 100.445 39.3662 99.9143 40.0409C96.651 44.0194 94.4173 46.2064 91.1045 48.5795C88.4913 50.464 84.5478 52.6743 83.8038 52.6743C83.5877 52.6743 83.4193 52.5812 83.2744 52.3951C82.7253 51.7204 82.2313 51.3016 81.606 51.0224C85.3126 49.4636 88.3165 47.7419 91.162 45.5084C91.0353 45.3455 91.0353 45.3455 90.6427 44.8104C90.2683 44.2986 89.8283 43.8565 88.8281 42.9724C88.7135 42.8561 88.6832 42.7863 88.7068 42.6932C88.7362 42.5769 89.1366 42.2279 90.1886 41.3903C90.6968 40.9948 90.8105 40.925 90.9545 40.925C91.3385 40.925 92.4717 42.0418 93.5524 43.461C95.4519 41.6462 96.9197 39.9246 97.8727 38.4355C95.125 38.4821 95.125 38.4821 91.6151 38.5053Z"/>
<path d="M113.979 47.9048C114.915 47.8117 115.845 47.7419 116.312 47.6954C119.227 47.4627 121.668 47.2068 123.143 46.9741C122.613 45.3688 122.073 44.0892 121.457 43.112C121.39 42.9957 121.366 42.9026 121.395 42.7863C121.448 42.5769 121.759 42.3907 122.831 41.8556C123.322 41.623 123.502 41.5764 123.742 41.5764C123.934 41.5764 124.042 41.623 124.15 41.7626C125.086 42.9957 126.02 45.0896 126.643 47.3697C126.973 48.626 127.189 49.9522 127.112 50.2546C127.059 50.464 126.766 50.6734 126.144 50.9526C125.335 51.3016 124.575 51.5575 124.335 51.5575C124.119 51.5575 124.01 51.4179 123.972 51.0922C123.946 50.5338 123.829 49.8591 123.693 49.1611C121.589 49.5101 120.042 49.7428 119.023 49.8824C115.569 50.3477 114.651 50.464 110.375 50.8595C109.536 50.9526 109.11 51.0224 108.529 51.2318C108.427 51.2551 108.349 51.2783 108.253 51.2783C108.061 51.2783 107.941 51.1853 107.88 50.9526C107.672 50.2546 107.644 49.4171 107.771 48.2538C108.365 48.277 108.365 48.277 108.413 48.277C108.917 48.277 108.917 48.277 110.747 48.1607C111.009 47.7884 111.009 47.7884 111.527 47.0672C113.477 44.3916 116.352 39.5756 118.088 36.1322C118.647 35.062 118.89 34.4803 119.133 33.7126C120.237 33.8987 121.138 34.1314 121.866 34.3873C122.328 34.5501 122.509 34.6897 122.456 34.8991C122.427 35.0155 122.361 35.0853 122.02 35.3877C121.859 35.5506 121.466 36.0624 121.221 36.4579C121.072 36.6673 120.644 37.4118 118.983 40.2736C117.733 42.3675 115.458 45.8574 113.979 47.9048Z"/>
<path d="M150.478 45.5549C149.064 44.6941 147.592 44.159 145.772 43.8565C144.514 45.4153 143.141 46.9509 141.935 48.2072C140.603 49.5799 139.298 50.2779 138.122 50.2779C136.394 50.2779 135.566 48.9052 136.084 46.8578C136.532 45.0896 137.827 43.5773 139.778 42.6001C141.065 41.972 142.881 41.5299 144.249 41.5299C144.273 41.5299 144.369 41.5299 144.489 41.5299C146.326 39.1103 146.803 38.4588 148.078 36.6441C145.847 36.7371 144.456 36.9233 143.389 37.249C143.335 37.2722 143.263 37.2723 143.215 37.2723C142.807 37.2723 142.73 36.0624 143.051 34.3175C143.556 34.4105 144.048 34.4571 144.696 34.4571C145.512 34.4571 146.922 34.3873 148.421 34.2477C149.818 34.1314 149.818 34.1314 150.178 33.9452C150.393 33.8522 150.525 33.8056 150.645 33.8056C150.957 33.8056 151.343 34.1779 151.712 34.8061C151.972 35.2946 152.112 35.6902 152.071 35.853C152.023 36.0392 151.886 36.202 151.528 36.4812C151.073 36.8535 149.463 38.8543 147.352 41.6928C149.52 42.1348 150.319 42.3907 151.799 43.0887C152.125 42.2744 152.462 41.3205 152.627 40.6691C152.704 40.3666 152.768 40.0176 152.82 39.6221C153.817 39.7617 154.64 39.9246 155.295 40.0874C155.697 40.2038 155.812 40.3201 155.764 40.5062C155.723 40.6691 155.634 40.8319 155.419 41.1111C155.091 41.5532 154.943 41.8556 154.533 42.8095C154.338 43.2981 154.183 43.6238 153.868 44.2986C154.904 45.0431 155.777 45.7643 156.145 46.2064C156.236 46.3227 156.278 46.439 156.249 46.5553C156.084 47.2068 154.669 48.7191 154.237 48.7191C154.117 48.7191 154.015 48.6493 153.858 48.5097C153.352 47.9513 152.724 47.2999 152.333 46.9509C151.093 48.626 149.982 49.6962 148.385 50.7897C147.027 51.6971 145.255 52.5347 144.679 52.5347C144.487 52.5347 144.295 52.4416 144.162 52.302C144.108 52.2322 144.114 52.209 143.908 51.7902C143.683 51.2551 143.436 50.9991 142.925 50.7432C145.01 50.0918 146.063 49.6264 147.313 48.7656C148.569 47.8815 149.632 46.8113 150.478 45.5549ZM142.856 43.903C140.518 44.1357 138.968 45.1361 138.585 46.6484C138.444 47.2068 138.572 47.5558 138.956 47.5558C139.484 47.5558 140.708 46.4157 142.856 43.903Z"/>
<path d="M170.184 39.5756C169.093 39.7152 168.331 39.785 166.838 39.9013C166.79 39.9013 166.742 39.9013 166.694 39.9013C166.568 39.9246 166.472 39.9246 166.424 39.9246C166.208 39.9246 166.111 39.8315 166.116 39.529C166.119 38.9474 166.206 38.2262 166.382 37.342C166.712 37.3653 166.976 37.3653 167.144 37.3653C168.44 37.3653 169.975 37.2723 171.288 37.1094C171.917 35.5738 172.338 34.3873 172.579 33.4334C172.609 33.317 172.656 33.1309 172.715 32.8983C175.41 33.2473 175.897 33.4101 175.767 33.8289C175.738 33.9452 175.672 34.015 175.523 34.2244C175.099 34.7595 175.058 34.8293 174.208 36.6673C175.186 36.5045 176.462 36.202 176.983 36.0392C177.091 35.9926 177.115 35.9926 177.187 35.9926C177.403 35.9926 177.428 36.0857 177.414 36.9C177.392 37.3653 177.323 38.0168 177.276 38.2029C177.234 38.3657 177.139 38.4588 176.911 38.5053C176.444 38.6449 176.444 38.6449 173.014 39.2033C170.715 43.9263 168.679 47.4162 165.771 51.604C165.574 51.9065 165.425 52.0228 165.281 52.0228C164.969 52.0228 164.211 51.6971 163.507 51.2551C163.152 51.0457 163.062 50.9293 163.091 50.813C163.115 50.7199 163.228 50.5571 163.407 50.3244C166.079 46.9741 168.3 43.4144 170.184 39.5756ZM174.149 46.9509C174.165 47.928 174.347 48.3468 174.847 48.7423C175.431 49.1844 176.386 49.3938 177.802 49.3938C179.362 49.3938 180.742 49.2542 181.569 49.0215C181.772 48.975 181.826 48.9517 181.922 48.9517C182.138 48.9517 182.217 49.0215 182.236 49.2309C182.28 49.7195 182.158 50.6734 181.976 51.3947C181.899 51.6971 181.774 51.8134 181.444 51.8832C180.611 52.0461 179.243 52.1392 177.827 52.1392C174.827 52.1392 173.265 51.6738 172.444 50.5571C172.142 50.1383 171.941 49.6032 171.897 49.0215C171.835 48.6958 171.839 48.3003 171.875 48.1607C171.975 47.7652 172.801 47.3464 174.149 46.9509ZM183.491 41.9952C183.443 41.9952 183.371 41.9952 183.305 41.972C182.843 41.9022 181.847 41.8556 181.007 41.8556C179.231 41.8556 178.469 41.9254 176.269 42.2744C176.215 42.2977 176.143 42.2977 176.095 42.2977C175.951 42.2977 175.891 42.2512 175.878 42.1116C175.847 41.9487 176.04 40.8087 176.164 40.3201C176.24 40.0176 176.324 39.878 176.533 39.8082C176.641 39.7617 176.791 39.7384 177.318 39.6454C179.021 39.3662 180.419 39.2499 182.099 39.2499C183.491 39.2499 184.199 39.2964 184.337 39.4127C184.434 39.5058 184.411 39.6919 184.216 40.4597C184.045 41.1344 183.844 41.7393 183.761 41.8789C183.719 41.9487 183.611 41.9952 183.491 41.9952Z"/>
<path d="M194.011 39.785L194.63 37.342C194.8 36.6673 195.006 35.76 195.088 35.2481C196.162 35.3644 196.937 35.5273 197.526 35.76C198.049 35.9694 198.206 36.109 198.141 36.3649C198.106 36.5045 198.106 36.5045 197.951 36.7371C197.438 37.5282 197.119 38.4123 196.583 40.5295C195.829 43.5075 195.549 45.3688 195.67 46.788C195.753 47.8815 196.146 48.5097 196.794 48.5097C197.778 48.5097 198.877 47.3929 200.419 44.8104C200.574 45.997 200.654 46.346 201.114 47.1835C201.193 47.3464 201.223 47.5092 201.182 47.6721C201.088 48.0444 200.528 48.8354 199.877 49.5101C198.605 50.8363 197.223 51.5575 195.951 51.5575C194.102 51.5575 193.076 50.115 192.936 47.2533C192.855 45.392 193.186 43.0422 194.011 39.785ZM206.439 38.8543C207.629 38.1331 208.527 37.7143 208.815 37.7143C208.959 37.7143 209.062 37.7841 209.212 37.947C210.13 39.0637 210.906 40.925 211.239 42.7397C211.455 43.9728 211.541 45.6247 211.417 46.1133C211.358 46.346 211.209 46.4623 210.64 46.7182C210.017 46.9974 208.795 47.3697 208.507 47.3697C208.291 47.3697 208.224 47.2533 208.258 46.8345C208.4 45.0431 208.298 43.7402 207.937 42.2279C207.606 40.8785 207.576 40.8087 206.439 38.8543Z"/>
<path d="M225.85 39.1568C224.896 39.2266 224.819 39.2499 223.697 39.3197C223.259 39.3429 222.989 39.3662 222.695 39.3894C222.473 39.4127 222.449 39.4127 222.425 39.4127C222.233 39.4127 222.155 39.3429 222.142 39.1103C222.116 38.738 222.26 37.5049 222.413 36.8069C222.671 36.8302 223.361 36.8535 224.225 36.8535C224.489 36.8535 226.415 36.7371 227.272 36.6673C228.158 34.7828 228.549 33.8056 228.867 32.5493C231.257 32.875 232.074 33.1542 231.962 33.5962C231.921 33.7591 231.885 33.8056 231.389 34.3407C231.127 34.6199 230.99 34.8759 230.217 36.3183C231.392 36.1322 232.105 35.9694 233.064 35.6902C233.244 35.6436 233.321 35.6204 233.441 35.6204C233.609 35.6204 233.628 35.7367 233.601 36.4114C233.574 36.9931 233.522 37.4816 233.457 37.7376C233.387 38.0168 233.303 38.0633 232.644 38.2029C231.781 38.389 230.33 38.6217 228.794 38.8078C227.247 41.4136 226.293 42.8095 224.636 44.9965C223.383 46.6251 222.685 47.486 221.79 48.4631C221.527 48.7423 221.384 48.8354 221.216 48.8354C220.976 48.8354 220.392 48.4864 219.705 47.8815C219.386 47.6256 219.319 47.5092 219.361 47.3464C219.402 47.1835 219.533 47.0439 219.951 46.6251C220.859 45.7876 222.137 44.3451 223.317 42.8095C224.313 41.5299 224.689 40.9948 225.85 39.1568ZM241.32 39.5756C241.273 39.7617 240.712 40.4597 240.061 41.1344C239.673 41.5299 239.5 41.6462 239.332 41.6462C239.212 41.6462 239.128 41.5997 239.001 41.4368C238.542 40.8785 237.855 40.2736 237.103 39.7384C236.615 39.3894 236.615 39.3894 235.677 38.9241C235.376 38.7845 235.28 38.6915 235.327 38.5053C235.368 38.3425 235.541 38.1331 236.037 37.598C236.819 36.7837 236.998 36.6441 237.214 36.6441C237.67 36.6441 239.222 37.5282 240.282 38.3657C241.144 39.0405 241.385 39.3196 241.32 39.5756ZM233.47 49.2542C232.922 51.4179 230.96 52.7208 228.2 52.7208C225.584 52.7208 224.161 51.3249 224.686 49.2542C225.228 47.1137 227.482 45.5084 229.954 45.5084C230.53 45.5084 230.788 45.5316 231.737 45.6712C231.924 44.5545 232.035 44.1124 232.487 41.9487C232.599 41.5066 232.704 40.9017 232.845 40.1572C234.039 40.2736 234.94 40.4131 235.349 40.5993C235.523 40.6691 235.59 40.7854 235.543 40.9715C235.513 41.0879 235.466 41.1809 235.4 41.3438C235.157 41.8324 235.044 42.1814 234.885 42.8095C234.667 43.6704 234.368 45.1361 234.152 46.2762C235.667 47.0207 236.269 47.3929 237.239 48.3003C237.667 48.6958 237.806 48.9052 237.759 49.0913C237.7 49.324 237.527 49.5334 236.59 50.5803C236.184 51.0457 235.915 51.2551 235.747 51.2551C235.603 51.2551 235.603 51.2551 235.084 50.6501C234.686 50.1383 234.186 49.7428 233.47 49.2542ZM231.094 48.1142C230.673 47.8815 230.061 47.7419 229.413 47.7419C228.261 47.7419 227.333 48.277 227.127 49.0913C226.932 49.8591 227.529 50.3477 228.609 50.3477C229.881 50.3477 230.712 49.7195 231.024 48.4864C231.071 48.3003 231.118 48.1142 231.094 48.1142Z"/>
<path d="M254.27 42.5536L253.61 45.1594C253.245 46.6019 252.357 50.3942 252.128 51.4877C252.116 51.5342 252.105 51.5808 252.099 51.604C252.046 51.8134 251.956 51.9763 251.819 52.0461C251.615 52.1857 250.626 52.302 249.738 52.302C248.97 52.302 248.844 52.2322 248.961 51.7669C248.967 51.7436 248.973 51.7204 248.985 51.6738C249.186 51.0689 250.961 44.3451 251.656 41.5997C253.01 36.2486 253.351 34.713 253.471 33.3868C255.175 33.4799 255.92 33.573 256.581 33.7126C256.809 33.7591 256.899 33.8754 256.852 34.0616C256.817 34.2012 256.817 34.2012 256.621 34.5967C256.454 34.8759 256.329 35.1783 256.205 35.5738C256.193 35.6204 255.792 37.0163 255.025 39.7617C256.611 40.227 256.611 40.227 257.507 40.576C259.701 41.3903 260.921 41.972 262.775 43.0887C262.937 43.2051 263.004 43.3214 262.963 43.4842C262.904 43.7169 262.189 44.8337 261.628 45.5316C261.336 45.9272 261.187 46.0435 261.043 46.0435C260.947 46.0435 260.838 45.997 260.7 45.8806C258.731 44.3684 256.547 43.2283 254.27 42.5536ZM261.611 38.1098C261.515 38.1098 261.455 38.0633 261.418 37.9237C261.15 37.0861 260.751 36.2951 260.213 35.5738C260.129 35.4342 260.105 35.4342 260.122 35.3644C260.158 35.2249 260.313 35.0853 260.846 34.7828C261.246 34.5269 261.462 34.4338 261.582 34.4338C261.798 34.4338 261.967 34.6199 262.408 35.2481C262.988 36.0857 263.357 36.8069 263.304 37.0163C263.239 37.2723 261.947 38.1098 261.611 38.1098ZM266.111 35.504C266.076 35.6436 265.866 35.8065 265.22 36.1788C264.855 36.3881 264.61 36.5045 264.49 36.5045C264.418 36.5045 264.381 36.4579 264.303 36.2951C263.962 35.3644 263.587 34.6665 263.08 34.015C263.026 33.9452 262.995 33.8754 263.007 33.8289C263.054 33.6428 264.179 32.9913 264.467 32.9913C264.587 32.9913 264.713 33.0611 264.9 33.2705C265.474 33.9452 266.182 35.2249 266.111 35.504Z"/>
<path d="M287.955 41.5532C278.83 41.6695 277.132 41.7393 275.352 42.0418C275.304 42.0418 275.178 42.065 275.154 42.065C274.626 42.065 274.61 41.274 275.049 38.8776C276.178 39.0637 277.816 39.1335 282.28 39.1335C287.08 39.1335 288.376 39.1335 288.844 39.087C289.21 39.0637 289.288 39.0405 289.803 38.9009C289.989 38.8311 290.138 38.8078 290.283 38.8078C290.643 38.8078 290.889 38.9707 291.173 39.3662C291.639 40.0874 291.906 40.7389 291.835 41.0181C291.77 41.274 291.603 41.4601 291.238 41.7626C291.005 41.9254 290.832 42.1348 290.123 43.1353C287.649 46.5553 285.319 48.6493 282.045 50.3942C280.543 51.2085 278.219 52.1392 277.739 52.1392C277.403 52.1392 277.247 51.9996 276.956 51.5342C276.515 50.813 276.292 50.5571 275.702 50.2314C278.639 49.4403 281.47 48.1142 283.665 46.4623C285.327 45.2059 286.747 43.5773 287.955 41.5532ZM278.822 33.5497C280.335 33.7358 281.835 33.7824 285.291 33.7824C287.787 33.7824 287.787 33.7824 290.594 33.5962C290.69 33.5962 290.714 33.5962 290.882 33.5962C291.194 33.5962 291.255 33.8289 291.102 34.5269C291.032 34.8061 290.967 35.062 290.932 35.2946C290.92 35.3412 290.908 35.3877 290.908 35.3877C290.696 36.2253 290.541 36.4579 290.229 36.4579C290.133 36.4579 289.947 36.4347 289.731 36.4347C289.287 36.3881 287.499 36.3416 286.755 36.3416C283.155 36.3416 280.575 36.3881 279.13 36.5045C279.058 36.5045 278.986 36.5045 278.938 36.5045C278.314 36.5045 278.306 36.1555 278.822 33.5497Z"/>
<path d="M310.548 44.5545C313.532 42.5303 315.725 40.6923 317.989 38.389C309.607 38.5053 309.607 38.5053 306.794 38.6217C304.784 38.6915 304.784 38.6915 304.005 38.8311C303.885 38.8311 303.759 38.8543 303.711 38.8543C303.423 38.8543 303.29 38.7147 303.247 38.4123C303.172 37.7608 303.246 36.9 303.492 35.7367C305.101 35.9228 307.597 36.0159 310.645 36.0159C314.053 36.0159 317.185 35.9694 318.547 35.8996C319.159 35.853 319.41 35.8065 319.854 35.6669C320.087 35.5971 320.213 35.5738 320.381 35.5738C320.861 35.5738 321.241 35.9694 321.774 37.0861C322.071 37.7143 322.181 38.1331 322.117 38.389C322.052 38.6449 321.992 38.6915 321.513 38.9707C321.094 39.2033 320.849 39.4127 319.822 40.3433C317.008 42.9259 315.328 44.252 312.02 46.4157C313.107 47.8117 313.845 49.0681 313.774 49.3473C313.709 49.6032 313.309 49.9522 312.418 50.5338C311.784 50.9526 311.317 51.1853 311.149 51.1853C311.005 51.1853 310.902 51.1155 310.787 50.9061C309.788 48.975 309.45 48.4166 308.49 47.1835C307.337 45.6712 307.277 45.6247 305.107 43.5773C305.005 43.5075 304.986 43.3912 305.016 43.2749C305.063 43.0887 305.588 42.6234 306.39 42.0185C306.85 41.716 307.078 41.5764 307.222 41.5764C307.318 41.5764 307.408 41.5997 307.528 41.6928C308.395 42.2512 309.474 43.2981 310.548 44.5545Z"/>
</mask>
<path d="M9.73359 37.342C9.80316 35.5506 9.75492 34.2244 9.54087 33.3636C10.6739 33.1542 11.7294 33.0611 12.6654 33.0611C13.1454 33.0611 13.284 33.1775 13.2015 33.5032C13.178 33.5962 13.1603 33.666 13.0294 33.8987C12.97 34.0383 12.9048 34.2012 12.8636 34.364C12.7517 34.8061 12.7054 35.1783 12.5874 36.8767C15.1595 36.4812 17.2277 36.0857 18.3123 35.7832C18.4979 35.7134 18.5459 35.7134 18.6899 35.7134C18.8579 35.7134 18.8946 35.853 18.8787 36.2951C18.8627 36.7371 18.7543 37.9237 18.7072 38.1098C18.6306 38.4123 18.5287 38.4355 17.5692 38.5286C16.6875 38.5984 16.1898 38.6682 12.4367 39.2731C12.3263 41.3205 12.3263 41.3205 12.2655 42.414C12.817 42.3209 12.817 42.321 13.3686 42.2279C15.8746 41.8091 17.595 41.4601 18.7814 41.1344C19.1949 41.0181 19.4526 40.9483 19.5246 40.9483C19.7166 40.9483 19.765 41.0413 19.7781 41.274C19.8169 41.8789 19.7683 43.0189 19.68 43.3679C19.6269 43.5773 19.573 43.6006 18.8236 43.7169C18.4219 43.7867 18.4219 43.7867 17.5946 43.9263C16.2456 44.1357 16.2456 44.1357 12.1627 44.8104C12.0504 47.7186 12.0504 47.7186 12.0603 51.0922C12.0612 51.2783 12.0498 51.4179 12.0381 51.4644C11.9792 51.6971 11.8655 51.7669 11.4221 51.9065C10.6912 52.1392 9.37844 52.3951 9.04244 52.3951C8.80244 52.3951 8.77211 52.3253 8.81203 51.8832C8.92677 50.7665 9.06703 48.6958 9.30893 45.2757C4.18909 46.1598 3.78153 46.2529 2.29572 46.7182C1.96016 46.8113 1.85827 46.8345 1.73827 46.8345C1.54627 46.8345 1.44983 46.7415 1.39463 46.4855C1.25389 45.9039 1.20238 45.1594 1.20302 44.0194C2.4628 43.9728 3.82992 43.7867 9.45376 42.9026C9.51919 41.5066 9.58049 40.5062 9.61276 39.7152C5.05627 40.4597 5.05627 40.4597 3.74391 40.8087C3.53424 40.8785 3.48624 40.8785 3.43824 40.8785C3.05424 40.8785 3.05424 40.8785 3.04154 38.1796C4.37332 38.1331 4.37332 38.1331 9.73359 37.342Z" fill="white"/>
<path d="M46.1575 36.9C46.2036 37.7608 46.3018 38.2262 46.6253 39.4127C46.6864 39.6454 46.6932 39.8082 46.6579 39.9478C46.599 40.1805 46.4617 40.3433 46.0437 40.7621C44.2996 42.4373 42.5419 43.7867 39.9995 45.392C37.14 47.2068 34.7937 48.4166 31.578 49.7428C29.5179 50.5803 29.4101 50.6269 29.0573 50.8828C28.8182 51.0689 28.7104 51.1155 28.5664 51.1155C28.3504 51.1155 28.2055 50.9293 27.9751 50.4175C27.6718 49.7195 27.4574 48.7656 27.3995 47.9513C29.959 47.4162 33.1811 46.1598 36.425 44.4381C40.6924 42.1814 43.5859 39.9478 46.1575 36.9ZM30.1862 37.0396C30.2392 36.8302 30.8601 36.1788 31.6309 35.504C32.1509 35.062 32.3483 34.9457 32.5643 34.9457C33.0144 34.9689 34.5317 36.0857 35.7252 37.249C36.4545 37.9702 36.666 38.2727 36.6071 38.5053C36.5658 38.6682 35.9748 39.2964 35.2397 39.9246C34.5645 40.5062 34.2475 40.7156 34.0555 40.7156C33.8875 40.7156 33.8875 40.7156 33.1332 39.8082C32.6565 39.2266 31.6559 38.2494 31.1261 37.8772C30.4216 37.342 30.4216 37.342 30.2772 37.249C30.1988 37.1792 30.1685 37.1094 30.1862 37.0396Z" fill="white"/>
<path d="M69.6324 38.7845L63.5545 38.8078C61.3566 40.9483 57.8766 43.5075 57.1806 43.5075C56.9646 43.5075 56.8804 43.461 56.5005 43.0655C56.2171 42.763 55.6991 42.3442 55.0191 41.9022C56.9469 41.0181 59.0523 39.6221 60.7552 38.1098C62.5835 36.4812 63.7652 35.1318 65.1236 33.0844C66.2053 33.4566 66.7586 33.7358 67.4446 34.1546C67.7335 34.3407 67.8181 34.4803 67.7651 34.6897C67.7239 34.8526 67.6165 34.9922 67.3652 35.1318C67.0781 35.3179 66.7674 35.5971 65.9313 36.4347L69.5014 36.4579C70.7974 36.4579 71.0433 36.4347 71.8281 36.1788C71.93 36.1555 72.0079 36.1322 72.1039 36.1322C72.4879 36.1322 72.8075 36.4812 73.2856 37.342C73.6002 37.9004 73.6613 38.1331 73.5965 38.389C73.5317 38.6449 73.4303 38.7613 73.0118 39.087C72.7727 39.2731 72.3488 39.7152 72.0027 40.134C68.2621 44.6708 65.0416 47.5325 60.5305 50.2779C58.5682 51.4877 56.072 52.7208 55.616 52.7208C55.424 52.7208 55.2795 52.6277 55.1224 52.3951C54.8205 51.9763 54.2844 51.5342 53.4721 51.0457C57.3884 49.4171 60.2488 47.7884 63.2437 45.4386C65.3659 43.7867 66.9665 42.2046 68.5173 40.2503C68.8334 39.8548 69.054 39.5523 69.6324 38.7845ZM77.2002 35.3412C77.1042 35.3412 77.044 35.2946 76.9951 35.1085C76.6606 34.1546 76.2794 33.4799 75.7846 32.875C75.7121 32.7819 75.6999 32.7354 75.7117 32.6889C75.7411 32.5725 75.8906 32.4562 76.3693 32.177C76.7402 31.9444 76.896 31.8978 77.064 31.8978C77.3221 31.9211 77.7988 32.5027 78.3556 33.5264C78.5856 33.9452 78.7133 34.2942 78.6838 34.4105C78.6543 34.5269 78.5529 34.6432 78.2119 34.8526C77.7572 35.1318 77.3442 35.3412 77.2002 35.3412ZM76.0146 35.853C75.9734 36.0159 75.8778 36.109 75.6147 36.2951C74.9747 36.7371 74.6097 36.9465 74.4657 36.9465C74.3217 36.9465 74.3217 36.9465 74.0664 36.2486C73.8415 35.6204 73.4481 34.8991 73.0316 34.364C72.9591 34.2709 72.9469 34.2244 72.9646 34.1546C73.0117 33.9685 74.0887 33.317 74.3527 33.317C74.5447 33.317 74.7737 33.5497 75.2935 34.3407C75.7589 35.062 76.0558 35.6902 76.0146 35.853Z" fill="white"/>
<path d="M104.192 36.1322C104.151 36.2951 104.055 36.3881 103.792 36.5743C103.152 37.0163 102.787 37.2257 102.643 37.2257C102.499 37.2257 102.499 37.2257 102.244 36.5277C102.019 35.8996 101.625 35.1783 101.209 34.6432C101.136 34.5501 101.124 34.5036 101.142 34.4338C101.189 34.2477 102.266 33.5962 102.53 33.5962C102.722 33.5962 102.951 33.8289 103.471 34.6199C103.936 35.3412 104.233 35.9694 104.192 36.1322ZM105.377 35.6204C105.281 35.6204 105.221 35.5738 105.172 35.3877C104.838 34.4338 104.457 33.7591 103.956 33.1775C103.884 33.0844 103.871 33.0379 103.883 32.9913C103.913 32.875 104.062 32.7587 104.541 32.4795C104.912 32.2468 105.067 32.2003 105.235 32.2003C105.494 32.2235 105.97 32.8052 106.533 33.8056C106.763 34.2244 106.891 34.5734 106.861 34.6897C106.826 34.8293 106.73 34.9224 106.389 35.1318C105.935 35.411 105.521 35.6204 105.377 35.6204ZM91.6151 38.5053C90.1576 39.9013 88.4181 41.274 86.4861 42.5536C85.6248 43.112 85.1818 43.3447 84.9898 43.3447C84.7978 43.3447 84.7738 43.3447 84.4357 42.8793C84.1097 42.4605 83.6157 42.0418 83.0321 41.6928C85.983 40.1805 87.8606 38.8311 89.8611 36.8069C91.2166 35.4342 92.3023 34.0848 93.0102 32.8052C95.3186 33.7358 95.8479 34.015 95.7655 34.3407C95.7301 34.4803 95.6405 34.5501 95.3592 34.713C95.078 34.8759 94.66 35.2947 93.7704 36.2486C93.9864 36.2486 94.0104 36.2486 94.2024 36.2486C95.0366 36.2718 95.6366 36.2718 95.7806 36.2718C98.1086 36.2718 98.7203 36.2253 99.535 35.9461C99.7447 35.8763 99.8226 35.853 99.9666 35.853C100.303 35.853 100.574 36.109 101.1 36.9698C101.535 37.6212 101.632 37.9004 101.567 38.1564C101.514 38.3657 101.413 38.4821 101.084 38.738C100.845 38.9241 100.445 39.3662 99.9143 40.0409C96.651 44.0194 94.4173 46.2064 91.1045 48.5795C88.4913 50.464 84.5478 52.6743 83.8038 52.6743C83.5877 52.6743 83.4193 52.5812 83.2744 52.3951C82.7253 51.7204 82.2313 51.3016 81.606 51.0224C85.3126 49.4636 88.3165 47.7419 91.162 45.5084C91.0353 45.3455 91.0353 45.3455 90.6427 44.8104C90.2683 44.2986 89.8283 43.8565 88.8281 42.9724C88.7135 42.8561 88.6832 42.7863 88.7068 42.6932C88.7362 42.5769 89.1366 42.2279 90.1886 41.3903C90.6968 40.9948 90.8105 40.925 90.9545 40.925C91.3385 40.925 92.4717 42.0418 93.5524 43.461C95.4519 41.6462 96.9197 39.9246 97.8727 38.4355C95.125 38.4821 95.125 38.4821 91.6151 38.5053Z" fill="white"/>
<path d="M113.979 47.9048C114.915 47.8117 115.845 47.7419 116.312 47.6954C119.227 47.4627 121.668 47.2068 123.143 46.9741C122.613 45.3688 122.073 44.0892 121.457 43.112C121.39 42.9957 121.366 42.9026 121.395 42.7863C121.448 42.5769 121.759 42.3907 122.831 41.8556C123.322 41.623 123.502 41.5764 123.742 41.5764C123.934 41.5764 124.042 41.623 124.15 41.7626C125.086 42.9957 126.02 45.0896 126.643 47.3697C126.973 48.626 127.189 49.9522 127.112 50.2546C127.059 50.464 126.766 50.6734 126.144 50.9526C125.335 51.3016 124.575 51.5575 124.335 51.5575C124.119 51.5575 124.01 51.4179 123.972 51.0922C123.946 50.5338 123.829 49.8591 123.693 49.1611C121.589 49.5101 120.042 49.7428 119.023 49.8824C115.569 50.3477 114.651 50.464 110.375 50.8595C109.536 50.9526 109.11 51.0224 108.529 51.2318C108.427 51.2551 108.349 51.2783 108.253 51.2783C108.061 51.2783 107.941 51.1853 107.88 50.9526C107.672 50.2546 107.644 49.4171 107.771 48.2538C108.365 48.277 108.365 48.277 108.413 48.277C108.917 48.277 108.917 48.277 110.747 48.1607C111.009 47.7884 111.009 47.7884 111.527 47.0672C113.477 44.3916 116.352 39.5756 118.088 36.1322C118.647 35.062 118.89 34.4803 119.133 33.7126C120.237 33.8987 121.138 34.1314 121.866 34.3873C122.328 34.5501 122.509 34.6897 122.456 34.8991C122.427 35.0155 122.361 35.0853 122.02 35.3877C121.859 35.5506 121.466 36.0624 121.221 36.4579C121.072 36.6673 120.644 37.4118 118.983 40.2736C117.733 42.3675 115.458 45.8574 113.979 47.9048Z" fill="white"/>
<path d="M150.478 45.5549C149.064 44.6941 147.592 44.159 145.772 43.8565C144.514 45.4153 143.141 46.9509 141.935 48.2072C140.603 49.5799 139.298 50.2779 138.122 50.2779C136.394 50.2779 135.566 48.9052 136.084 46.8578C136.532 45.0896 137.827 43.5773 139.778 42.6001C141.065 41.972 142.881 41.5299 144.249 41.5299C144.273 41.5299 144.369 41.5299 144.489 41.5299C146.326 39.1103 146.803 38.4588 148.078 36.6441C145.847 36.7371 144.456 36.9233 143.389 37.249C143.335 37.2722 143.263 37.2723 143.215 37.2723C142.807 37.2723 142.73 36.0624 143.051 34.3175C143.556 34.4105 144.048 34.4571 144.696 34.4571C145.512 34.4571 146.922 34.3873 148.421 34.2477C149.818 34.1314 149.818 34.1314 150.178 33.9452C150.393 33.8522 150.525 33.8056 150.645 33.8056C150.957 33.8056 151.343 34.1779 151.712 34.8061C151.972 35.2946 152.112 35.6902 152.071 35.853C152.023 36.0392 151.886 36.202 151.528 36.4812C151.073 36.8535 149.463 38.8543 147.352 41.6928C149.52 42.1348 150.319 42.3907 151.799 43.0887C152.125 42.2744 152.462 41.3205 152.627 40.6691C152.704 40.3666 152.768 40.0176 152.82 39.6221C153.817 39.7617 154.64 39.9246 155.295 40.0874C155.697 40.2038 155.812 40.3201 155.764 40.5062C155.723 40.6691 155.634 40.8319 155.419 41.1111C155.091 41.5532 154.943 41.8556 154.533 42.8095C154.338 43.2981 154.183 43.6238 153.868 44.2986C154.904 45.0431 155.777 45.7643 156.145 46.2064C156.236 46.3227 156.278 46.439 156.249 46.5553C156.084 47.2068 154.669 48.7191 154.237 48.7191C154.117 48.7191 154.015 48.6493 153.858 48.5097C153.352 47.9513 152.724 47.2999 152.333 46.9509C151.093 48.626 149.982 49.6962 148.385 50.7897C147.027 51.6971 145.255 52.5347 144.679 52.5347C144.487 52.5347 144.295 52.4416 144.162 52.302C144.108 52.2322 144.114 52.209 143.908 51.7902C143.683 51.2551 143.436 50.9991 142.925 50.7432C145.01 50.0918 146.063 49.6264 147.313 48.7656C148.569 47.8815 149.632 46.8113 150.478 45.5549ZM142.856 43.903C140.518 44.1357 138.968 45.1361 138.585 46.6484C138.444 47.2068 138.572 47.5558 138.956 47.5558C139.484 47.5558 140.708 46.4157 142.856 43.903Z" fill="white"/>
<path d="M170.184 39.5756C169.093 39.7152 168.331 39.785 166.838 39.9013C166.79 39.9013 166.742 39.9013 166.694 39.9013C166.568 39.9246 166.472 39.9246 166.424 39.9246C166.208 39.9246 166.111 39.8315 166.116 39.529C166.119 38.9474 166.206 38.2262 166.382 37.342C166.712 37.3653 166.976 37.3653 167.144 37.3653C168.44 37.3653 169.975 37.2723 171.288 37.1094C171.917 35.5738 172.338 34.3873 172.579 33.4334C172.609 33.317 172.656 33.1309 172.715 32.8983C175.41 33.2473 175.897 33.4101 175.767 33.8289C175.738 33.9452 175.672 34.015 175.523 34.2244C175.099 34.7595 175.058 34.8293 174.208 36.6673C175.186 36.5045 176.462 36.202 176.983 36.0392C177.091 35.9926 177.115 35.9926 177.187 35.9926C177.403 35.9926 177.428 36.0857 177.414 36.9C177.392 37.3653 177.323 38.0168 177.276 38.2029C177.234 38.3657 177.139 38.4588 176.911 38.5053C176.444 38.6449 176.444 38.6449 173.014 39.2033C170.715 43.9263 168.679 47.4162 165.771 51.604C165.574 51.9065 165.425 52.0228 165.281 52.0228C164.969 52.0228 164.211 51.6971 163.507 51.2551C163.152 51.0457 163.062 50.9293 163.091 50.813C163.115 50.7199 163.228 50.5571 163.407 50.3244C166.079 46.9741 168.3 43.4144 170.184 39.5756ZM174.149 46.9509C174.165 47.928 174.347 48.3468 174.847 48.7423C175.431 49.1844 176.386 49.3938 177.802 49.3938C179.362 49.3938 180.742 49.2542 181.569 49.0215C181.772 48.975 181.826 48.9517 181.922 48.9517C182.138 48.9517 182.217 49.0215 182.236 49.2309C182.28 49.7195 182.158 50.6734 181.976 51.3947C181.899 51.6971 181.774 51.8134 181.444 51.8832C180.611 52.0461 179.243 52.1392 177.827 52.1392C174.827 52.1392 173.265 51.6738 172.444 50.5571C172.142 50.1383 171.941 49.6032 171.897 49.0215C171.835 48.6958 171.839 48.3003 171.875 48.1607C171.975 47.7652 172.801 47.3464 174.149 46.9509ZM183.491 41.9952C183.443 41.9952 183.371 41.9952 183.305 41.972C182.843 41.9022 181.847 41.8556 181.007 41.8556C179.231 41.8556 178.469 41.9254 176.269 42.2744C176.215 42.2977 176.143 42.2977 176.095 42.2977C175.951 42.2977 175.891 42.2512 175.878 42.1116C175.847 41.9487 176.04 40.8087 176.164 40.3201C176.24 40.0176 176.324 39.878 176.533 39.8082C176.641 39.7617 176.791 39.7384 177.318 39.6454C179.021 39.3662 180.419 39.2499 182.099 39.2499C183.491 39.2499 184.199 39.2964 184.337 39.4127C184.434 39.5058 184.411 39.6919 184.216 40.4597C184.045 41.1344 183.844 41.7393 183.761 41.8789C183.719 41.9487 183.611 41.9952 183.491 41.9952Z" fill="white"/>
<path d="M194.011 39.785L194.63 37.342C194.8 36.6673 195.006 35.76 195.088 35.2481C196.162 35.3644 196.937 35.5273 197.526 35.76C198.049 35.9694 198.206 36.109 198.141 36.3649C198.106 36.5045 198.106 36.5045 197.951 36.7371C197.438 37.5282 197.119 38.4123 196.583 40.5295C195.829 43.5075 195.549 45.3688 195.67 46.788C195.753 47.8815 196.146 48.5097 196.794 48.5097C197.778 48.5097 198.877 47.3929 200.419 44.8104C200.574 45.997 200.654 46.346 201.114 47.1835C201.193 47.3464 201.223 47.5092 201.182 47.6721C201.088 48.0444 200.528 48.8354 199.877 49.5101C198.605 50.8363 197.223 51.5575 195.951 51.5575C194.102 51.5575 193.076 50.115 192.936 47.2533C192.855 45.392 193.186 43.0422 194.011 39.785ZM206.439 38.8543C207.629 38.1331 208.527 37.7143 208.815 37.7143C208.959 37.7143 209.062 37.7841 209.212 37.947C210.13 39.0637 210.906 40.925 211.239 42.7397C211.455 43.9728 211.541 45.6247 211.417 46.1133C211.358 46.346 211.209 46.4623 210.64 46.7182C210.017 46.9974 208.795 47.3697 208.507 47.3697C208.291 47.3697 208.224 47.2533 208.258 46.8345C208.4 45.0431 208.298 43.7402 207.937 42.2279C207.606 40.8785 207.576 40.8087 206.439 38.8543Z" fill="white"/>
<path d="M225.85 39.1568C224.896 39.2266 224.819 39.2499 223.697 39.3197C223.259 39.3429 222.989 39.3662 222.695 39.3894C222.473 39.4127 222.449 39.4127 222.425 39.4127C222.233 39.4127 222.155 39.3429 222.142 39.1103C222.116 38.738 222.26 37.5049 222.413 36.8069C222.671 36.8302 223.361 36.8535 224.225 36.8535C224.489 36.8535 226.415 36.7371 227.272 36.6673C228.158 34.7828 228.549 33.8056 228.867 32.5493C231.257 32.875 232.074 33.1542 231.962 33.5962C231.921 33.7591 231.885 33.8056 231.389 34.3407C231.127 34.6199 230.99 34.8759 230.217 36.3183C231.392 36.1322 232.105 35.9694 233.064 35.6902C233.244 35.6436 233.321 35.6204 233.441 35.6204C233.609 35.6204 233.628 35.7367 233.601 36.4114C233.574 36.9931 233.522 37.4816 233.457 37.7376C233.387 38.0168 233.303 38.0633 232.644 38.2029C231.781 38.389 230.33 38.6217 228.794 38.8078C227.247 41.4136 226.293 42.8095 224.636 44.9965C223.383 46.6251 222.685 47.486 221.79 48.4631C221.527 48.7423 221.384 48.8354 221.216 48.8354C220.976 48.8354 220.392 48.4864 219.705 47.8815C219.386 47.6256 219.319 47.5092 219.361 47.3464C219.402 47.1835 219.533 47.0439 219.951 46.6251C220.859 45.7876 222.137 44.3451 223.317 42.8095C224.313 41.5299 224.689 40.9948 225.85 39.1568ZM241.32 39.5756C241.273 39.7617 240.712 40.4597 240.061 41.1344C239.673 41.5299 239.5 41.6462 239.332 41.6462C239.212 41.6462 239.128 41.5997 239.001 41.4368C238.542 40.8785 237.855 40.2736 237.103 39.7384C236.615 39.3894 236.615 39.3894 235.677 38.9241C235.376 38.7845 235.28 38.6915 235.327 38.5053C235.368 38.3425 235.541 38.1331 236.037 37.598C236.819 36.7837 236.998 36.6441 237.214 36.6441C237.67 36.6441 239.222 37.5282 240.282 38.3657C241.144 39.0405 241.385 39.3196 241.32 39.5756ZM233.47 49.2542C232.922 51.4179 230.96 52.7208 228.2 52.7208C225.584 52.7208 224.161 51.3249 224.686 49.2542C225.228 47.1137 227.482 45.5084 229.954 45.5084C230.53 45.5084 230.788 45.5316 231.737 45.6712C231.924 44.5545 232.035 44.1124 232.487 41.9487C232.599 41.5066 232.704 40.9017 232.845 40.1572C234.039 40.2736 234.94 40.4131 235.349 40.5993C235.523 40.6691 235.59 40.7854 235.543 40.9715C235.513 41.0879 235.466 41.1809 235.4 41.3438C235.157 41.8324 235.044 42.1814 234.885 42.8095C234.667 43.6704 234.368 45.1361 234.152 46.2762C235.667 47.0207 236.269 47.3929 237.239 48.3003C237.667 48.6958 237.806 48.9052 237.759 49.0913C237.7 49.324 237.527 49.5334 236.59 50.5803C236.184 51.0457 235.915 51.2551 235.747 51.2551C235.603 51.2551 235.603 51.2551 235.084 50.6501C234.686 50.1383 234.186 49.7428 233.47 49.2542ZM231.094 48.1142C230.673 47.8815 230.061 47.7419 229.413 47.7419C228.261 47.7419 227.333 48.277 227.127 49.0913C226.932 49.8591 227.529 50.3477 228.609 50.3477C229.881 50.3477 230.712 49.7195 231.024 48.4864C231.071 48.3003 231.118 48.1142 231.094 48.1142Z" fill="white"/>
<path d="M254.27 42.5536L253.61 45.1594C253.245 46.6019 252.357 50.3942 252.128 51.4877C252.116 51.5342 252.105 51.5808 252.099 51.604C252.046 51.8134 251.956 51.9763 251.819 52.0461C251.615 52.1857 250.626 52.302 249.738 52.302C248.97 52.302 248.844 52.2322 248.961 51.7669C248.967 51.7436 248.973 51.7204 248.985 51.6738C249.186 51.0689 250.961 44.3451 251.656 41.5997C253.01 36.2486 253.351 34.713 253.471 33.3868C255.175 33.4799 255.92 33.573 256.581 33.7126C256.809 33.7591 256.899 33.8754 256.852 34.0616C256.817 34.2012 256.817 34.2012 256.621 34.5967C256.454 34.8759 256.329 35.1783 256.205 35.5738C256.193 35.6204 255.792 37.0163 255.025 39.7617C256.611 40.227 256.611 40.227 257.507 40.576C259.701 41.3903 260.921 41.972 262.775 43.0887C262.937 43.2051 263.004 43.3214 262.963 43.4842C262.904 43.7169 262.189 44.8337 261.628 45.5316C261.336 45.9272 261.187 46.0435 261.043 46.0435C260.947 46.0435 260.838 45.997 260.7 45.8806C258.731 44.3684 256.547 43.2283 254.27 42.5536ZM261.611 38.1098C261.515 38.1098 261.455 38.0633 261.418 37.9237C261.15 37.0861 260.751 36.2951 260.213 35.5738C260.129 35.4342 260.105 35.4342 260.122 35.3644C260.158 35.2249 260.313 35.0853 260.846 34.7828C261.246 34.5269 261.462 34.4338 261.582 34.4338C261.798 34.4338 261.967 34.6199 262.408 35.2481C262.988 36.0857 263.357 36.8069 263.304 37.0163C263.239 37.2723 261.947 38.1098 261.611 38.1098ZM266.111 35.504C266.076 35.6436 265.866 35.8065 265.22 36.1788C264.855 36.3881 264.61 36.5045 264.49 36.5045C264.418 36.5045 264.381 36.4579 264.303 36.2951C263.962 35.3644 263.587 34.6665 263.08 34.015C263.026 33.9452 262.995 33.8754 263.007 33.8289C263.054 33.6428 264.179 32.9913 264.467 32.9913C264.587 32.9913 264.713 33.0611 264.9 33.2705C265.474 33.9452 266.182 35.2249 266.111 35.504Z" fill="white"/>
<path d="M287.955 41.5532C278.83 41.6695 277.132 41.7393 275.352 42.0418C275.304 42.0418 275.178 42.065 275.154 42.065C274.626 42.065 274.61 41.274 275.049 38.8776C276.178 39.0637 277.816 39.1335 282.28 39.1335C287.08 39.1335 288.376 39.1335 288.844 39.087C289.21 39.0637 289.288 39.0405 289.803 38.9009C289.989 38.8311 290.138 38.8078 290.283 38.8078C290.643 38.8078 290.889 38.9707 291.173 39.3662C291.639 40.0874 291.906 40.7389 291.835 41.0181C291.77 41.274 291.603 41.4601 291.238 41.7626C291.005 41.9254 290.832 42.1348 290.123 43.1353C287.649 46.5553 285.319 48.6493 282.045 50.3942C280.543 51.2085 278.219 52.1392 277.739 52.1392C277.403 52.1392 277.247 51.9996 276.956 51.5342C276.515 50.813 276.292 50.5571 275.702 50.2314C278.639 49.4403 281.47 48.1142 283.665 46.4623C285.327 45.2059 286.747 43.5773 287.955 41.5532ZM278.822 33.5497C280.335 33.7358 281.835 33.7824 285.291 33.7824C287.787 33.7824 287.787 33.7824 290.594 33.5962C290.69 33.5962 290.714 33.5962 290.882 33.5962C291.194 33.5962 291.255 33.8289 291.102 34.5269C291.032 34.8061 290.967 35.062 290.932 35.2946C290.92 35.3412 290.908 35.3877 290.908 35.3877C290.696 36.2253 290.541 36.4579 290.229 36.4579C290.133 36.4579 289.947 36.4347 289.731 36.4347C289.287 36.3881 287.499 36.3416 286.755 36.3416C283.155 36.3416 280.575 36.3881 279.13 36.5045C279.058 36.5045 278.986 36.5045 278.938 36.5045C278.314 36.5045 278.306 36.1555 278.822 33.5497Z" fill="white"/>
<path d="M310.548 44.5545C313.532 42.5303 315.725 40.6923 317.989 38.389C309.607 38.5053 309.607 38.5053 306.794 38.6217C304.784 38.6915 304.784 38.6915 304.005 38.8311C303.885 38.8311 303.759 38.8543 303.711 38.8543C303.423 38.8543 303.29 38.7147 303.247 38.4123C303.172 37.7608 303.246 36.9 303.492 35.7367C305.101 35.9228 307.597 36.0159 310.645 36.0159C314.053 36.0159 317.185 35.9694 318.547 35.8996C319.159 35.853 319.41 35.8065 319.854 35.6669C320.087 35.5971 320.213 35.5738 320.381 35.5738C320.861 35.5738 321.241 35.9694 321.774 37.0861C322.071 37.7143 322.181 38.1331 322.117 38.389C322.052 38.6449 321.992 38.6915 321.513 38.9707C321.094 39.2033 320.849 39.4127 319.822 40.3433C317.008 42.9259 315.328 44.252 312.02 46.4157C313.107 47.8117 313.845 49.0681 313.774 49.3473C313.709 49.6032 313.309 49.9522 312.418 50.5338C311.784 50.9526 311.317 51.1853 311.149 51.1853C311.005 51.1853 310.902 51.1155 310.787 50.9061C309.788 48.975 309.45 48.4166 308.49 47.1835C307.337 45.6712 307.277 45.6247 305.107 43.5773C305.005 43.5075 304.986 43.3912 305.016 43.2749C305.063 43.0887 305.588 42.6234 306.39 42.0185C306.85 41.716 307.078 41.5764 307.222 41.5764C307.318 41.5764 307.408 41.5997 307.528 41.6928C308.395 42.2512 309.474 43.2981 310.548 44.5545Z" fill="white"/>
<path d="M9.73359 37.342C9.80316 35.5506 9.75492 34.2244 9.54087 33.3636C10.6739 33.1542 11.7294 33.0611 12.6654 33.0611C13.1454 33.0611 13.284 33.1775 13.2015 33.5032C13.178 33.5962 13.1603 33.666 13.0294 33.8987C12.97 34.0383 12.9048 34.2012 12.8636 34.364C12.7517 34.8061 12.7054 35.1783 12.5874 36.8767C15.1595 36.4812 17.2277 36.0857 18.3123 35.7832C18.4979 35.7134 18.5459 35.7134 18.6899 35.7134C18.8579 35.7134 18.8946 35.853 18.8787 36.2951C18.8627 36.7371 18.7543 37.9237 18.7072 38.1098C18.6306 38.4123 18.5287 38.4355 17.5692 38.5286C16.6875 38.5984 16.1898 38.6682 12.4367 39.2731C12.3263 41.3205 12.3263 41.3205 12.2655 42.414C12.817 42.3209 12.817 42.321 13.3686 42.2279C15.8746 41.8091 17.595 41.4601 18.7814 41.1344C19.1949 41.0181 19.4526 40.9483 19.5246 40.9483C19.7166 40.9483 19.765 41.0413 19.7781 41.274C19.8169 41.8789 19.7683 43.0189 19.68 43.3679C19.6269 43.5773 19.573 43.6006 18.8236 43.7169C18.4219 43.7867 18.4219 43.7867 17.5946 43.9263C16.2456 44.1357 16.2456 44.1357 12.1627 44.8104C12.0504 47.7186 12.0504 47.7186 12.0603 51.0922C12.0612 51.2783 12.0498 51.4179 12.0381 51.4644C11.9792 51.6971 11.8655 51.7669 11.4221 51.9065C10.6912 52.1392 9.37844 52.3951 9.04244 52.3951C8.80244 52.3951 8.77211 52.3253 8.81203 51.8832C8.92677 50.7665 9.06703 48.6958 9.30893 45.2757C4.18909 46.1598 3.78153 46.2529 2.29572 46.7182C1.96016 46.8113 1.85827 46.8345 1.73827 46.8345C1.54627 46.8345 1.44983 46.7415 1.39463 46.4855C1.25389 45.9039 1.20238 45.1594 1.20302 44.0194C2.4628 43.9728 3.82992 43.7867 9.45376 42.9026C9.51919 41.5066 9.58049 40.5062 9.61276 39.7152C5.05627 40.4597 5.05627 40.4597 3.74391 40.8087C3.53424 40.8785 3.48624 40.8785 3.43824 40.8785C3.05424 40.8785 3.05424 40.8785 3.04154 38.1796C4.37332 38.1331 4.37332 38.1331 9.73359 37.342Z" stroke="black" stroke-width="2" stroke-linejoin="round" mask="url(#path-4-outside-1_473_8874)"/>
<path d="M46.1575 36.9C46.2036 37.7608 46.3018 38.2262 46.6253 39.4127C46.6864 39.6454 46.6932 39.8082 46.6579 39.9478C46.599 40.1805 46.4617 40.3433 46.0437 40.7621C44.2996 42.4373 42.5419 43.7867 39.9995 45.392C37.14 47.2068 34.7937 48.4166 31.578 49.7428C29.5179 50.5803 29.4101 50.6269 29.0573 50.8828C28.8182 51.0689 28.7104 51.1155 28.5664 51.1155C28.3504 51.1155 28.2055 50.9293 27.9751 50.4175C27.6718 49.7195 27.4574 48.7656 27.3995 47.9513C29.959 47.4162 33.1811 46.1598 36.425 44.4381C40.6924 42.1814 43.5859 39.9478 46.1575 36.9ZM30.1862 37.0396C30.2392 36.8302 30.8601 36.1788 31.6309 35.504C32.1509 35.062 32.3483 34.9457 32.5643 34.9457C33.0144 34.9689 34.5317 36.0857 35.7252 37.249C36.4545 37.9702 36.666 38.2727 36.6071 38.5053C36.5658 38.6682 35.9748 39.2964 35.2397 39.9246C34.5645 40.5062 34.2475 40.7156 34.0555 40.7156C33.8875 40.7156 33.8875 40.7156 33.1332 39.8082C32.6565 39.2266 31.6559 38.2494 31.1261 37.8772C30.4216 37.342 30.4216 37.342 30.2772 37.249C30.1988 37.1792 30.1685 37.1094 30.1862 37.0396Z" stroke="black" stroke-width="2" stroke-linejoin="round" mask="url(#path-4-outside-1_473_8874)"/>
<path d="M69.6324 38.7845L63.5545 38.8078C61.3566 40.9483 57.8766 43.5075 57.1806 43.5075C56.9646 43.5075 56.8804 43.461 56.5005 43.0655C56.2171 42.763 55.6991 42.3442 55.0191 41.9022C56.9469 41.0181 59.0523 39.6221 60.7552 38.1098C62.5835 36.4812 63.7652 35.1318 65.1236 33.0844C66.2053 33.4566 66.7586 33.7358 67.4446 34.1546C67.7335 34.3407 67.8181 34.4803 67.7651 34.6897C67.7239 34.8526 67.6165 34.9922 67.3652 35.1318C67.0781 35.3179 66.7674 35.5971 65.9313 36.4347L69.5014 36.4579C70.7974 36.4579 71.0433 36.4347 71.8281 36.1788C71.93 36.1555 72.0079 36.1322 72.1039 36.1322C72.4879 36.1322 72.8075 36.4812 73.2856 37.342C73.6002 37.9004 73.6613 38.1331 73.5965 38.389C73.5317 38.6449 73.4303 38.7613 73.0118 39.087C72.7727 39.2731 72.3488 39.7152 72.0027 40.134C68.2621 44.6708 65.0416 47.5325 60.5305 50.2779C58.5682 51.4877 56.072 52.7208 55.616 52.7208C55.424 52.7208 55.2795 52.6277 55.1224 52.3951C54.8205 51.9763 54.2844 51.5342 53.4721 51.0457C57.3884 49.4171 60.2488 47.7884 63.2437 45.4386C65.3659 43.7867 66.9665 42.2046 68.5173 40.2503C68.8334 39.8548 69.054 39.5523 69.6324 38.7845ZM77.2002 35.3412C77.1042 35.3412 77.044 35.2946 76.9951 35.1085C76.6606 34.1546 76.2794 33.4799 75.7846 32.875C75.7121 32.7819 75.6999 32.7354 75.7117 32.6889C75.7411 32.5725 75.8906 32.4562 76.3693 32.177C76.7402 31.9444 76.896 31.8978 77.064 31.8978C77.3221 31.9211 77.7988 32.5027 78.3556 33.5264C78.5856 33.9452 78.7133 34.2942 78.6838 34.4105C78.6543 34.5269 78.5529 34.6432 78.2119 34.8526C77.7572 35.1318 77.3442 35.3412 77.2002 35.3412ZM76.0146 35.853C75.9734 36.0159 75.8778 36.109 75.6147 36.2951C74.9747 36.7371 74.6097 36.9465 74.4657 36.9465C74.3217 36.9465 74.3217 36.9465 74.0664 36.2486C73.8415 35.6204 73.4481 34.8991 73.0316 34.364C72.9591 34.2709 72.9469 34.2244 72.9646 34.1546C73.0117 33.9685 74.0887 33.317 74.3527 33.317C74.5447 33.317 74.7737 33.5497 75.2935 34.3407C75.7589 35.062 76.0558 35.6902 76.0146 35.853Z" stroke="black" stroke-width="2" stroke-linejoin="round" mask="url(#path-4-outside-1_473_8874)"/>
<path d="M104.192 36.1322C104.151 36.2951 104.055 36.3881 103.792 36.5743C103.152 37.0163 102.787 37.2257 102.643 37.2257C102.499 37.2257 102.499 37.2257 102.244 36.5277C102.019 35.8996 101.625 35.1783 101.209 34.6432C101.136 34.5501 101.124 34.5036 101.142 34.4338C101.189 34.2477 102.266 33.5962 102.53 33.5962C102.722 33.5962 102.951 33.8289 103.471 34.6199C103.936 35.3412 104.233 35.9694 104.192 36.1322ZM105.377 35.6204C105.281 35.6204 105.221 35.5738 105.172 35.3877C104.838 34.4338 104.457 33.7591 103.956 33.1775C103.884 33.0844 103.871 33.0379 103.883 32.9913C103.913 32.875 104.062 32.7587 104.541 32.4795C104.912 32.2468 105.067 32.2003 105.235 32.2003C105.494 32.2235 105.97 32.8052 106.533 33.8056C106.763 34.2244 106.891 34.5734 106.861 34.6897C106.826 34.8293 106.73 34.9224 106.389 35.1318C105.935 35.411 105.521 35.6204 105.377 35.6204ZM91.6151 38.5053C90.1576 39.9013 88.4181 41.274 86.4861 42.5536C85.6248 43.112 85.1818 43.3447 84.9898 43.3447C84.7978 43.3447 84.7738 43.3447 84.4357 42.8793C84.1097 42.4605 83.6157 42.0418 83.0321 41.6928C85.983 40.1805 87.8606 38.8311 89.8611 36.8069C91.2166 35.4342 92.3023 34.0848 93.0102 32.8052C95.3186 33.7358 95.8479 34.015 95.7655 34.3407C95.7301 34.4803 95.6405 34.5501 95.3592 34.713C95.078 34.8759 94.66 35.2947 93.7704 36.2486C93.9864 36.2486 94.0104 36.2486 94.2024 36.2486C95.0366 36.2718 95.6366 36.2718 95.7806 36.2718C98.1086 36.2718 98.7203 36.2253 99.535 35.9461C99.7447 35.8763 99.8226 35.853 99.9666 35.853C100.303 35.853 100.574 36.109 101.1 36.9698C101.535 37.6212 101.632 37.9004 101.567 38.1564C101.514 38.3657 101.413 38.4821 101.084 38.738C100.845 38.9241 100.445 39.3662 99.9143 40.0409C96.651 44.0194 94.4173 46.2064 91.1045 48.5795C88.4913 50.464 84.5478 52.6743 83.8038 52.6743C83.5877 52.6743 83.4193 52.5812 83.2744 52.3951C82.7253 51.7204 82.2313 51.3016 81.606 51.0224C85.3126 49.4636 88.3165 47.7419 91.162 45.5084C91.0353 45.3455 91.0353 45.3455 90.6427 44.8104C90.2683 44.2986 89.8283 43.8565 88.8281 42.9724C88.7135 42.8561 88.6832 42.7863 88.7068 42.6932C88.7362 42.5769 89.1366 42.2279 90.1886 41.3903C90.6968 40.9948 90.8105 40.925 90.9545 40.925C91.3385 40.925 92.4717 42.0418 93.5524 43.461C95.4519 41.6462 96.9197 39.9246 97.8727 38.4355C95.125 38.4821 95.125 38.4821 91.6151 38.5053Z" stroke="black" stroke-width="2" stroke-linejoin="round" mask="url(#path-4-outside-1_473_8874)"/>
<path d="M113.979 47.9048C114.915 47.8117 115.845 47.7419 116.312 47.6954C119.227 47.4627 121.668 47.2068 123.143 46.9741C122.613 45.3688 122.073 44.0892 121.457 43.112C121.39 42.9957 121.366 42.9026 121.395 42.7863C121.448 42.5769 121.759 42.3907 122.831 41.8556C123.322 41.623 123.502 41.5764 123.742 41.5764C123.934 41.5764 124.042 41.623 124.15 41.7626C125.086 42.9957 126.02 45.0896 126.643 47.3697C126.973 48.626 127.189 49.9522 127.112 50.2546C127.059 50.464 126.766 50.6734 126.144 50.9526C125.335 51.3016 124.575 51.5575 124.335 51.5575C124.119 51.5575 124.01 51.4179 123.972 51.0922C123.946 50.5338 123.829 49.8591 123.693 49.1611C121.589 49.5101 120.042 49.7428 119.023 49.8824C115.569 50.3477 114.651 50.464 110.375 50.8595C109.536 50.9526 109.11 51.0224 108.529 51.2318C108.427 51.2551 108.349 51.2783 108.253 51.2783C108.061 51.2783 107.941 51.1853 107.88 50.9526C107.672 50.2546 107.644 49.4171 107.771 48.2538C108.365 48.277 108.365 48.277 108.413 48.277C108.917 48.277 108.917 48.277 110.747 48.1607C111.009 47.7884 111.009 47.7884 111.527 47.0672C113.477 44.3916 116.352 39.5756 118.088 36.1322C118.647 35.062 118.89 34.4803 119.133 33.7126C120.237 33.8987 121.138 34.1314 121.866 34.3873C122.328 34.5501 122.509 34.6897 122.456 34.8991C122.427 35.0155 122.361 35.0853 122.02 35.3877C121.859 35.5506 121.466 36.0624 121.221 36.4579C121.072 36.6673 120.644 37.4118 118.983 40.2736C117.733 42.3675 115.458 45.8574 113.979 47.9048Z" stroke="black" stroke-width="2" stroke-linejoin="round" mask="url(#path-4-outside-1_473_8874)"/>
<path d="M150.478 45.5549C149.064 44.6941 147.592 44.159 145.772 43.8565C144.514 45.4153 143.141 46.9509 141.935 48.2072C140.603 49.5799 139.298 50.2779 138.122 50.2779C136.394 50.2779 135.566 48.9052 136.084 46.8578C136.532 45.0896 137.827 43.5773 139.778 42.6001C141.065 41.972 142.881 41.5299 144.249 41.5299C144.273 41.5299 144.369 41.5299 144.489 41.5299C146.326 39.1103 146.803 38.4588 148.078 36.6441C145.847 36.7371 144.456 36.9233 143.389 37.249C143.335 37.2722 143.263 37.2723 143.215 37.2723C142.807 37.2723 142.73 36.0624 143.051 34.3175C143.556 34.4105 144.048 34.4571 144.696 34.4571C145.512 34.4571 146.922 34.3873 148.421 34.2477C149.818 34.1314 149.818 34.1314 150.178 33.9452C150.393 33.8522 150.525 33.8056 150.645 33.8056C150.957 33.8056 151.343 34.1779 151.712 34.8061C151.972 35.2946 152.112 35.6902 152.071 35.853C152.023 36.0392 151.886 36.202 151.528 36.4812C151.073 36.8535 149.463 38.8543 147.352 41.6928C149.52 42.1348 150.319 42.3907 151.799 43.0887C152.125 42.2744 152.462 41.3205 152.627 40.6691C152.704 40.3666 152.768 40.0176 152.82 39.6221C153.817 39.7617 154.64 39.9246 155.295 40.0874C155.697 40.2038 155.812 40.3201 155.764 40.5062C155.723 40.6691 155.634 40.8319 155.419 41.1111C155.091 41.5532 154.943 41.8556 154.533 42.8095C154.338 43.2981 154.183 43.6238 153.868 44.2986C154.904 45.0431 155.777 45.7643 156.145 46.2064C156.236 46.3227 156.278 46.439 156.249 46.5553C156.084 47.2068 154.669 48.7191 154.237 48.7191C154.117 48.7191 154.015 48.6493 153.858 48.5097C153.352 47.9513 152.724 47.2999 152.333 46.9509C151.093 48.626 149.982 49.6962 148.385 50.7897C147.027 51.6971 145.255 52.5347 144.679 52.5347C144.487 52.5347 144.295 52.4416 144.162 52.302C144.108 52.2322 144.114 52.209 143.908 51.7902C143.683 51.2551 143.436 50.9991 142.925 50.7432C145.01 50.0918 146.063 49.6264 147.313 48.7656C148.569 47.8815 149.632 46.8113 150.478 45.5549ZM142.856 43.903C140.518 44.1357 138.968 45.1361 138.585 46.6484C138.444 47.2068 138.572 47.5558 138.956 47.5558C139.484 47.5558 140.708 46.4157 142.856 43.903Z" stroke="black" stroke-width="2" stroke-linejoin="round" mask="url(#path-4-outside-1_473_8874)"/>
<path d="M170.184 39.5756C169.093 39.7152 168.331 39.785 166.838 39.9013C166.79 39.9013 166.742 39.9013 166.694 39.9013C166.568 39.9246 166.472 39.9246 166.424 39.9246C166.208 39.9246 166.111 39.8315 166.116 39.529C166.119 38.9474 166.206 38.2262 166.382 37.342C166.712 37.3653 166.976 37.3653 167.144 37.3653C168.44 37.3653 169.975 37.2723 171.288 37.1094C171.917 35.5738 172.338 34.3873 172.579 33.4334C172.609 33.317 172.656 33.1309 172.715 32.8983C175.41 33.2473 175.897 33.4101 175.767 33.8289C175.738 33.9452 175.672 34.015 175.523 34.2244C175.099 34.7595 175.058 34.8293 174.208 36.6673C175.186 36.5045 176.462 36.202 176.983 36.0392C177.091 35.9926 177.115 35.9926 177.187 35.9926C177.403 35.9926 177.428 36.0857 177.414 36.9C177.392 37.3653 177.323 38.0168 177.276 38.2029C177.234 38.3657 177.139 38.4588 176.911 38.5053C176.444 38.6449 176.444 38.6449 173.014 39.2033C170.715 43.9263 168.679 47.4162 165.771 51.604C165.574 51.9065 165.425 52.0228 165.281 52.0228C164.969 52.0228 164.211 51.6971 163.507 51.2551C163.152 51.0457 163.062 50.9293 163.091 50.813C163.115 50.7199 163.228 50.5571 163.407 50.3244C166.079 46.9741 168.3 43.4144 170.184 39.5756ZM174.149 46.9509C174.165 47.928 174.347 48.3468 174.847 48.7423C175.431 49.1844 176.386 49.3938 177.802 49.3938C179.362 49.3938 180.742 49.2542 181.569 49.0215C181.772 48.975 181.826 48.9517 181.922 48.9517C182.138 48.9517 182.217 49.0215 182.236 49.2309C182.28 49.7195 182.158 50.6734 181.976 51.3947C181.899 51.6971 181.774 51.8134 181.444 51.8832C180.611 52.0461 179.243 52.1392 177.827 52.1392C174.827 52.1392 173.265 51.6738 172.444 50.5571C172.142 50.1383 171.941 49.6032 171.897 49.0215C171.835 48.6958 171.839 48.3003 171.875 48.1607C171.975 47.7652 172.801 47.3464 174.149 46.9509ZM183.491 41.9952C183.443 41.9952 183.371 41.9952 183.305 41.972C182.843 41.9022 181.847 41.8556 181.007 41.8556C179.231 41.8556 178.469 41.9254 176.269 42.2744C176.215 42.2977 176.143 42.2977 176.095 42.2977C175.951 42.2977 175.891 42.2512 175.878 42.1116C175.847 41.9487 176.04 40.8087 176.164 40.3201C176.24 40.0176 176.324 39.878 176.533 39.8082C176.641 39.7617 176.791 39.7384 177.318 39.6454C179.021 39.3662 180.419 39.2499 182.099 39.2499C183.491 39.2499 184.199 39.2964 184.337 39.4127C184.434 39.5058 184.411 39.6919 184.216 40.4597C184.045 41.1344 183.844 41.7393 183.761 41.8789C183.719 41.9487 183.611 41.9952 183.491 41.9952Z" stroke="black" stroke-width="2" stroke-linejoin="round" mask="url(#path-4-outside-1_473_8874)"/>
<path d="M194.011 39.785L194.63 37.342C194.8 36.6673 195.006 35.76 195.088 35.2481C196.162 35.3644 196.937 35.5273 197.526 35.76C198.049 35.9694 198.206 36.109 198.141 36.3649C198.106 36.5045 198.106 36.5045 197.951 36.7371C197.438 37.5282 197.119 38.4123 196.583 40.5295C195.829 43.5075 195.549 45.3688 195.67 46.788C195.753 47.8815 196.146 48.5097 196.794 48.5097C197.778 48.5097 198.877 47.3929 200.419 44.8104C200.574 45.997 200.654 46.346 201.114 47.1835C201.193 47.3464 201.223 47.5092 201.182 47.6721C201.088 48.0444 200.528 48.8354 199.877 49.5101C198.605 50.8363 197.223 51.5575 195.951 51.5575C194.102 51.5575 193.076 50.115 192.936 47.2533C192.855 45.392 193.186 43.0422 194.011 39.785ZM206.439 38.8543C207.629 38.1331 208.527 37.7143 208.815 37.7143C208.959 37.7143 209.062 37.7841 209.212 37.947C210.13 39.0637 210.906 40.925 211.239 42.7397C211.455 43.9728 211.541 45.6247 211.417 46.1133C211.358 46.346 211.209 46.4623 210.64 46.7182C210.017 46.9974 208.795 47.3697 208.507 47.3697C208.291 47.3697 208.224 47.2533 208.258 46.8345C208.4 45.0431 208.298 43.7402 207.937 42.2279C207.606 40.8785 207.576 40.8087 206.439 38.8543Z" stroke="black" stroke-width="2" stroke-linejoin="round" mask="url(#path-4-outside-1_473_8874)"/>
<path d="M225.85 39.1568C224.896 39.2266 224.819 39.2499 223.697 39.3197C223.259 39.3429 222.989 39.3662 222.695 39.3894C222.473 39.4127 222.449 39.4127 222.425 39.4127C222.233 39.4127 222.155 39.3429 222.142 39.1103C222.116 38.738 222.26 37.5049 222.413 36.8069C222.671 36.8302 223.361 36.8535 224.225 36.8535C224.489 36.8535 226.415 36.7371 227.272 36.6673C228.158 34.7828 228.549 33.8056 228.867 32.5493C231.257 32.875 232.074 33.1542 231.962 33.5962C231.921 33.7591 231.885 33.8056 231.389 34.3407C231.127 34.6199 230.99 34.8759 230.217 36.3183C231.392 36.1322 232.105 35.9694 233.064 35.6902C233.244 35.6436 233.321 35.6204 233.441 35.6204C233.609 35.6204 233.628 35.7367 233.601 36.4114C233.574 36.9931 233.522 37.4816 233.457 37.7376C233.387 38.0168 233.303 38.0633 232.644 38.2029C231.781 38.389 230.33 38.6217 228.794 38.8078C227.247 41.4136 226.293 42.8095 224.636 44.9965C223.383 46.6251 222.685 47.486 221.79 48.4631C221.527 48.7423 221.384 48.8354 221.216 48.8354C220.976 48.8354 220.392 48.4864 219.705 47.8815C219.386 47.6256 219.319 47.5092 219.361 47.3464C219.402 47.1835 219.533 47.0439 219.951 46.6251C220.859 45.7876 222.137 44.3451 223.317 42.8095C224.313 41.5299 224.689 40.9948 225.85 39.1568ZM241.32 39.5756C241.273 39.7617 240.712 40.4597 240.061 41.1344C239.673 41.5299 239.5 41.6462 239.332 41.6462C239.212 41.6462 239.128 41.5997 239.001 41.4368C238.542 40.8785 237.855 40.2736 237.103 39.7384C236.615 39.3894 236.615 39.3894 235.677 38.9241C235.376 38.7845 235.28 38.6915 235.327 38.5053C235.368 38.3425 235.541 38.1331 236.037 37.598C236.819 36.7837 236.998 36.6441 237.214 36.6441C237.67 36.6441 239.222 37.5282 240.282 38.3657C241.144 39.0405 241.385 39.3196 241.32 39.5756ZM233.47 49.2542C232.922 51.4179 230.96 52.7208 228.2 52.7208C225.584 52.7208 224.161 51.3249 224.686 49.2542C225.228 47.1137 227.482 45.5084 229.954 45.5084C230.53 45.5084 230.788 45.5316 231.737 45.6712C231.924 44.5545 232.035 44.1124 232.487 41.9487C232.599 41.5066 232.704 40.9017 232.845 40.1572C234.039 40.2736 234.94 40.4131 235.349 40.5993C235.523 40.6691 235.59 40.7854 235.543 40.9715C235.513 41.0879 235.466 41.1809 235.4 41.3438C235.157 41.8324 235.044 42.1814 234.885 42.8095C234.667 43.6704 234.368 45.1361 234.152 46.2762C235.667 47.0207 236.269 47.3929 237.239 48.3003C237.667 48.6958 237.806 48.9052 237.759 49.0913C237.7 49.324 237.527 49.5334 236.59 50.5803C236.184 51.0457 235.915 51.2551 235.747 51.2551C235.603 51.2551 235.603 51.2551 235.084 50.6501C234.686 50.1383 234.186 49.7428 233.47 49.2542ZM231.094 48.1142C230.673 47.8815 230.061 47.7419 229.413 47.7419C228.261 47.7419 227.333 48.277 227.127 49.0913C226.932 49.8591 227.529 50.3477 228.609 50.3477C229.881 50.3477 230.712 49.7195 231.024 48.4864C231.071 48.3003 231.118 48.1142 231.094 48.1142Z" stroke="black" stroke-width="2" stroke-linejoin="round" mask="url(#path-4-outside-1_473_8874)"/>
<path d="M254.27 42.5536L253.61 45.1594C253.245 46.6019 252.357 50.3942 252.128 51.4877C252.116 51.5342 252.105 51.5808 252.099 51.604C252.046 51.8134 251.956 51.9763 251.819 52.0461C251.615 52.1857 250.626 52.302 249.738 52.302C248.97 52.302 248.844 52.2322 248.961 51.7669C248.967 51.7436 248.973 51.7204 248.985 51.6738C249.186 51.0689 250.961 44.3451 251.656 41.5997C253.01 36.2486 253.351 34.713 253.471 33.3868C255.175 33.4799 255.92 33.573 256.581 33.7126C256.809 33.7591 256.899 33.8754 256.852 34.0616C256.817 34.2012 256.817 34.2012 256.621 34.5967C256.454 34.8759 256.329 35.1783 256.205 35.5738C256.193 35.6204 255.792 37.0163 255.025 39.7617C256.611 40.227 256.611 40.227 257.507 40.576C259.701 41.3903 260.921 41.972 262.775 43.0887C262.937 43.2051 263.004 43.3214 262.963 43.4842C262.904 43.7169 262.189 44.8337 261.628 45.5316C261.336 45.9272 261.187 46.0435 261.043 46.0435C260.947 46.0435 260.838 45.997 260.7 45.8806C258.731 44.3684 256.547 43.2283 254.27 42.5536ZM261.611 38.1098C261.515 38.1098 261.455 38.0633 261.418 37.9237C261.15 37.0861 260.751 36.2951 260.213 35.5738C260.129 35.4342 260.105 35.4342 260.122 35.3644C260.158 35.2249 260.313 35.0853 260.846 34.7828C261.246 34.5269 261.462 34.4338 261.582 34.4338C261.798 34.4338 261.967 34.6199 262.408 35.2481C262.988 36.0857 263.357 36.8069 263.304 37.0163C263.239 37.2723 261.947 38.1098 261.611 38.1098ZM266.111 35.504C266.076 35.6436 265.866 35.8065 265.22 36.1788C264.855 36.3881 264.61 36.5045 264.49 36.5045C264.418 36.5045 264.381 36.4579 264.303 36.2951C263.962 35.3644 263.587 34.6665 263.08 34.015C263.026 33.9452 262.995 33.8754 263.007 33.8289C263.054 33.6428 264.179 32.9913 264.467 32.9913C264.587 32.9913 264.713 33.0611 264.9 33.2705C265.474 33.9452 266.182 35.2249 266.111 35.504Z" stroke="black" stroke-width="2" stroke-linejoin="round" mask="url(#path-4-outside-1_473_8874)"/>
<path d="M287.955 41.5532C278.83 41.6695 277.132 41.7393 275.352 42.0418C275.304 42.0418 275.178 42.065 275.154 42.065C274.626 42.065 274.61 41.274 275.049 38.8776C276.178 39.0637 277.816 39.1335 282.28 39.1335C287.08 39.1335 288.376 39.1335 288.844 39.087C289.21 39.0637 289.288 39.0405 289.803 38.9009C289.989 38.8311 290.138 38.8078 290.283 38.8078C290.643 38.8078 290.889 38.9707 291.173 39.3662C291.639 40.0874 291.906 40.7389 291.835 41.0181C291.77 41.274 291.603 41.4601 291.238 41.7626C291.005 41.9254 290.832 42.1348 290.123 43.1353C287.649 46.5553 285.319 48.6493 282.045 50.3942C280.543 51.2085 278.219 52.1392 277.739 52.1392C277.403 52.1392 277.247 51.9996 276.956 51.5342C276.515 50.813 276.292 50.5571 275.702 50.2314C278.639 49.4403 281.47 48.1142 283.665 46.4623C285.327 45.2059 286.747 43.5773 287.955 41.5532ZM278.822 33.5497C280.335 33.7358 281.835 33.7824 285.291 33.7824C287.787 33.7824 287.787 33.7824 290.594 33.5962C290.69 33.5962 290.714 33.5962 290.882 33.5962C291.194 33.5962 291.255 33.8289 291.102 34.5269C291.032 34.8061 290.967 35.062 290.932 35.2946C290.92 35.3412 290.908 35.3877 290.908 35.3877C290.696 36.2253 290.541 36.4579 290.229 36.4579C290.133 36.4579 289.947 36.4347 289.731 36.4347C289.287 36.3881 287.499 36.3416 286.755 36.3416C283.155 36.3416 280.575 36.3881 279.13 36.5045C279.058 36.5045 278.986 36.5045 278.938 36.5045C278.314 36.5045 278.306 36.1555 278.822 33.5497Z" stroke="black" stroke-width="2" stroke-linejoin="round" mask="url(#path-4-outside-1_473_8874)"/>
<path d="M310.548 44.5545C313.532 42.5303 315.725 40.6923 317.989 38.389C309.607 38.5053 309.607 38.5053 306.794 38.6217C304.784 38.6915 304.784 38.6915 304.005 38.8311C303.885 38.8311 303.759 38.8543 303.711 38.8543C303.423 38.8543 303.29 38.7147 303.247 38.4123C303.172 37.7608 303.246 36.9 303.492 35.7367C305.101 35.9228 307.597 36.0159 310.645 36.0159C314.053 36.0159 317.185 35.9694 318.547 35.8996C319.159 35.853 319.41 35.8065 319.854 35.6669C320.087 35.5971 320.213 35.5738 320.381 35.5738C320.861 35.5738 321.241 35.9694 321.774 37.0861C322.071 37.7143 322.181 38.1331 322.117 38.389C322.052 38.6449 321.992 38.6915 321.513 38.9707C321.094 39.2033 320.849 39.4127 319.822 40.3433C317.008 42.9259 315.328 44.252 312.02 46.4157C313.107 47.8117 313.845 49.0681 313.774 49.3473C313.709 49.6032 313.309 49.9522 312.418 50.5338C311.784 50.9526 311.317 51.1853 311.149 51.1853C311.005 51.1853 310.902 51.1155 310.787 50.9061C309.788 48.975 309.45 48.4166 308.49 47.1835C307.337 45.6712 307.277 45.6247 305.107 43.5773C305.005 43.5075 304.986 43.3912 305.016 43.2749C305.063 43.0887 305.588 42.6234 306.39 42.0185C306.85 41.716 307.078 41.5764 307.222 41.5764C307.318 41.5764 307.408 41.5997 307.528 41.6928C308.395 42.2512 309.474 43.2981 310.548 44.5545Z" stroke="black" stroke-width="2" stroke-linejoin="round" mask="url(#path-4-outside-1_473_8874)"/>
</svg>
