<svg width="31" height="250" viewBox="0 0 31 250" fill="none" xmlns="http://www.w3.org/2000/svg">
<rect x="0.68425" y="0.68425" width="29.6315" height="248.632" fill="white" stroke="black" stroke-width="1.3685"/>
<path d="M18.5635 14.9262C17.8844 14.9828 16.3564 15.0583 15.9791 15.0583C14.9227 15.0583 14.6209 15.0206 14.5266 14.8885C14.3945 14.7187 14.2813 13.9453 14.2813 13.2473C14.2813 13.1907 14.2813 13.0964 14.2813 12.9644C15.0359 13.0398 15.6396 13.0775 16.6016 13.0775C17.3373 13.0775 17.7524 13.0587 18.5069 13.0021C18.4503 11.0402 18.3371 9.87062 18.1108 9.26697C18.3371 9.26697 18.5069 9.26697 18.6201 9.26697C19.2804 9.26697 20.0915 9.32356 20.5065 9.41788C20.6952 9.45561 20.7895 9.56879 20.7895 9.71971C20.7895 9.79517 20.7706 9.87062 20.7329 10.0027C20.6386 10.2668 20.582 10.6818 20.582 11.1723C20.582 11.4552 20.6009 12.3418 20.6009 12.5682C20.6009 12.6625 20.6009 12.6814 20.6009 12.7568C21.5441 12.6059 21.9968 12.5116 22.7891 12.2475C22.8646 12.2287 22.94 12.2098 23.0155 12.2098C23.1287 12.2098 23.1852 12.2664 23.223 12.3796C23.2984 12.5871 23.3739 13.3228 23.3739 13.7378C23.3739 14.0396 23.3173 14.1717 23.1664 14.2283C22.9211 14.3226 21.7704 14.5489 20.6574 14.6999C20.6763 15.2281 20.6763 15.511 20.6763 15.8129C20.6763 18.5859 20.3368 20.5666 19.5822 22.0569C18.9031 23.3963 17.4317 24.962 16.828 24.962C16.6582 24.962 16.5828 24.9243 16.3753 24.7356C15.7527 24.1886 15.6396 24.0942 14.9039 23.7547C16.2244 23.019 17.0732 22.2267 17.658 21.1514C18.2806 20.0007 18.6201 18.4161 18.6201 16.6806C18.6201 16.5486 18.6201 16.2279 18.6012 15.7751C18.5824 15.5865 18.5824 15.3035 18.5635 14.9262ZM9.54642 9.92722V9.71971C9.54642 9.60652 9.54642 9.53107 9.54642 9.45561C10.7349 9.66312 11.3385 9.83289 11.829 10.0781C11.961 10.1347 11.9988 10.2102 11.9988 10.3422C11.9988 10.4177 11.961 10.512 11.8856 10.6441C11.7158 10.9459 11.6592 11.1723 11.3762 12.4173C11.0178 14.0396 10.8292 15.8506 10.8292 17.8313C10.8292 18.8877 10.8669 19.4725 10.9801 20.4723L11.9799 18.4538C12.0931 18.85 12.244 19.1707 12.4704 19.4348C12.6213 19.6234 12.6401 19.68 12.6401 19.8309C12.6401 19.9818 12.6401 19.9818 12.2817 20.7741C11.8856 21.623 11.6592 22.3587 11.4517 23.3208C11.3951 23.6226 11.3385 23.717 11.2442 23.7547C11.0933 23.8301 10.4519 23.9245 10.0746 23.9245C9.81052 23.9245 9.71619 23.8679 9.6596 23.6981C9.20686 22.4153 8.82958 19.7743 8.82958 17.8879C8.82958 16.2656 9.03708 14.0208 9.37664 11.6627C9.48982 10.8893 9.54642 10.3234 9.54642 9.92722Z" fill="black"/>
<path d="M10.6971 42.1717C11.6215 42.0396 11.9422 41.9642 13.5079 41.5303C15.8848 40.87 17.6014 40.5682 18.8842 40.5682C21.5441 40.5682 23.1852 42.0208 23.1852 44.3788C23.1852 45.9256 22.4873 47.2839 21.1479 48.2459C20.0349 49.0571 17.3751 49.9626 16.0923 49.9626C15.9037 49.9626 15.8093 49.8871 15.7339 49.7174C15.4698 49.0571 15.168 48.5855 14.7718 48.1894C18.9219 47.7555 21.0347 46.435 21.0347 44.2845C21.0347 43.1903 20.1292 42.3414 18.9597 42.3414C16.9223 42.3414 14.6963 43.0206 12.3572 44.3222C12.1685 44.4165 12.0554 44.4731 11.9799 44.4731C11.6592 44.4731 11.131 43.5299 10.6971 42.1717Z" fill="black"/>
<path d="M10.8669 65.9272C12.5081 66.4366 14.3002 66.6818 16.2809 66.6818C17.3751 66.6818 18.0165 66.6441 19.2992 66.4554C19.3369 66.4554 19.3935 66.4554 19.4313 66.4554C19.5822 66.4554 19.6388 66.512 19.6765 66.6252C19.7142 66.8516 19.752 67.4175 19.752 68.0966C19.752 68.5305 19.7142 68.6814 19.601 68.7569C19.4501 68.8512 17.8089 68.9644 16.545 68.9644C14.8661 68.9644 13.4702 68.8323 11.9044 68.5305C10.8292 68.323 10.7726 68.2664 10.7726 67.6061C10.7726 67.1723 10.8103 66.4554 10.8669 65.9272ZM10.7726 74.8689C11.4517 76.7364 13.0174 77.5287 16.1112 77.5287C17.658 77.5287 19.3747 77.3023 21.0725 76.8685C21.1668 76.8307 21.2234 76.8307 21.28 76.8307C21.3931 76.8307 21.4497 76.9062 21.4875 77.076C21.5441 77.491 21.5818 78.0946 21.5818 78.7172C21.5818 79.0944 21.5441 79.2076 21.3743 79.2831C20.8084 79.5849 18.2617 79.8679 16.0734 79.8679C13.2249 79.8679 11.6026 79.3963 10.301 78.1701C9.67847 77.5853 9.05595 76.5666 9.05595 76.1516C9.05595 75.8687 9.22573 75.7555 10.7726 74.8689Z" fill="black"/>
<path d="M13.1872 92.7388C13.2815 92.7388 13.2815 92.7388 14.3945 93.0783C15.0736 93.2858 16.0923 93.4745 17.0166 93.5877C17.3939 93.6254 17.526 93.6442 18.4881 93.682C18.771 93.682 18.8465 93.7574 18.8465 93.9649C18.8465 94.5875 18.7144 95.6061 18.6012 95.7948C18.5635 95.908 18.4692 95.9457 18.3371 95.9457C17.9033 95.9457 16.3753 95.7382 15.4886 95.5495C13.9984 95.2477 12.6967 94.8704 12.4326 94.6629C12.3761 94.6063 12.3383 94.5309 12.3383 94.4554C12.3383 94.3045 12.7345 93.2858 12.9231 92.9274C13.0174 92.7765 13.074 92.7388 13.1872 92.7388ZM9.58415 98.4546C10.2821 98.398 10.6405 98.3037 13.1306 97.6812C14.3568 97.3605 15.168 97.2473 16.0546 97.2473C18.7333 97.2473 20.2802 98.8319 20.2802 101.548C20.2802 103.906 19.2615 105.812 17.2053 107.321C16.1112 108.132 14.4511 108.943 13.9041 108.943C13.6588 108.943 13.6022 108.887 13.2061 108.321C12.9231 107.887 12.6401 107.623 12.1685 107.283C14.3379 106.547 15.2434 106.076 16.2244 105.227C17.3562 104.227 17.9221 103.02 17.9221 101.586C17.9221 100.058 17.2053 99.1903 15.9414 99.1903C14.9227 99.1903 13.6022 99.5865 11.8856 100.417C11.6403 100.53 11.5083 100.624 11.1876 100.85C11.1121 100.888 11.0367 100.926 10.9612 100.926C10.6028 100.926 9.99916 99.8694 9.58415 98.4546Z" fill="black"/>
<path d="M14.4323 128.737V130.85C14.4323 132.02 14.4888 135.094 14.5266 135.981C14.5266 136.019 14.5266 136.057 14.5266 136.075C14.5266 136.245 14.4888 136.377 14.3945 136.434C14.2625 136.547 13.5079 136.641 12.8099 136.641C12.2063 136.641 12.0931 136.585 12.0931 136.207C12.0931 136.189 12.0931 136.17 12.0931 136.132C12.1308 135.642 12.1874 130.19 12.1874 127.964C12.1874 123.625 12.1497 122.38 11.9799 121.305C13.3381 121.38 13.9418 121.456 14.4888 121.569C14.6775 121.607 14.7718 121.701 14.7718 121.852C14.7718 121.965 14.7718 121.965 14.6963 122.286C14.6209 122.512 14.5832 122.757 14.5643 123.078C14.5643 123.116 14.5266 124.248 14.47 126.473C15.8093 126.851 15.8093 126.851 16.5828 127.134C18.4692 127.794 19.5445 128.266 21.2234 129.171C21.3743 129.265 21.4497 129.36 21.4497 129.492C21.4497 129.68 21.1102 130.586 20.8084 131.152C20.6574 131.473 20.5631 131.567 20.4499 131.567C20.3745 131.567 20.2802 131.529 20.1481 131.435C18.2994 130.209 16.3564 129.284 14.4323 128.737ZM19.3181 125.134C19.2426 125.134 19.186 125.096 19.1294 124.983C18.7522 124.304 18.2806 123.663 17.7146 123.078C17.6203 122.965 17.6014 122.965 17.6014 122.908C17.6014 122.795 17.6958 122.682 18.0542 122.437C18.3183 122.229 18.4692 122.154 18.5635 122.154C18.7333 122.154 18.9031 122.305 19.3747 122.814C19.9972 123.493 20.4311 124.078 20.4311 124.248C20.4311 124.455 19.5822 125.134 19.3181 125.134ZM22.3364 123.021C22.3364 123.135 22.2043 123.267 21.7704 123.568C21.5252 123.738 21.3554 123.833 21.2611 123.833C21.2045 123.833 21.1668 123.795 21.0725 123.663C20.6197 122.908 20.1858 122.342 19.6576 121.814C19.601 121.757 19.5633 121.701 19.5633 121.663C19.5633 121.512 20.3179 120.984 20.5443 120.984C20.6386 120.984 20.7518 121.041 20.9404 121.21C21.5252 121.757 22.3364 122.795 22.3364 123.021Z" fill="black"/>
<path d="M19.2049 155.926C12.0554 156.02 10.7349 156.077 9.3955 156.322C9.35777 156.322 9.26345 156.341 9.24459 156.341C8.82958 156.341 8.6598 155.7 8.52775 153.757C9.4521 153.908 10.7537 153.964 14.2625 153.964C18.0353 153.964 19.054 153.964 19.4124 153.926C19.6954 153.908 19.752 153.889 20.1292 153.776C20.2613 153.719 20.3745 153.7 20.4877 153.7C20.7706 153.7 20.997 153.832 21.2988 154.153C21.8082 154.738 22.1477 155.266 22.1477 155.492C22.1477 155.7 22.0534 155.851 21.827 156.096C21.6761 156.228 21.5818 156.398 21.2234 157.209C19.9595 159.982 18.5447 161.68 16.3187 163.094C15.3 163.755 13.6588 164.509 13.2815 164.509C13.0174 164.509 12.8665 164.396 12.5458 164.019C12.0554 163.434 11.829 163.226 11.3008 162.962C13.4513 162.321 15.4132 161.246 16.8091 159.906C17.8655 158.888 18.6578 157.567 19.2049 155.926ZM10.433 149.437C11.6592 149.588 12.8477 149.625 15.5641 149.625C17.526 149.625 17.526 149.625 19.6954 149.474C19.7708 149.474 19.7897 149.474 19.9217 149.474C20.167 149.474 20.2613 149.663 20.2802 150.229C20.2802 150.455 20.2802 150.663 20.299 150.852C20.299 150.889 20.299 150.927 20.299 150.927C20.299 151.606 20.2236 151.795 19.9783 151.795C19.9029 151.795 19.752 151.776 19.5822 151.776C19.2238 151.738 17.8089 151.7 17.2242 151.7C14.3945 151.7 12.3761 151.738 11.2631 151.833C11.2065 151.833 11.1499 151.833 11.1121 151.833C10.6217 151.833 10.5462 151.55 10.433 149.437Z" fill="black"/>
<path d="M15.3 186.36C17.243 184.718 18.6012 183.228 19.9217 181.361C13.357 181.455 13.357 181.455 11.1687 181.549C9.60301 181.606 9.60301 181.606 9.01822 181.719C8.9239 181.719 8.82958 181.738 8.79185 181.738C8.56548 181.738 8.43343 181.625 8.33911 181.379C8.15046 180.851 8.03728 180.153 7.99955 179.21C9.30118 179.361 11.2819 179.436 13.6777 179.436C16.3564 179.436 18.8087 179.399 19.8651 179.342C20.3368 179.304 20.5254 179.267 20.8461 179.153C21.0159 179.097 21.1102 179.078 21.2422 179.078C21.6195 179.078 21.9968 179.399 22.6382 180.304C22.9966 180.813 23.1664 181.153 23.1664 181.361C23.1664 181.568 23.1287 181.606 22.808 181.832C22.525 182.021 22.3741 182.191 21.7516 182.945C20.0538 185.039 18.9974 186.114 16.828 187.869C17.9599 189.001 18.7899 190.019 18.7899 190.246C18.7899 190.453 18.5447 190.736 17.9599 191.208C17.5448 191.547 17.2242 191.736 17.0921 191.736C16.9789 191.736 16.8846 191.679 16.7526 191.509C15.583 189.944 15.2057 189.491 14.2059 188.491C12.9986 187.265 12.942 187.227 10.8292 185.567C10.7349 185.511 10.6971 185.416 10.6971 185.322C10.6971 185.171 11.0178 184.794 11.5272 184.303C11.829 184.058 11.9799 183.945 12.0931 183.945C12.1685 183.945 12.244 183.964 12.3572 184.039C13.1495 184.492 14.2059 185.341 15.3 186.36Z" fill="black"/>
<path d="M10.999 210.568C10.1689 210.662 9.58415 210.719 8.43343 210.813C8.3957 210.813 8.35797 210.813 8.32024 210.813C8.22592 210.832 8.15046 210.832 8.11274 210.832C7.94296 210.832 7.84864 210.756 7.79204 210.511C7.67886 210.04 7.6034 209.474 7.56567 208.738C7.82977 208.757 8.03728 208.757 8.16933 208.757C9.188 208.757 10.3764 208.681 11.3762 208.549C11.5649 207.304 11.6592 206.361 11.6592 205.569C11.6592 205.474 11.6592 205.324 11.6592 205.135C13.8475 205.437 14.2625 205.55 14.2436 205.889C14.2436 205.984 14.2059 206.04 14.1304 206.21C13.9041 206.644 13.8852 206.701 13.5834 208.191C14.3191 208.059 15.2623 207.814 15.6396 207.682C15.715 207.644 15.7339 207.644 15.7905 207.644C15.9603 207.644 15.998 207.719 16.1489 208.38C16.2244 208.757 16.2998 209.285 16.2998 209.436C16.2998 209.568 16.2432 209.643 16.0734 209.681C15.7339 209.794 15.7339 209.794 13.1495 210.247C12.2817 214.095 11.3762 216.906 9.9237 220.302C9.82938 220.547 9.73506 220.641 9.62187 220.641C9.37664 220.641 8.71639 220.377 8.07501 220.019C7.75432 219.849 7.65999 219.774 7.65999 219.66C7.65999 219.585 7.71659 219.453 7.81091 219.264C9.24459 216.548 10.2821 213.662 10.999 210.568ZM19.6576 205.852H19.7142C19.9595 205.852 21.5629 207.644 21.5629 207.927C21.5629 208.002 21.4309 208.172 21.28 208.285C21.2045 208.342 21.0913 208.436 20.9593 208.549C20.7895 208.7 20.7329 208.738 20.5443 208.813C20.4877 208.832 20.4877 208.832 20.4499 208.851C20.3745 208.851 20.3745 208.832 20.0161 208.285C19.6954 207.795 19.0917 207.04 18.771 206.757C18.7333 206.72 18.6767 206.644 18.6767 206.625C18.7144 206.55 18.7333 206.512 18.7333 206.512C18.8276 206.399 19.1483 206.135 19.2238 206.078C19.4124 205.984 19.5256 205.908 19.5445 205.889C19.5633 205.852 19.5822 205.852 19.601 205.852H19.6576ZM15.583 216.529C15.7905 217.321 16.0168 217.68 16.4885 217.981C17.0355 218.34 17.8278 218.51 18.9408 218.51C20.167 218.51 21.2234 218.396 21.827 218.208C21.9779 218.17 22.0157 218.151 22.0911 218.151C22.2609 218.151 22.3364 218.208 22.393 218.378C22.525 218.774 22.6193 219.547 22.6193 220.132C22.6193 220.377 22.5439 220.472 22.2986 220.528C21.6761 220.66 20.6197 220.736 19.5067 220.736C17.1487 220.736 15.8282 220.358 14.9604 219.453C14.6398 219.113 14.3757 218.698 14.2247 218.227C14.1116 217.944 14.0361 217.623 14.0361 217.51C14.0361 217.189 14.602 216.85 15.583 216.529ZM23.4116 206.644C23.4116 206.757 23.2796 206.889 22.9023 207.172C22.6382 207.361 22.4495 207.474 22.3552 207.474C22.2798 207.474 22.242 207.436 22.1477 207.285C21.7327 206.606 21.3366 206.116 20.714 205.493C20.6574 205.437 20.6386 205.399 20.6386 205.342C20.6386 205.173 21.3554 204.644 21.6007 204.644C21.7327 204.644 21.9591 204.833 22.3741 205.267C22.9777 205.889 23.4116 206.455 23.4116 206.644ZM21.9402 212.511C21.9025 212.511 21.8459 212.511 21.7893 212.492C21.412 212.435 20.6197 212.398 19.9595 212.398C18.5635 212.398 17.9787 212.454 16.3187 212.737C16.2809 212.756 16.2244 212.756 16.1866 212.756C16.0734 212.756 16.0168 212.718 15.9791 212.605C15.9225 212.473 15.8471 211.549 15.8471 211.153C15.8471 210.907 15.8848 210.794 16.0357 210.738C16.1112 210.7 16.2244 210.681 16.6205 210.606C17.9033 210.379 18.9785 210.285 20.299 210.285C21.3931 210.285 21.9591 210.323 22.0911 210.417C22.1854 210.492 22.2043 210.643 22.2043 211.266C22.2043 211.813 22.1666 212.303 22.1289 212.417C22.11 212.473 22.0345 212.511 21.9402 212.511Z" fill="black"/>
<path d="M20.9215 232.154C22.6948 232.154 24.1096 233.588 24.1096 235.342C24.1096 237.115 22.6759 238.549 20.9215 238.549C19.1672 238.549 17.7335 237.115 17.7335 235.342C17.7335 233.588 19.1672 232.154 20.9215 232.154ZM20.9215 233.625C19.9783 233.625 19.2049 234.399 19.2049 235.342C19.2049 236.304 19.9783 237.078 20.9215 237.078C21.8648 237.078 22.6382 236.304 22.6382 235.342C22.6382 234.399 21.8648 233.625 20.9215 233.625Z" fill="black"/>
</svg>
