<svg width="31" height="138" viewBox="0 0 31 138" fill="none" xmlns="http://www.w3.org/2000/svg">
<rect x="0.68425" y="0.68425" width="29.6315" height="136.632" fill="white" stroke="black" stroke-width="1.3685"/>
<path d="M9.15041 17.907H9.86725C10.0936 16.3036 10.2068 15.2472 10.2068 14.4171C10.2068 14.3794 10.2068 14.2851 10.2068 14.1908C9.39564 15.134 9.07495 15.4735 8.18833 16.247C7.75446 15.5113 7.47149 15.1151 6.96216 14.5681C8.49016 13.4739 9.62201 12.1346 10.4143 10.5123C10.6973 9.96519 10.8482 9.55018 10.9236 9.24835L13.0364 9.58791C12.8289 9.94633 12.7912 10.0218 12.6403 10.3425C12.4705 10.7009 12.4328 10.7764 12.2819 11.0593H20.8651C21.846 11.0593 22.4874 11.0216 23.1288 10.9461V12.9835C22.4497 12.908 21.8272 12.8703 20.8651 12.8703H11.2066C10.8293 13.3985 10.6595 13.606 10.3766 13.9833C10.6407 14.0021 10.6407 14.0021 11.5839 14.021H19.9219C20.6764 14.021 21.1858 14.0021 21.5819 13.9644C21.5253 14.3983 21.5253 14.3983 21.431 16.5488C21.431 16.6997 21.4122 17.0393 21.3556 17.907H21.9403C22.7326 17.907 23.2231 17.8882 23.6759 17.8127V19.7746C23.1477 19.718 22.7138 19.6991 21.9026 19.6991H21.2424C21.1669 20.6612 21.1103 21.2649 21.0349 21.8874H21.3556C22.1856 21.8874 22.6195 21.8685 22.9967 21.8119V23.7361C22.5817 23.6795 22.0913 23.6606 21.2801 23.6606H20.7708C20.4878 25.0377 20.2992 25.4904 19.8087 25.8489C19.4314 26.1318 18.9032 26.2262 17.8091 26.2262C17.5073 26.2262 17.0922 26.2073 16.2622 26.1318C16.2245 25.4339 16.1302 24.9057 15.9038 24.2454C16.8093 24.3775 17.3375 24.434 17.7525 24.434C18.375 24.434 18.5825 24.2831 18.7334 23.6606H10.735C10.6407 24.0002 10.5841 24.1888 10.452 24.6793L8.35811 24.5095C8.88631 23.0192 9.33905 21.2837 9.58429 19.6991H8.96177C8.09401 19.6991 7.60354 19.718 7.16966 19.7935V17.8127C7.679 17.8882 8.18833 17.907 9.15041 17.907ZM11.1312 21.8874H13.9796C14.0174 21.661 14.0174 21.661 14.0928 21.2649C14.1494 20.9253 14.206 20.5292 14.3192 19.6991H11.5462C11.3764 20.6989 11.3009 21.1139 11.1312 21.8874ZM11.8103 17.907H14.5456C14.6022 17.5486 14.6588 16.8506 14.7342 15.8131H12.0744C11.9612 16.7752 11.9423 16.9072 11.8103 17.907ZM15.8849 21.8874H19.0541C19.1862 20.8687 19.2239 20.4726 19.2805 19.6991H16.2056C16.0736 20.7178 16.0736 20.7178 15.8849 21.8874ZM16.4131 17.907H19.4125C19.4314 17.3411 19.4314 17.3411 19.5069 15.8131H16.5829C16.4886 17.3034 16.4886 17.3034 16.4131 17.907Z" fill="black"/>
<path d="M9.15041 51.8115V40.21C9.15041 39.5121 9.11268 38.8707 9.05609 38.267C9.60315 38.3425 10.2068 38.3613 11.0746 38.3613H19.8464C20.7142 38.3613 21.2612 38.3425 21.7894 38.267C21.714 38.9461 21.6951 39.4932 21.6951 40.1346V51.8115C21.6951 52.7359 21.714 53.3395 21.7894 54.0186H19.6201V52.9245H11.2066V54.0186H9.03722C9.11268 53.3584 9.15041 52.6793 9.15041 51.8115ZM11.2066 40.2855V44.4922H19.6201V40.2855H11.2066ZM11.2066 46.3975V51.0192H19.6201V46.3975H11.2066Z" fill="black"/>
<path d="M10.6973 71.1717C11.6216 71.0397 11.9423 70.9642 13.508 70.5303C15.8849 69.8701 17.6016 69.5683 18.8843 69.5683C21.5442 69.5683 23.1854 71.0208 23.1854 73.3788C23.1854 74.9257 22.4874 76.2839 21.1481 77.246C20.0351 78.0572 17.3752 78.9626 16.0924 78.9626C15.9038 78.9626 15.8095 78.8872 15.734 78.7174C15.4699 78.0572 15.1681 77.5856 14.7719 77.1894C18.9221 76.7555 21.0349 75.435 21.0349 73.2845C21.0349 72.1904 20.1294 71.3415 18.9598 71.3415C16.9225 71.3415 14.6965 72.0206 12.3573 73.3222C12.1687 73.4166 12.0555 73.4732 11.98 73.4732C11.6593 73.4732 11.1312 72.5299 10.6973 71.1717Z" fill="black"/>
<path d="M16.9602 97.4362C14.489 97.8512 11.8857 98.3417 10.452 98.7001C9.96157 98.8133 9.79179 98.8699 9.11268 99.1151C8.86744 99.2094 8.7354 99.2472 8.62221 99.2472C8.2072 99.2472 7.82991 98.4737 7.49036 96.8514C8.69767 96.7948 9.13154 96.7382 11.2255 96.4175C13.4892 96.078 16.3565 95.6441 17.8657 95.4555C19.5635 95.2291 20.9217 95.0027 21.6385 94.8518C21.7706 94.8141 21.8272 94.8141 21.9215 94.8141C22.1667 94.8141 22.261 94.9273 22.4308 95.3989C22.5817 95.795 22.6949 96.3609 22.6949 96.625C22.6949 96.8514 22.6195 96.9269 22.3554 96.9269C21.9592 96.9269 21.6008 96.9646 21.2424 97.0212C18.0543 97.5494 15.5076 100.341 15.5076 103.284C15.5076 105.491 17.2432 106.944 20.186 107.208C20.4501 107.227 20.5444 107.321 20.5444 107.547C20.5444 108.019 20.3558 108.925 20.186 109.34C20.0917 109.547 19.9407 109.641 19.6955 109.641C19.4503 109.641 18.8843 109.528 18.2996 109.358C15.0926 108.415 13.4137 106.378 13.4137 103.492C13.4137 101.926 13.9231 100.473 14.904 99.2283C15.4322 98.5492 15.8849 98.1719 16.9602 97.4362Z" fill="black"/>
<path d="M18.4693 122.493C18.4693 122.342 18.5259 122.286 19.3371 121.512C19.6578 121.211 19.771 121.135 19.903 121.135C20.1294 121.135 21.2801 121.965 22.1101 122.757C23.0533 123.625 24.1097 124.908 24.1097 125.172C24.1097 125.342 24.072 125.38 23.5249 125.87C22.827 126.511 22.6572 126.644 22.5251 126.644C22.3931 126.644 22.2988 126.568 22.2044 126.379C21.5631 125.229 19.9973 123.606 18.6957 122.776C18.5448 122.682 18.4693 122.588 18.4693 122.493Z" fill="black"/>
</svg>
