<svg width="68" height="430" viewBox="0 0 68 430" fill="none" xmlns="http://www.w3.org/2000/svg">
<rect width="34" height="430" fill="white"/>
<rect x="31" width="34" height="289" fill="white"/>
<path fill-rule="evenodd" clip-rule="evenodd" d="M14.5841 18.4948C14.2799 17.0318 13.9757 15.9488 13.6336 15.2458C14.4885 15.0748 15.3055 14.9988 16.0465 14.9988C16.4265 14.9988 16.5595 15.0938 16.5596 15.3598C16.5596 15.4358 16.5596 15.4928 16.5026 15.6828C16.4837 15.7968 16.4647 15.9298 16.4647 16.0628C16.4648 16.4238 16.5028 16.7278 16.7501 18.1148C18.707 17.7918 20.265 17.4688 21.0629 17.2218C21.1959 17.1648 21.2339 17.1648 21.3479 17.1648C21.4809 17.1648 21.5379 17.2788 21.614 17.6398C21.6901 18.0008 21.8422 18.9698 21.8423 19.1218C21.8423 19.3688 21.7663 19.3878 21.0253 19.4638C20.3413 19.5208 19.9613 19.5778 17.1114 20.0718L17.1122 20.0758C17.3224 21.1627 17.3957 21.5417 17.4685 21.9207L17.6059 22.6368L18.4419 22.4848C20.3418 22.1428 21.6338 21.8578 22.5077 21.5918C22.8117 21.4968 23.0017 21.4398 23.0587 21.4398C23.2107 21.4398 23.2677 21.5158 23.3247 21.7058C23.4768 22.1998 23.667 23.1308 23.667 23.4158C23.6671 23.5868 23.6291 23.6058 23.0591 23.7008C22.7553 23.7577 22.7551 23.7578 22.1292 23.8716L22.1281 23.8718L22.1277 23.8719C21.8729 23.9143 21.6814 23.9462 21.4901 23.9787C20.9109 24.0768 20.3326 24.1797 18.0054 24.5937L18.0052 24.5938C18.4997 26.9688 18.4997 26.9688 19.1841 29.7237L19.1842 29.7238C19.2222 29.8758 19.2412 29.9898 19.2412 30.0278C19.2413 30.2178 19.1653 30.2748 18.8423 30.3888C18.3103 30.5788 17.3224 30.7878 17.0564 30.7878C16.8664 30.7878 16.8284 30.7308 16.7713 30.3698C16.6562 29.5816 16.4133 28.2116 16.0303 26.0513L15.8393 24.9738C11.9634 25.6958 11.6595 25.7718 10.5765 26.1518C10.3295 26.2278 10.2535 26.2468 10.1585 26.2468C10.0065 26.2468 9.91153 26.1708 9.81649 25.9618C9.58841 25.4868 9.3983 24.8788 9.17013 23.9478C10.1581 23.9098 11.2031 23.7578 15.478 23.0358C15.3682 22.4876 15.2761 22.0141 15.1952 21.5984C15.1078 21.1496 15.0336 20.7681 14.9645 20.4328C11.5066 21.0408 11.5066 21.0408 10.5377 21.3258C10.3857 21.3828 10.3477 21.3828 10.3097 21.3828C10.0057 21.3828 10.0057 21.3828 9.45427 19.1788C10.4993 19.1408 10.4993 19.1408 14.5841 18.4948ZM22.8172 52.1338C23.0264 52.8368 23.1974 53.2168 23.6916 54.1858C23.7866 54.3758 23.8247 54.5088 23.8247 54.6228C23.8247 54.8128 23.7487 54.9458 23.5018 55.2878C22.457 56.6558 21.3362 57.7578 19.6455 59.0688C17.7457 60.5508 16.1309 61.5388 13.8511 62.6218C12.3882 63.3058 12.3123 63.3438 12.0843 63.5528C11.9323 63.7048 11.8563 63.7428 11.7423 63.7428C11.5713 63.7428 11.4193 63.5908 11.1342 63.1728C10.7541 62.6028 10.393 61.8238 10.1839 61.1588C12.1028 60.7218 14.4016 59.6958 16.6243 58.2898C19.55 56.4468 21.3927 54.6228 22.8172 52.1338ZM10.2012 52.2478C10.2012 52.0768 10.5621 51.5448 11.037 50.9938C11.36 50.6328 11.4929 50.5378 11.6639 50.5378C12.0249 50.5568 13.4501 51.4688 14.6283 52.4188C15.3504 53.0078 15.5784 53.2548 15.5785 53.4448C15.5785 53.5778 15.2366 54.0908 14.7807 54.6038C14.3628 55.0788 14.1538 55.2498 14.0018 55.2498C13.8688 55.2498 13.8688 55.2498 13.0897 54.5088C12.5956 54.0338 11.6074 53.2358 11.1134 52.9318C10.5558 52.5654 10.4657 52.5062 10.3727 52.4518C10.355 52.4415 10.3371 52.4313 10.3159 52.4191L10.3153 52.4188C10.2393 52.3618 10.2013 52.3048 10.2012 52.2478ZM14.7487 87.6918L19.5556 87.6728C19.4797 87.8296 19.4156 87.9626 19.3595 88.0789C19.1912 88.428 19.0951 88.6275 18.9669 88.8698C18.1312 90.4658 17.1814 91.7578 15.8326 93.1068C13.933 95.0258 11.9952 96.3558 9.22146 97.6858C9.96253 98.0848 10.4756 98.4458 10.7987 98.7878C10.9697 98.9778 11.1027 99.0538 11.2547 99.0538C11.6157 99.0538 13.3445 98.0468 14.6553 97.0588C17.6759 94.8168 19.6515 92.4798 21.7028 88.7748C21.8928 88.4328 22.1397 88.0718 22.2917 87.9198C22.5576 87.6538 22.6146 87.5588 22.6146 87.3498C22.6146 87.1408 22.5195 86.9508 22.1584 86.4948C21.6073 85.7918 21.2843 85.5068 20.9803 85.5068C20.9173 85.5068 20.8674 85.5198 20.8089 85.5351L20.7713 85.5448C20.2013 85.7538 20.0113 85.7728 18.9853 85.7728L16.1543 85.7538C16.6482 85.0698 16.8381 84.8418 17.0281 84.6898C17.1991 84.5758 17.2561 84.4618 17.256 84.3288C17.256 84.1578 17.161 84.0438 16.895 83.8918C16.2679 83.5498 15.7739 83.3218 14.8428 83.0178C14.1781 84.6898 13.5133 85.7918 12.3925 87.1218C11.3478 88.3568 9.96098 89.4968 8.61211 90.2188C9.23917 90.5798 9.73324 90.9218 10.0183 91.1688C10.3983 91.4918 10.4743 91.5298 10.6453 91.5298C11.1963 91.5298 13.438 89.4398 14.7487 87.6918ZM24.6471 84.6708C24.7231 84.8228 24.7801 84.8608 24.8561 84.8608C24.9701 84.8608 25.2551 84.6898 25.5591 84.4618C25.787 84.2908 25.844 84.1958 25.844 84.1008C25.844 84.0058 25.6729 83.7208 25.4069 83.3788C24.7607 82.5428 24.2666 82.0678 24.0576 82.0488C23.9246 82.0488 23.8106 82.0868 23.5637 82.2768C23.2407 82.5048 23.1457 82.5998 23.1458 82.6948C23.1458 82.7328 23.1648 82.7708 23.2408 82.8468C23.7539 83.3408 24.191 83.8918 24.6471 84.6708ZM23.7923 85.6398C23.9633 85.4878 24.0202 85.4118 24.0202 85.2788C24.0202 85.1458 23.6591 84.6328 23.146 84.0438C22.5759 83.3978 22.3478 83.2078 22.1958 83.2078C21.9868 83.2078 21.2649 83.7398 21.265 83.8918C21.265 83.9488 21.284 83.9868 21.36 84.0628C21.7971 84.4998 22.2532 85.0888 22.5573 85.6018C22.8337 86.0623 22.8868 86.1508 22.9571 86.1677C22.9738 86.1718 22.9915 86.1718 23.0134 86.1718C23.1274 86.1718 23.3743 86.0008 23.7923 85.6398ZM23.9694 119.507C23.9694 119.64 23.9124 119.716 23.7415 119.868C23.3235 120.229 23.0766 120.4 22.9626 120.4C22.9407 120.4 22.923 120.4 22.9063 120.396C22.836 120.379 22.7829 120.29 22.5065 119.83C22.2024 119.317 21.7463 118.728 21.3092 118.291C21.2332 118.215 21.2142 118.177 21.2142 118.12C21.2141 117.968 21.936 117.436 22.145 117.436C22.297 117.436 22.5251 117.626 23.0952 118.272C23.6083 118.861 23.9694 119.374 23.9694 119.507ZM24.8053 119.089C24.7293 119.089 24.6723 119.051 24.5963 118.899C24.1402 118.12 23.7031 117.569 23.19 117.094C23.114 117.018 23.0949 116.98 23.0949 116.942C23.0949 116.847 23.1899 116.752 23.5129 116.524C23.7598 116.334 23.8738 116.296 24.0068 116.296C24.2158 116.315 24.7099 116.79 25.3561 117.607C25.6221 117.949 25.7932 118.234 25.7932 118.329C25.7932 118.443 25.7362 118.519 25.5083 118.69C25.2043 118.918 24.9193 119.089 24.8053 119.089ZM14.4888 121.445C13.615 122.585 12.5132 123.706 11.2403 124.751C10.6704 125.207 10.3665 125.397 10.2145 125.397C10.0625 125.397 10.0435 125.397 9.6824 125.017C9.34034 124.675 8.86527 124.333 8.33322 124.048C10.366 122.813 11.5818 121.711 12.7595 120.058C13.5573 118.937 14.1461 117.835 14.4499 116.79C16.464 117.55 16.9391 117.778 16.9391 118.044C16.9392 118.158 16.8822 118.215 16.6922 118.348C16.5022 118.481 16.2553 118.823 15.7424 119.602H16.0844C16.7494 119.621 17.2244 119.621 17.3384 119.621C19.1814 119.621 19.6564 119.583 20.2454 119.355C20.3974 119.298 20.4544 119.279 20.5684 119.279C20.8344 119.279 21.1004 119.488 21.6895 120.191C22.1646 120.723 22.2977 120.951 22.2977 121.16C22.2977 121.331 22.2408 121.426 22.0318 121.635C21.8798 121.787 21.6519 122.148 21.367 122.699C19.5816 125.948 18.2519 127.734 16.1052 129.672C14.4145 131.211 11.7358 133.016 11.1468 133.016C10.9758 133.016 10.8238 132.94 10.6718 132.788C10.1017 132.237 9.62664 131.895 9.0756 131.667C11.6974 130.394 13.7301 128.988 15.5348 127.164C15.4018 127.031 15.4018 127.031 14.9837 126.594C14.5846 126.176 14.1475 125.815 13.1784 125.093C13.0644 124.998 13.0264 124.941 13.0264 124.865C13.0264 124.77 13.2733 124.485 13.9382 123.801C14.2611 123.478 14.3371 123.421 14.4511 123.421C14.7551 123.421 15.8763 124.333 17.0165 125.492C18.1562 124.01 18.973 122.604 19.4287 121.388C17.2627 121.426 17.2628 121.426 14.4888 121.445ZM14.5718 163.007C14.2214 163.038 13.7983 163.076 13.3753 163.121C14.135 161.449 15.2365 158.599 15.8062 156.889L16.0307 156.18C16.5871 154.424 16.745 153.925 16.8126 153.773C16.9265 153.45 17.1355 153.032 17.2304 152.899C17.4394 152.652 17.4774 152.595 17.4774 152.5C17.4773 152.329 17.3063 152.215 16.9073 152.082C16.2803 151.873 15.5202 151.683 14.6082 151.531C14.5703 152.158 14.4944 152.633 14.2665 153.507C13.5831 156.319 12.2728 160.252 11.2662 162.437L11.2648 162.44C11.0003 163.026 11 163.026 10.8673 163.33L10.865 163.33C9.75348 163.404 9.51026 163.42 9.26684 163.424C9.19871 163.425 9.13056 163.425 9.04334 163.425L9.03531 163.425C9.00273 163.425 8.97016 163.423 8.53034 163.406C8.66351 164.356 8.85363 165.04 9.15773 165.61C9.25277 165.8 9.36678 165.876 9.51878 165.876C9.58174 165.876 9.63166 165.863 9.69014 165.847L9.72778 165.838C10.1457 165.667 10.4687 165.61 11.1147 165.534C14.4207 165.211 15.1236 165.116 17.7646 164.736C18.5436 164.622 19.7215 164.432 21.3175 164.147C21.5646 164.717 21.7927 165.268 21.9258 165.724C22.0208 165.99 22.1348 166.104 22.3058 166.104C22.4958 166.104 23.0468 165.895 23.6167 165.61C24.0537 165.382 24.2437 165.211 24.2436 165.04C24.2436 164.793 23.8064 163.71 23.2932 162.684C22.3429 160.822 21.1836 159.112 20.1954 158.105C20.0814 157.991 19.9864 157.953 19.8344 157.953C19.6444 157.953 19.5114 157.991 19.1694 158.181C18.4285 158.618 18.2195 158.77 18.2195 158.941C18.2195 159.036 18.2576 159.112 18.3336 159.207C19.0177 160.005 19.7019 161.05 20.4431 162.361C19.3222 162.551 17.4412 162.76 15.1803 162.95C15.0313 162.965 14.8208 162.984 14.5742 163.007L14.5718 163.007ZM21.1322 190.186H21.1702C21.4362 190.186 23.0515 191.991 23.0516 192.276C23.0516 192.371 22.9376 192.485 22.5956 192.789C22.2492 193.081 22.2178 193.092 22.0815 193.143L22.0637 193.15C21.9951 193.177 21.976 193.185 21.9564 193.187C21.9489 193.188 21.9413 193.188 21.9307 193.188C21.8547 193.188 21.8357 193.169 21.4936 192.637C21.1895 192.162 20.8665 191.744 20.2583 191.117C20.2203 191.079 20.1633 190.984 20.1633 190.965L20.1795 190.924C20.2071 190.854 20.2232 190.813 20.2393 190.813C20.2963 190.737 20.6192 190.471 20.6952 190.414C20.8852 190.319 20.9992 190.243 21.0182 190.224C21.0372 190.186 21.0752 190.186 21.0752 190.186H21.1322ZM24.9133 190.984C24.9133 191.098 24.7804 191.231 24.4194 191.497C24.1345 191.706 23.9635 191.82 23.8685 191.82C23.7925 191.82 23.7545 191.782 23.6594 191.63C23.0893 190.775 22.8042 190.414 22.1961 189.825C22.1581 189.768 22.1201 189.711 22.1201 189.673C22.1201 189.578 22.234 189.464 22.5 189.274C22.766 189.084 22.994 188.97 23.089 188.97C23.222 188.97 23.45 189.141 23.8491 189.54C24.4002 190.11 24.9133 190.813 24.9133 190.984ZM17.9969 188.419C15.5079 188.837 12.886 189.331 11.4421 189.692C10.9481 189.806 10.7771 189.863 10.0932 190.11C9.84618 190.205 9.71319 190.243 9.59919 190.243C9.18119 190.243 8.80105 189.464 8.45875 187.83C9.67474 187.773 10.1117 187.716 12.2207 187.393L12.7933 187.307C14.9655 186.981 17.5133 186.598 18.9085 186.424C20.6185 186.196 21.9864 185.968 22.7084 185.816C22.8414 185.778 22.8984 185.778 22.9934 185.778C23.2404 185.778 23.3354 185.892 23.5065 186.367C23.6586 186.766 23.7727 187.336 23.7727 187.602C23.7728 187.83 23.6968 187.906 23.4308 187.906C23.0318 187.906 22.6708 187.944 22.3098 188.001C19.0989 188.533 16.5344 191.345 16.5349 194.309C16.5353 196.532 18.2836 197.995 21.2476 198.261C21.5136 198.28 21.6087 198.375 21.6087 198.603C21.6088 199.078 21.419 199.99 21.248 200.408C21.1531 200.617 21.0011 200.712 20.7541 200.712C20.5071 200.712 19.9371 200.598 19.348 200.427C16.1179 199.477 14.4265 197.425 14.426 194.518C14.4257 192.941 14.9384 191.478 15.9262 190.224C16.4581 189.54 16.914 189.16 17.9969 188.419ZM21.2338 226.808H23.3808C24.0078 226.808 24.3688 226.827 24.7488 226.884L24.7485 225.041C24.3305 225.098 23.9315 225.117 23.1525 225.117H15.8185C15.828 224.685 15.8327 224.355 15.8374 224.021C15.8421 223.694 15.8468 223.364 15.8561 222.932L15.8557 221.013H22.6388C23.6267 221.013 24.1208 221.032 24.5578 221.089L24.5574 219.132C23.9684 219.208 23.3794 219.246 22.5244 219.246H16.1214C15.3614 219.246 14.5824 219.208 13.9744 219.151C14.0315 219.702 14.0506 220.215 14.0508 221.355C14.0522 229.088 13.7296 231.064 12.153 233.667C12.8181 234.199 13.1222 234.484 13.6733 235.149C14.3191 233.99 14.7369 233.002 15.0787 231.729C15.4584 230.323 15.6102 229.259 15.7428 226.808H16.7308L16.7319 232.85C15.7819 233.021 15.3449 233.078 14.7939 233.097L15.2313 235.111C15.6113 234.978 15.6683 234.959 16.0673 234.864C18.5181 234.275 19.5251 234.009 20.798 233.553L20.7977 231.786C19.7528 232.128 19.3918 232.242 18.5748 232.432L18.5738 226.808H19.5808C19.8662 228.936 20.1324 229.962 20.8546 231.444C21.5009 232.812 22.2991 233.838 23.7433 235.187C24.1042 234.522 24.4461 234.066 24.997 233.458C23.7238 232.546 23.0967 231.862 22.3935 230.646C22.8494 230.342 23.1154 230.152 23.4004 229.905C24.2271 229.235 24.4335 229.067 24.6375 228.897C24.7054 228.841 24.773 228.784 24.8631 228.708L23.5899 227.454C22.982 228.157 22.4881 228.575 21.7092 229.088C21.4811 228.347 21.405 227.986 21.2338 226.808ZM9.49123 223.673H10.1562L10.1569 227.169C9.20692 227.492 8.63695 227.644 8.04796 227.739L8.33333 229.753C8.44732 229.696 8.50431 229.677 8.61831 229.639C9.15028 229.468 9.56825 229.316 10.1572 229.088L10.1579 232.888C10.158 233.306 10.044 233.401 9.66399 233.401C9.30299 233.401 8.67598 233.344 8.18197 233.287C8.46712 234.123 8.52417 234.408 8.61931 235.168C9.51231 235.206 9.62631 235.206 9.93031 235.206C11.5833 235.206 12.0582 234.807 12.058 233.42L12.0571 228.309L12.2359 228.223C12.5662 228.066 12.811 227.949 13.4439 227.625L13.4436 225.782C13.2708 225.864 13.1236 225.934 12.9949 225.996L12.9923 225.997C12.5569 226.205 12.3351 226.311 12.0567 226.428L12.0562 223.673H12.6262C12.9682 223.673 13.2152 223.692 13.5572 223.73L13.5569 221.849C13.2719 221.887 13.0249 221.906 12.6069 221.906H12.0559L12.0556 220.367C12.0555 219.493 12.0744 219.075 12.1503 218.524H10.0413C10.1174 219.056 10.1555 219.512 10.1556 220.367L10.1559 221.906H9.50991C8.95891 221.906 8.63591 221.887 8.21789 221.811L8.21824 223.749C8.67423 223.692 9.03523 223.673 9.49123 223.673ZM23.7983 223.958L23.798 222.172C23.437 222.229 23.095 222.248 22.468 222.248H17.737C17.129 222.248 16.825 222.229 16.521 222.191L16.5213 223.939C16.9013 223.901 17.1483 223.882 17.7373 223.882H22.4873C23.0573 223.882 23.4563 223.901 23.7983 223.958ZM20.8777 254.006L20.8777 254.063L20.8777 254.196L20.8778 254.386C20.8893 254.432 20.8938 254.505 20.8998 254.603C20.9038 254.666 20.9083 254.74 20.9159 254.823C20.9349 255.127 20.9349 255.127 20.973 255.601L20.973 255.602C20.973 255.65 20.973 255.687 20.9735 255.723C20.975 255.848 20.9818 255.972 21.0112 256.514C21.0683 257.426 21.1065 258.338 21.1066 258.794C21.1072 262.366 20.1767 265.14 18.2011 267.477C17.4413 268.37 16.7764 268.883 16.3964 268.883C16.1684 268.883 16.1494 268.883 15.7503 268.579C15.3893 268.294 14.8953 268.047 14.4012 267.914C15.7311 266.964 16.4529 266.299 17.1558 265.292C18.3334 263.601 18.9031 261.587 18.9026 259.136C18.9022 256.533 18.7309 254.937 18.2937 253.778C19.0917 253.683 19.6806 253.645 20.2316 253.645C20.8016 253.645 20.8777 253.683 20.8777 254.006ZM13.6968 260.124L13.6969 260.124C13.8678 259.82 13.8678 259.82 13.9817 259.611C14.0767 259.459 14.0767 259.459 14.9124 258.053C15.0265 258.376 15.1405 258.585 15.3686 258.889C15.5016 259.098 15.5587 259.212 15.5587 259.326C15.5587 259.44 15.5207 259.535 15.0648 260.276C14.7419 260.846 14.1912 262.024 13.9633 262.594C13.7734 263.126 13.6974 263.164 13.0704 263.164C12.4244 263.164 11.9494 263.088 11.8733 262.974C11.7593 262.822 11.6831 261.796 11.6829 260.39C11.6825 258.528 11.8153 257.217 12.3087 253.911C12.3656 253.531 12.3846 253.341 12.3845 252.923C13.8666 253.189 14.8356 253.626 14.8357 253.987C14.8357 254.082 14.8167 254.139 14.6838 254.31C14.4368 254.671 14.2849 255.165 14.0951 256.172C13.8673 257.445 13.6966 259.117 13.6968 260.124ZM16.0967 292.642H16.4007C16.7999 293.877 16.952 294.219 17.4271 294.998C17.8072 295.644 18.1303 296.062 18.7004 296.708C17.5036 297.734 16.7247 298.209 15.1478 298.855C15.7369 299.463 15.889 299.672 16.3831 300.489C18.112 299.634 18.8909 299.121 20.0877 298.019C21.4179 299.083 22.387 299.653 24.1541 300.394C24.363 299.767 24.7049 299.064 25.0658 298.513C23.3936 297.905 22.5006 297.468 21.3984 296.651C22.3862 295.473 22.956 294.466 23.6207 292.756C23.7726 292.357 23.9436 292.015 24.0576 291.844L23.0504 290.837C22.6324 290.913 22.1954 290.932 21.3974 290.932H16.1724C16.1913 290.362 16.1912 290.096 16.191 288.937H22.613C23.411 288.937 24.019 288.975 24.608 289.032L24.6077 287.056C23.9997 287.132 23.3347 287.17 22.5177 287.17H16.3427C15.3737 287.17 14.8227 287.151 14.2147 287.075C14.2908 287.702 14.3099 288.139 14.3101 289.583C14.3107 292.585 14.1211 294.637 13.6654 296.366C13.4186 297.373 13.1906 297.848 12.6208 298.703C13.2859 299.235 13.6089 299.558 14.0841 300.223C14.7869 299.083 15.1097 298.342 15.4135 297.259C15.7933 295.967 15.9261 295.017 16.0967 292.642ZM18.2817 292.642H21.6637C21.2079 293.763 20.809 294.428 19.9922 295.416C19.213 294.599 18.7189 293.801 18.2817 292.642ZM9.82563 286.771L8.36288 288.139C9.7501 289.374 10.3582 290.039 11.4605 291.54L12.9802 290.077C12.068 288.861 11.1939 287.968 9.82563 286.771ZM8.21183 293.402L8.21219 295.397C8.68718 295.321 8.95318 295.302 9.44718 295.302H10.4352L10.4359 299.235C9.60003 300.014 8.53616 300.736 7.81421 301.021L8.70759 303.111C8.89555 302.952 9.08352 302.804 9.20448 302.708L9.20477 302.708L9.20558 302.708L9.20964 302.704L9.21048 302.704C9.24576 302.676 9.27502 302.653 9.2965 302.636C10.2654 301.933 10.6263 301.648 11.4242 300.869C12.7735 302.617 14.0086 302.959 19.1006 302.959C20.3356 302.959 23.0716 302.902 24.7245 302.845C24.8384 302.066 24.9903 301.439 25.2752 300.679C23.3562 300.945 21.0952 301.059 17.3522 301.059C15.3952 301.059 14.4452 300.945 13.6851 300.603C13.1341 300.337 12.811 300.052 12.3549 299.311L12.3542 295.416C12.354 294.428 12.3729 293.972 12.4298 293.421C11.9738 293.478 11.5748 293.497 11.0238 293.497H9.67485C8.95285 293.497 8.68685 293.478 8.21183 293.402ZM14.4122 328.561C15.4381 327.953 15.875 327.725 16.35 327.554C17.091 327.25 18.0789 327.06 18.7629 327.06C21.6699 327.06 23.5702 328.732 23.5707 331.259C23.571 332.988 22.6783 334.546 21.1584 335.515C19.9236 336.275 17.6437 336.864 15.8387 336.864C15.5481 336.864 15.4057 336.864 15.3132 336.796C15.2242 336.73 15.1815 336.602 15.0976 336.351C14.9455 335.895 14.6414 335.42 14.2614 335.04C16.8643 334.888 17.6813 334.755 18.8782 334.223C20.4551 333.558 21.2719 332.513 21.2717 331.221C21.2714 329.777 20.2262 328.789 18.6682 328.789C16.6162 328.789 14.2224 329.929 12.1708 331.886C11.8858 332.171 11.7339 332.323 11.088 333.102C10.917 333.33 10.7841 333.406 10.6701 333.406C10.3281 333.406 9.11182 332.038 9.11174 331.639C9.11172 331.525 9.14971 331.468 9.43467 331.221C10.8025 330.024 14.2218 326.395 16.6533 323.545C14.7723 323.773 13.1574 324.058 12.4354 324.305C12.0934 324.438 11.9984 324.457 11.9224 324.457C11.7514 324.457 11.6754 324.362 11.5614 324.02C11.3713 323.507 11.2191 322.747 11.143 322.006C11.39 322.044 11.58 322.063 11.884 322.063C13.727 322.063 17.6599 321.607 18.3249 321.303C18.5529 321.208 18.6289 321.189 18.7429 321.189C19.0659 321.189 19.4269 321.474 19.959 322.139C20.3011 322.538 20.4341 322.766 20.4342 322.899C20.4342 323.089 20.3202 323.222 20.0353 323.374C19.7883 323.526 19.5983 323.659 19.3323 323.887C18.9352 324.194 18.7782 324.346 17.6228 325.469L17.6215 325.47L17.4327 325.654C15.7048 327.344 15.704 327.345 14.414 328.559L14.4122 328.561ZM15.443 355.037C14.3219 354.695 14.3219 354.695 14.2269 354.695C14.1129 354.695 14.0559 354.733 13.9609 354.885C13.771 355.246 13.3722 356.272 13.3722 356.424C13.3722 356.5 13.4103 356.576 13.4673 356.633C13.7333 356.842 15.0444 357.222 16.5454 357.526C17.4385 357.716 18.9775 357.925 19.4145 357.925C19.5475 357.925 19.6425 357.887 19.6805 357.773C19.7944 357.583 19.9272 356.557 19.9271 355.93C19.9271 355.721 19.8511 355.645 19.5661 355.645C18.679 355.61 18.4925 355.591 18.1758 355.559H18.1755L18.0841 355.55C17.153 355.436 16.127 355.246 15.443 355.037ZM13.8941 359.742L13.8927 359.742C11.6349 360.307 11.2751 360.397 10.599 360.452C11.0172 361.877 11.6254 362.941 11.9864 362.941C12.0624 362.941 12.1384 362.903 12.2144 362.865L12.2317 362.853C12.5422 362.633 12.6748 362.54 12.9173 362.428C14.6462 361.592 15.9761 361.193 17.0021 361.193C18.2751 361.193 18.9972 362.067 18.9975 363.606C18.9978 365.05 18.428 366.266 17.2882 367.273C16.3003 368.128 15.3884 368.603 13.2036 369.344C13.6786 369.686 13.9637 369.952 14.2487 370.389C14.6479 370.959 14.7049 371.016 14.9519 371.016C15.5029 371.016 17.1747 370.199 18.2766 369.382C20.3473 367.862 21.3729 365.943 21.3725 363.568C21.372 360.832 19.8137 359.236 17.1157 359.236C16.2227 359.236 15.4058 359.35 14.1708 359.673L13.8941 359.742ZM17.8621 389.151L17.3322 400.532H15.6412L15.1261 389.151H17.8621ZM16.4964 401.843C17.3324 401.843 17.9976 402.508 17.9977 403.344C17.9979 404.18 17.333 404.845 16.497 404.845C15.661 404.845 14.9959 404.18 14.9957 403.344C14.9956 402.508 15.6604 401.843 16.4964 401.843ZM42.6273 17.186L42.6294 28.871C42.6296 29.745 42.5917 30.429 42.5158 31.094H44.7008L44.7006 29.992H53.1746L53.1748 31.094H55.3598C55.2837 30.41 55.2646 29.802 55.2644 28.871L55.2623 17.11C55.2622 16.464 55.2811 15.913 55.3569 15.229C54.825 15.305 54.274 15.324 53.4 15.324H44.565C43.691 15.324 43.083 15.305 42.5319 15.229C42.5891 15.837 42.6272 16.483 42.6273 17.186ZM44.6991 21.499L44.6983 17.262H53.1723L53.1731 21.499H44.6991ZM44.7003 28.073L44.6994 23.418H53.1734L53.1743 28.073H44.7003ZM47.8772 49.799L47.8774 50.92H46.5854C46.0912 49.97 45.8442 49.571 45.122 48.602L43.2031 49.153C43.6972 49.742 43.9633 50.122 44.4194 50.92H42.8994C42.1014 50.92 41.6074 50.901 41.0944 50.844C41.1515 51.414 41.1706 51.851 41.1707 52.478L41.1709 53.694C41.171 54.15 41.1521 54.568 41.0951 55.005H43.1091L43.1087 52.63H54.8887L54.8891 55.043H56.9031C56.8271 54.606 56.808 54.245 56.8079 53.732L56.8077 52.554C56.8076 51.775 56.8265 51.281 56.8644 50.844C56.3514 50.901 56.0284 50.92 54.9264 50.92H53.4064C53.6677 50.577 53.7184 50.5008 54.0654 49.9791L54.2612 49.685C54.2878 49.6405 54.327 49.5836 54.3747 49.5141L54.3748 49.514C54.4291 49.4351 54.4944 49.3401 54.5651 49.229L52.589 48.659C52.2281 49.476 51.8293 50.16 51.2594 50.92H49.8534L49.8532 49.799C49.8531 49.305 49.891 48.868 49.948 48.488H47.782C47.858 48.887 47.8771 49.267 47.8772 49.799ZM45.5796 57.798H47.8596L47.8598 58.9H43.8888C43.2238 58.9 42.7108 58.881 42.2168 58.824C42.2549 59.337 42.274 59.717 42.2741 60.325L42.2745 62.738C42.2747 63.498 42.2368 64.068 42.1799 64.619H44.3269C44.2508 64.144 44.2317 63.65 44.2315 62.795L44.2312 60.648H47.8602L47.8607 63.403C47.8608 64.258 47.8419 64.771 47.766 65.36H49.951C49.8749 64.79 49.8558 64.296 49.8557 63.403L49.8552 60.648H53.7502L53.7505 62.434C53.7505 62.757 53.6175 62.833 53.0855 62.833C52.5726 62.833 52.0405 62.795 51.3565 62.7C51.6227 63.384 51.6987 63.669 51.7939 64.505C52.7249 64.562 52.7819 64.562 53.0099 64.562C55.2519 64.562 55.7268 64.277 55.7266 62.947L55.7261 60.477C55.726 59.66 55.7449 59.204 55.8018 58.824C55.4028 58.881 54.8708 58.9 53.9968 58.9H49.8548L49.8546 57.798H52.3626C53.0466 57.798 53.5216 57.817 54.1866 57.855C54.1486 57.475 54.1295 57.171 54.1294 56.335L54.1291 55.043C54.129 54.359 54.148 53.998 54.1859 53.561C53.7489 53.599 53.2169 53.618 52.4569 53.618H45.5789C44.9139 53.618 44.3059 53.599 43.8309 53.561C43.8689 53.979 43.888 54.435 43.8881 55.024L43.8884 56.335C43.8885 57.152 43.8696 57.418 43.8316 57.855C44.3636 57.817 44.8386 57.798 45.5796 57.798ZM45.8072 55.1H52.2102L52.2104 56.316H45.8074L45.8072 55.1ZM50.3348 86.478C49.8035 90.487 49.1769 92.672 48.0183 94.667C47.1066 96.244 45.8527 97.118 44.5607 97.118C42.5847 97.118 41.1784 95.18 41.1779 92.482C41.1774 89.48 42.6969 86.896 45.2997 85.528C46.5725 84.844 47.9405 84.54 49.7455 84.54C53.7165 84.54 56.662 87.352 56.6627 91.114C56.6633 94.439 55.0297 96.833 51.8759 98.182C51.249 98.448 50.755 98.6 50.508 98.6C50.28 98.6 50.185 98.524 49.9379 98.163C49.6148 97.669 49.2538 97.308 48.7407 96.966C52.6545 95.959 54.4212 94.116 54.4207 91.038C54.4204 89.461 53.7551 88.131 52.577 87.295C51.9119 86.839 51.3799 86.649 50.3348 86.478ZM48.1688 86.573C46.8199 86.858 46.1549 87.181 45.2811 87.941C44.0083 89.062 43.2866 90.658 43.2869 92.444C43.2872 93.907 43.7623 94.762 44.5603 94.762C45.5103 94.762 46.4791 93.451 47.2007 91.19C47.6564 89.765 47.8842 88.682 48.1688 86.573ZM52.8173 155.561L52.8185 162.002L52.7988 162.002L52.7655 162.002L52.7527 162.002C51.1927 162.013 50.526 162.018 49.8593 162.02C49.3684 162.021 48.8776 162.021 48.0305 162.021C45.0285 162.021 43.7745 161.983 42.5014 161.869C42.5586 162.876 42.6158 163.579 42.6918 163.94C42.7489 164.339 42.8249 164.415 43.0339 164.415C43.0909 164.415 43.1479 164.415 43.2049 164.396C43.5303 164.345 43.7785 164.324 44.1582 164.293L44.2879 164.282C45.0289 164.244 48.8289 164.168 50.9189 164.168H51.8689H52.7999C52.781 164.928 52.781 164.928 52.781 165.004C52.7811 165.194 52.7811 165.304 52.8357 165.369C52.9124 165.46 53.097 165.46 53.5411 165.46C54.0351 165.46 54.8901 165.384 55.0041 165.346C55.1371 165.289 55.194 165.137 55.194 164.89C55.194 164.795 55.194 164.776 55.1749 164.491C55.1368 163.826 55.0792 160.482 55.079 159.38C55.0784 156.245 55.0782 155.181 55.1349 153.338C53.2539 153.433 52.8549 153.433 47.8769 153.433C45.2739 153.433 43.9059 153.376 42.7849 153.243C42.8611 154.63 42.8992 155.143 42.9943 155.599L42.997 155.61C43.0325 155.752 43.0373 155.771 43.2414 155.827L43.3174 155.808L43.4124 155.827C43.4219 155.827 43.4408 155.822 43.4693 155.815C43.4978 155.808 43.5358 155.798 43.5834 155.789C44.0583 155.675 47.5923 155.561 51.0693 155.561H52.8173ZM53.5074 189.352C48.5497 189.423 47.3093 189.441 46.0699 189.486C45.6563 189.5 45.2429 189.518 44.6915 189.542C43.1145 189.599 43.1145 189.599 42.5255 189.713C42.4673 189.713 42.4091 189.72 42.364 189.726C42.3355 189.729 42.3122 189.732 42.2975 189.732C42.0695 189.732 41.9365 189.618 41.8414 189.371C41.6513 188.839 41.5372 188.136 41.499 187.186C42.8101 187.338 44.8051 187.414 47.2181 187.414C49.9161 187.414 52.3861 187.376 53.4501 187.319C53.925 187.281 54.115 187.243 54.438 187.129C54.609 187.072 54.704 187.053 54.837 187.053C55.217 187.053 55.5971 187.376 56.2432 188.288C56.6043 188.801 56.7754 189.143 56.7754 189.352C56.7755 189.561 56.7375 189.599 56.4145 189.827C56.1295 190.017 55.9776 190.188 55.3507 190.948C53.6411 193.057 52.5773 194.14 50.3926 195.907C51.5328 197.047 52.369 198.073 52.369 198.301C52.3691 198.51 52.1221 198.795 51.5332 199.27C51.1153 199.612 50.7923 199.802 50.6593 199.802C50.5453 199.802 50.4503 199.745 50.3173 199.574C49.139 197.997 48.7589 197.541 47.7517 196.534C46.5643 195.328 46.4818 195.263 44.498 193.705L44.4977 193.705L44.3502 193.589C44.2552 193.532 44.2172 193.437 44.2171 193.342C44.2171 193.19 44.54 192.81 45.053 192.316C45.3569 192.069 45.5089 191.955 45.6229 191.955C45.6989 191.955 45.7749 191.974 45.8889 192.05C46.687 192.506 47.7511 193.361 48.8533 194.387C50.81 192.734 52.1778 191.233 53.5074 189.352ZM48.8027 229.394L48.8027 229.489C48.8028 229.945 48.7839 230.667 48.746 231.218L48.746 231.294C48.7461 231.598 48.8601 231.655 49.5061 231.655C50.0761 231.655 50.5891 231.598 50.684 231.503C50.779 231.446 50.817 231.332 50.817 231.104L50.8169 230.781L50.8169 230.591L50.8168 230.192C50.8167 229.584 50.7785 228.71 50.7595 228.368C53.6472 226.962 55.3761 226.221 56.307 225.974C56.554 225.917 56.63 225.841 56.63 225.727C56.6299 225.404 55.7937 224.207 55.0146 223.409C54.5967 223.884 54.2357 224.169 53.3618 224.682C53.2478 224.758 52.2409 225.309 50.3601 226.335C49.9799 225.271 49.4098 224.777 48.5548 224.777C47.7948 224.777 47.1488 224.929 46.2939 225.328C46.8828 224.682 47.2817 224.074 47.8515 223.029C49.5995 222.858 51.6894 222.535 52.2974 222.364C52.5444 222.307 52.6204 222.212 52.6203 222.003C52.6203 221.737 52.5061 220.863 52.4301 220.521C52.392 220.407 52.316 220.35 52.164 220.35C52.069 220.35 51.974 220.369 51.556 220.483C50.8911 220.635 49.9411 220.825 48.8581 220.977C48.8771 220.92 48.8771 220.92 48.9151 220.844C49.162 220.255 49.3139 219.951 49.4469 219.704C49.5039 219.59 49.5229 219.552 49.5229 219.476C49.5228 219.153 48.7438 218.868 47.0527 218.583C47.0339 219.476 46.901 220.16 46.5022 221.243C45.6472 221.281 44.8302 221.3 44.0892 221.3C43.1772 221.3 42.7972 221.281 42.1512 221.186C42.1703 221.699 42.2654 222.706 42.3225 222.953C42.4175 223.276 42.4746 223.333 42.7596 223.333C43.5006 223.333 44.2036 223.314 45.5525 223.219C44.7738 224.587 43.482 225.917 41.9242 226.962C41.4683 227.247 41.4303 227.285 41.4303 227.456C41.4303 227.589 41.5444 227.836 41.7344 228.159C42.1335 228.824 42.5326 229.261 42.7226 229.261C42.8746 229.261 42.9316 229.223 43.5015 228.634C43.9004 228.235 44.5463 227.703 45.0973 227.323C45.9902 226.734 46.8071 226.43 47.5861 226.43C48.1751 226.43 48.4602 226.696 48.6123 227.323C46.8645 228.311 46.6745 228.444 45.8576 229.09C44.8317 229.907 44.3189 230.876 44.3191 231.978C44.3193 233.175 44.8705 234.03 45.9726 234.486C46.8846 234.866 48.1197 235.018 50.4377 235.018C51.8247 235.018 53.9337 234.904 54.3896 234.809C54.6366 234.752 54.7316 234.638 54.7316 234.353C54.7314 233.669 54.6553 233.099 54.5413 232.7C54.4842 232.567 54.3892 232.472 54.2562 232.472H54.1612C53.4012 232.662 53.1733 232.719 52.7743 232.776C51.8053 232.909 50.3803 233.004 49.3543 233.004C48.1573 233.004 47.2263 232.871 46.8082 232.624C46.5232 232.453 46.3902 232.225 46.3901 231.883C46.39 231.047 46.9219 230.496 48.8027 229.394ZM52.056 253.457C52.056 253.305 52.113 253.248 52.9298 252.469C53.2528 252.165 53.3668 252.089 53.4998 252.089C53.7278 252.089 54.8869 252.925 55.7231 253.723C56.6732 254.597 57.7374 255.889 57.7375 256.155C57.7375 256.326 57.6995 256.364 57.1486 256.858C56.4457 257.504 56.2748 257.637 56.1418 257.637C56.0088 257.637 55.9137 257.561 55.8187 257.371C55.1725 256.212 53.5952 254.578 52.2841 253.742C52.132 253.647 52.056 253.552 52.056 253.457ZM43.6061 130.739V133H54.3791V130.739H50.5791V118.883H48.5271C47.5551 119.537 46.4186 119.73 44.8426 119.999C44.7243 120.019 44.6035 120.04 44.4801 120.061V121.809H47.7861V130.739H43.6061Z" fill="black"/>
<path d="M62.019 119.609C62.0129 120.484 62.019 120.617 62.0743 120.708C62.1781 120.877 62.4927 120.942 63.1647 120.947C63.8227 120.952 64.1589 120.926 65.1398 120.8C65.1608 120.794 65.1818 120.794 65.2028 120.794C65.2728 120.794 65.3076 120.83 65.321 120.907C65.3412 121.019 65.3738 121.369 65.373 121.488C65.3722 121.593 65.3369 121.642 65.2387 121.669C65.0213 121.717 64.041 121.766 63.243 121.76C62.431 121.754 62.0184 121.695 61.6905 121.539C61.4463 121.418 61.2867 121.221 61.2324 120.982C61.1986 120.807 61.1857 120.653 61.1877 120.373C61.1881 120.303 61.1887 120.219 61.1896 120.1C61.2087 119.365 61.2093 119.274 61.2127 118.791C61.2212 117.58 61.2032 117.146 61.1426 116.81C62.0031 116.886 62.1918 116.929 62.1908 117.062C62.1906 117.097 62.1835 117.111 62.148 117.188C62.1266 117.237 62.105 117.328 62.083 117.467C62.0535 117.677 62.0454 117.838 62.0428 118.216C62.0339 118.482 62.0326 118.671 62.0318 118.776C63.2453 118.435 64.2357 117.952 64.6448 117.5C64.9848 117.929 65.1856 118.253 65.1848 118.358C65.1844 118.421 65.1563 118.442 65.0159 118.49C64.9177 118.524 64.7351 118.6 64.4612 118.731C63.5974 119.137 62.9798 119.364 62.019 119.609Z" fill="black"/>
<path d="M62.7914 132.286L62.7858 133.077C62.7828 133.504 62.7958 134.645 62.8075 134.974C62.8074 134.988 62.8074 135.002 62.8073 135.009C62.8069 135.072 62.7925 135.121 62.7574 135.142C62.7081 135.183 62.4278 135.216 62.1689 135.215C61.9449 135.213 61.903 135.192 61.904 135.052C61.904 135.045 61.9041 135.038 61.9042 135.024C61.9195 134.842 61.9546 132.826 61.9604 131.993C61.9716 130.383 61.9608 129.928 61.9007 129.521C62.4044 129.56 62.6283 129.583 62.831 129.626C62.9008 129.648 62.9356 129.683 62.9352 129.739C62.9349 129.774 62.9349 129.774 62.9061 129.893C62.8775 129.976 62.8628 130.074 62.855 130.186C62.8549 130.2 62.838 130.62 62.8112 131.446C63.3072 131.59 63.3072 131.59 63.5935 131.697C64.2918 131.947 64.6895 132.132 65.3102 132.465C65.3659 132.507 65.3936 132.543 65.3933 132.585C65.3928 132.655 65.2645 132.99 65.151 133.199C65.0942 133.317 65.0589 133.352 65.017 133.352C64.989 133.352 64.954 133.337 64.9053 133.302C64.2225 132.842 63.5039 132.501 62.7914 132.286Z" fill="black"/>
<path fill-rule="evenodd" clip-rule="evenodd" d="M61.2147 118.188C61.2144 118.036 61.2133 117.901 61.2114 117.779C61.2087 117.609 61.2043 117.466 61.1981 117.343C61.1979 117.338 61.1976 117.333 61.1974 117.328C61.1919 117.224 61.1852 117.135 61.1769 117.055C61.1675 116.964 61.1561 116.884 61.1427 116.81C61.2051 116.815 61.264 116.821 61.3196 116.826C61.3396 116.828 61.3592 116.83 61.3784 116.831C61.4253 116.836 61.4696 116.84 61.5115 116.845C62.0596 116.902 62.1918 116.951 62.191 117.062C62.1907 117.096 62.1842 117.11 62.152 117.179C62.1508 117.182 62.1495 117.185 62.1481 117.188C62.1268 117.237 62.1051 117.328 62.0831 117.467C62.0806 117.485 62.0783 117.503 62.0761 117.52C62.0523 117.706 62.0453 117.87 62.0429 118.216C62.034 118.482 62.0327 118.671 62.032 118.776C62.4473 118.659 62.8365 118.526 63.1852 118.383C63.1951 118.379 63.205 118.375 63.2149 118.371C63.2361 118.362 63.2572 118.353 63.2781 118.344C63.3406 118.318 63.4017 118.291 63.4612 118.264C63.4881 118.252 63.5147 118.239 63.5409 118.227C63.6854 118.159 63.8204 118.09 63.9447 118.02C63.9548 118.014 63.9649 118.009 63.9749 118.003C63.9994 117.989 64.0234 117.975 64.0471 117.961C64.0591 117.954 64.0709 117.946 64.0827 117.939C64.0842 117.938 64.0858 117.937 64.0873 117.937C64.0966 117.931 64.1058 117.925 64.115 117.919C64.3394 117.78 64.5195 117.638 64.645 117.5C64.6605 117.52 64.6758 117.539 64.6908 117.558C64.6947 117.563 64.6987 117.568 64.7026 117.573C65.0075 117.966 65.1857 118.259 65.185 118.358C65.1845 118.421 65.1564 118.442 65.0161 118.49C64.9178 118.524 64.7353 118.6 64.4614 118.731C64.323 118.796 64.1909 118.856 64.0627 118.913C63.8211 119.02 63.5933 119.113 63.3631 119.199C63.3119 119.218 63.2605 119.236 63.2089 119.255C63.1981 119.258 63.1874 119.262 63.1766 119.266C62.8882 119.367 62.5895 119.458 62.2495 119.549C62.1748 119.569 62.0981 119.589 62.0192 119.609C62.0177 119.812 62.017 119.974 62.0173 120.106C62.0173 120.111 62.0174 120.117 62.0174 120.122C62.0177 120.226 62.0188 120.31 62.0209 120.379C62.0272 120.59 62.0428 120.656 62.0745 120.709C62.0767 120.712 62.079 120.716 62.0814 120.719C62.0841 120.723 62.087 120.727 62.09 120.731C62.1018 120.746 62.1155 120.76 62.1312 120.774C62.1325 120.775 62.1338 120.776 62.1351 120.777C62.1457 120.786 62.1573 120.794 62.1698 120.802C62.2145 120.83 62.2714 120.854 62.342 120.874C62.5199 120.923 62.7854 120.945 63.1648 120.947C63.1934 120.948 63.2214 120.948 63.2488 120.948C63.3229 120.948 63.3932 120.948 63.4611 120.947C63.8199 120.943 64.1149 120.923 64.5755 120.87C64.7033 120.855 64.8439 120.838 65.0021 120.818C65.0184 120.816 65.0348 120.814 65.0515 120.812C65.0804 120.808 65.1098 120.804 65.1399 120.801C65.1609 120.794 65.1819 120.794 65.2029 120.794C65.2729 120.794 65.3077 120.83 65.3212 120.907C65.3414 121.019 65.3739 121.369 65.3731 121.488C65.373 121.497 65.3727 121.506 65.3721 121.514C65.3662 121.597 65.3321 121.64 65.2511 121.666C65.2471 121.667 65.243 121.668 65.2388 121.669C65.227 121.672 65.2129 121.674 65.1968 121.677C64.9495 121.716 64.2104 121.755 63.5227 121.76C63.428 121.761 63.3344 121.761 63.2431 121.76C63.2147 121.76 63.1867 121.759 63.1591 121.759C62.4023 121.75 62.0071 121.69 61.6906 121.539C61.5181 121.453 61.3877 121.33 61.3069 121.181C61.306 121.179 61.305 121.177 61.304 121.175C61.272 121.115 61.248 121.05 61.2325 120.982C61.2086 120.858 61.1952 120.745 61.19 120.59C61.1879 120.526 61.1872 120.455 61.1878 120.373L61.1897 120.1C61.1952 119.89 61.1991 119.732 61.2021 119.603C61.2092 119.292 61.2104 119.146 61.2126 118.825C61.2127 118.814 61.2128 118.803 61.2129 118.791C61.2129 118.784 61.213 118.777 61.213 118.77C61.2131 118.761 61.2131 118.751 61.2132 118.742C61.2145 118.544 61.215 118.368 61.2148 118.21C61.2148 118.203 61.2147 118.196 61.2147 118.188ZM67.2913 120.563C67.3307 120.788 67.3748 121.252 67.373 121.503C67.3714 121.74 67.3355 122.276 66.9517 122.796C66.5567 123.331 66.0364 123.523 65.7748 123.596C65.7387 123.606 65.7023 123.615 65.6657 123.623C65.3575 123.691 64.8707 123.717 64.5528 123.732C64.1502 123.751 63.6692 123.763 63.2291 123.76C62.3984 123.754 61.5911 123.707 60.8301 123.344L60.8043 123.331C60.072 122.969 59.4828 122.305 59.2825 121.427C59.2775 121.405 59.2729 121.383 59.2687 121.361C59.2024 121.017 59.1853 120.723 59.1878 120.359L59.1897 120.086C59.1898 120.074 59.19 120.06 59.1904 120.048C59.209 119.332 59.2096 119.248 59.2128 118.791L59.2129 118.777C59.2217 117.523 59.196 117.284 59.1744 117.164C59.0638 116.551 59.2457 115.921 59.6662 115.46C60.0867 115 60.6977 114.763 61.3187 114.818C61.7083 114.852 62.1288 114.892 62.4548 114.97C62.5969 115.004 62.992 115.102 63.3713 115.395C63.5008 115.495 63.6157 115.607 63.7155 115.729C64.0185 115.57 64.3609 115.489 64.7108 115.501C65.2985 115.52 65.8479 115.798 66.2129 116.259C66.4101 116.508 66.5928 116.758 66.7371 116.988C66.8075 117.1 66.8905 117.242 66.963 117.398C66.9641 117.401 66.9654 117.404 66.9669 117.407C67.0079 117.494 67.1884 117.88 67.1849 118.372C67.1839 118.522 67.1679 118.829 67.0199 119.178C66.9629 119.313 66.8951 119.434 66.8208 119.542C67.1538 119.938 67.2551 120.356 67.2913 120.563ZM61.9606 130.467C61.9645 130.713 61.9653 131.02 61.9637 131.418C61.9637 131.42 61.9637 131.422 61.9637 131.424C61.9636 131.46 61.9634 131.496 61.9633 131.533C61.9626 131.675 61.9617 131.828 61.9605 131.993C61.9599 132.078 61.959 132.174 61.9579 132.28C61.9554 132.511 61.9517 132.786 61.9473 133.071C61.9464 133.13 61.9455 133.189 61.9446 133.248C61.9442 133.272 61.9438 133.295 61.9434 133.318C61.9411 133.463 61.9386 133.609 61.936 133.75C61.9334 133.893 61.9308 134.031 61.9282 134.16C61.9206 134.534 61.9132 134.837 61.9075 134.968C61.9069 134.981 61.9063 134.993 61.9057 135.003C61.9057 135.004 61.9056 135.005 61.9055 135.006C61.9051 135.013 61.9047 135.019 61.9043 135.024L61.9041 135.052C61.9031 135.192 61.945 135.213 62.169 135.215C62.428 135.216 62.7082 135.183 62.7575 135.142C62.7732 135.133 62.7847 135.118 62.7928 135.098C62.7977 135.087 62.8013 135.073 62.8037 135.058C62.8051 135.049 62.8061 135.04 62.8067 135.03C62.8072 135.023 62.8074 135.016 62.8074 135.009L62.8077 134.974C62.8037 134.862 62.7996 134.655 62.7959 134.415C62.7917 134.134 62.7883 133.807 62.7866 133.53C62.7862 133.474 62.786 133.419 62.7858 133.368C62.7854 133.254 62.7854 133.154 62.786 133.077L62.7915 132.286C62.9632 132.338 63.1352 132.397 63.307 132.463C63.3106 132.465 63.3142 132.466 63.3178 132.467C63.3437 132.478 63.3695 132.488 63.3954 132.498C63.4544 132.522 63.5133 132.546 63.5722 132.572C63.6992 132.626 63.826 132.685 63.9523 132.747C64.1613 132.851 64.3688 132.965 64.5738 133.09C64.633 133.126 64.692 133.163 64.7507 133.2C64.7623 133.208 64.7739 133.215 64.7855 133.223C64.8146 133.242 64.8436 133.261 64.8725 133.28C64.8835 133.287 64.8945 133.295 64.9054 133.302C64.9542 133.338 64.9891 133.352 65.0171 133.352C65.0591 133.352 65.0943 133.318 65.1512 133.199C65.2444 133.027 65.3478 132.77 65.3819 132.645C65.3892 132.618 65.3934 132.597 65.3935 132.585C65.3935 132.582 65.3934 132.58 65.3933 132.578C65.3906 132.539 65.363 132.505 65.3103 132.465C65.2099 132.411 65.1153 132.361 65.0244 132.314C64.6596 132.125 64.353 131.984 63.9616 131.833C63.9126 131.814 63.8622 131.795 63.8101 131.776C63.741 131.75 63.6691 131.724 63.5936 131.697C63.4872 131.657 63.4203 131.632 63.3528 131.609C63.2698 131.58 63.1858 131.555 63.0261 131.508C62.9664 131.491 62.8961 131.471 62.8114 131.446C62.8309 130.844 62.8452 130.457 62.8515 130.287C62.8518 130.281 62.852 130.276 62.8522 130.27C62.8541 130.218 62.8552 130.19 62.8552 130.186C62.863 130.074 62.8777 129.977 62.9062 129.893C62.9286 129.801 62.9336 129.78 62.9349 129.759C62.9352 129.753 62.9353 129.747 62.9353 129.739C62.9357 129.683 62.901 129.648 62.8311 129.626C62.6284 129.583 62.4046 129.56 61.9008 129.521C61.9023 129.531 61.9037 129.541 61.9051 129.551C61.9098 129.584 61.9141 129.618 61.9182 129.653C61.9212 129.678 61.924 129.705 61.9267 129.732C61.9376 129.843 61.9459 129.968 61.9518 130.123C61.9526 130.142 61.9532 130.161 61.9539 130.18C61.9567 130.266 61.9589 130.36 61.9606 130.467ZM64.9128 130.059C64.9339 129.913 64.9349 129.802 64.9353 129.753C64.9387 129.26 64.7682 128.728 64.3674 128.301C64.0203 127.931 63.6288 127.779 63.4192 127.715C63.3635 127.698 63.307 127.683 63.25 127.671C62.893 127.594 62.5332 127.564 62.0533 127.527C61.4468 127.481 60.8522 127.713 60.4376 128.158C60.0229 128.603 59.8333 129.212 59.9224 129.814C59.9549 130.034 59.9722 130.312 59.9606 131.979C59.9577 132.384 59.9477 133.088 59.9363 133.716C59.9306 134.029 59.9247 134.32 59.9193 134.542C59.9161 134.675 59.9134 134.762 59.9119 134.811C59.9104 134.859 59.9101 134.871 59.9113 134.856C59.9071 134.907 59.9047 134.958 59.9044 135.009L59.9042 135.037C59.9042 135.039 59.9041 135.042 59.9041 135.046C59.9024 135.194 59.8899 136.279 60.9227 136.9C61.2952 137.123 61.6466 137.175 61.7861 137.193C61.9442 137.212 62.0868 137.214 62.155 137.215C62.3642 137.216 62.5847 137.204 62.7839 137.18C62.8804 137.168 63.0095 137.149 63.1473 137.116C63.215 137.1 63.3189 137.072 63.4378 137.027C63.5016 137.003 63.6702 136.938 63.8654 136.807C64.3409 136.493 64.5741 136.061 64.6808 135.759C64.7347 135.607 64.766 135.464 64.784 135.339C64.8542 135.347 64.9273 135.351 65.0031 135.352C65.7339 135.357 66.2641 134.992 66.564 134.659C66.7594 134.443 66.8787 134.219 66.9344 134.106C67.0319 133.92 67.1168 133.723 67.1777 133.567C67.212 133.479 67.2489 133.378 67.2808 133.276C67.2964 133.226 67.317 133.156 67.3357 133.075L67.3364 133.072C67.3479 133.023 67.3918 132.835 67.3934 132.599C67.4008 131.539 66.6533 130.974 66.5281 130.879C66.5257 130.877 66.5234 130.875 66.5215 130.874C66.4378 130.81 66.3492 130.753 66.2566 130.703C65.7668 130.44 65.3797 130.249 64.9128 130.059Z" fill="white"/>
</svg>
